<svg id="Ebene_1" xmlns="http://www.w3.org/2000/svg" viewBox="0 0 433.4 500.3"><style>.st0,.st20,.st22{fill:none;stroke:#fff;stroke-miterlimit:10}.st20,.st22{fill:#fff}.st22{fill:none;stroke-dasharray:4.9905,4.9905}</style><circle class="st0" cx="217" cy="249.6" r="57.9"/><circle class="st0" cx="217" cy="250.2" r="72.3"/><path class="st0" d="M352.8 328.7c-17.1 29.6-15.9 64.7 0 92.4l80-46.2v-92.3c-31.9 0-62.9 16.5-80 46.1zM263 419.9c-44.1-25.5-100.6-10.4-126.1 33.7l79.8 46.1 80-46.2c-7.9-13.5-19.2-25.2-33.7-33.6zM47 295.2c-14.7-8.5-30.7-12.4-46.5-12.4v92.1l80.3 46.4c25.5-44.2 10.4-100.6-33.8-126.1zM80.5 79.2l-80 46.2v92.4c31.9 0 62.9-16.6 80-46.2s16-64.8 0-92.4zM136.8 46.7c7.8 13.7 19.3 25.6 34 34.1C215 106.3 271.4 91.2 296.9 47L216.7.6l-79.9 46.1zM353 79.3s-.1 0 0 0c-25.5 44.2-10.4 100.7 33.8 126.2 14.5 8.4 30.4 12.4 46.1 12.4v-92.5L353 79.3z"/><circle cx="216.4" cy="249.6" r="92.3" fill="none" stroke="#fff" stroke-miterlimit="10" stroke-dasharray="5"/><path class="st0" d="M341.4 72.6l-2.2-1.2c-.4.7-.8 1.4-1.2 2.2"/><path d="M335.7 77.9c-7 14.4-11 30.5-11 47.6 0 58 45.7 105.4 103.1 108.1" fill="none" stroke="#fff" stroke-miterlimit="10" stroke-dasharray="4.9228,4.9228"/><path class="st0" d="M430.3 233.7h2.5v-2.5"/><path fill="none" stroke="#fff" stroke-miterlimit="10" stroke-dasharray="4.9194,4.9194" d="M432.8 226.3v-95.9"/><path class="st0" d="M432.8 127.9v-2.5l-2.2-1.2"/><path fill="none" stroke="#fff" stroke-miterlimit="10" stroke-dasharray="4.9066,4.9066" d="M426.4 121.7l-82.9-47.8"/><path class="st0" d="M125.3 53.4l-2.2 1.2c.4.7.8 1.4 1.3 2.2"/><path d="M127 61c19.4 29 52.5 48.1 90 48.1 38.3 0 71.9-19.9 91.1-49.9" fill="none" stroke="#fff" stroke-miterlimit="10" stroke-dasharray="4.9328,4.9328"/><path class="st0" d="M309.4 57.1c.4-.7.9-1.4 1.3-2.1l-2.2-1.2"/><path fill="none" stroke="#fff" stroke-miterlimit="10" stroke-dasharray="4.9325,4.9325" d="M304.3 51.2L221 3.1"/><path class="st0" d="M218.8 1.9L216.7.6l-2.2 1.3"/><path fill="none" stroke="#fff" stroke-miterlimit="10" stroke-dasharray="4.9073,4.9073" d="M210.3 4.3l-82.9 47.9"/><path class="st0" d="M337.8 426.9c.4.7.8 1.5 1.2 2.2l2.2-1.3"/><path fill="none" stroke="#fff" stroke-miterlimit="10" stroke-dasharray="4.9172,4.9172" d="M345.5 425.3l83-47.9"/><path class="st0" d="M430.6 376.1l2.2-1.2v-2.5"/><path fill="none" stroke="#fff" stroke-miterlimit="10" stroke-dasharray="4.9165,4.9165" d="M432.8 367.5v-95.9"/><path class="st0" d="M432.8 269.1v-2.5h-2.5"/><path d="M425.4 266.9c-56.3 3.8-100.8 50.7-100.8 107.9 0 18 4.4 34.9 12.1 49.9" fill="none" stroke="#fff" stroke-miterlimit="10" stroke-dasharray="4.9288,4.9288"/><path class="st0" d="M124.3 443.5c-.4.7-.9 1.4-1.3 2.1l2.2 1.2"/><path fill="none" stroke="#fff" stroke-miterlimit="10" stroke-dasharray="4.9122,4.9122" d="M129.4 449.3l83 47.9"/><path class="st0" d="M214.5 498.5l2.2 1.2 2.1-1.2"/><path fill="none" stroke="#fff" stroke-miterlimit="10" stroke-dasharray="4.9133,4.9133" d="M223.1 496l83-47.9"/><path class="st0" d="M308.2 446.9l2.2-1.3c-.4-.7-.8-1.4-1.3-2.1"/><path d="M306.4 439.3c-19.4-28.8-52.4-47.7-89.7-47.7-38.2 0-71.9 19.8-91.1 49.8" fill="none" stroke="#fff" stroke-miterlimit="10" stroke-dasharray="4.9208,4.9208"/><path class="st0" d="M3.1 266.3H.6v2.5"/><path fill="none" stroke="#fff" stroke-miterlimit="10" stroke-dasharray="4.9384,4.9384" d="M.6 273.7V370"/><path class="st0" d="M.6 372.4v2.5l2.1 1.3"/><path fill="none" stroke="#fff" stroke-miterlimit="10" stroke-dasharray="4.9143,4.9143" d="M7 378.6l83 48"/><path class="st0" d="M92.1 427.8l2.2 1.2c.4-.7.8-1.4 1.2-2.2"/><path d="M97.8 422.5C105 408 109 391.7 109 374.4c0-58.2-45.9-105.6-103.5-108.1" fill="none" stroke="#fff" stroke-miterlimit="10" stroke-dasharray="4.9443,4.9443"/><g><path class="st0" d="M95.7 73.3c-.4-.7-.8-1.5-1.2-2.2l-2.2 1.2"/><path fill="none" stroke="#fff" stroke-miterlimit="10" stroke-dasharray="4.926,4.926" d="M88.1 74.9l-83.2 48"/><path class="st0" d="M2.7 124.1l-2.1 1.3v2.5"/><path fill="none" stroke="#fff" stroke-miterlimit="10" stroke-dasharray="4.9154,4.9154" d="M.6 132.8v95.8"/><path class="st0" d="M.6 231.1v2.5h2.5"/><path d="M8 233.4c56.4-3.7 101.1-50.6 101.1-108 0-18-4.4-35-12.2-49.9" fill="none" stroke="#fff" stroke-miterlimit="10" stroke-dasharray="4.9349,4.9349"/></g><path class="st0" d="M216.7.6L.6 125.4v249.5l216.1 124.8 216.1-124.8V125.4z"/><ellipse transform="rotate(-10.9 216.399 125.481)" class="st20" cx="216.4" cy="125.5" rx="40.3" ry="40.3"/><circle class="st20" cx="109.1" cy="312.6" r="40.3"/><circle class="st20" cx="325" cy="312.7" r="40.3"/><g><path class="st0" d="M218.8 1.9L216.7.6l-2.2 1.3"/><path d="M210.2 4.4L.6 125.4V370" fill="none" stroke="#fff" stroke-miterlimit="10" stroke-dasharray="4.9906,4.9906"/><path class="st0" d="M.6 372.4v2.5l2.1 1.3"/><path class="st22" d="M7.1 378.7l205.3 118.5"/><path class="st0" d="M214.5 498.5l2.2 1.2 2.1-1.2"/><path fill="none" stroke="#fff" stroke-miterlimit="10" stroke-dasharray="4.9915,4.9915" d="M223.2 496l205.3-118.6"/><path class="st0" d="M430.6 376.1l2.2-1.2v-2.5"/><path fill="none" stroke="#fff" stroke-miterlimit="10" stroke-dasharray="4.9893,4.9893" d="M432.8 367.4v-237"/><path class="st0" d="M432.8 127.9v-2.5l-2.2-1.2"/><path class="st22" d="M426.3 121.7L221 3.1"/></g><path class="st0" d="M.6 125.4v249.5zM.6 374.9l216.1 124.8zM432.8 125.4L216.7.6.6 125.4v249.5l216.1 124.8 216.1-124.8v-249zM432.8 125.4v.5zM432.8 374.9L216.7 499.7zM216.7.6l216.1 374.3M.6 374.9h432.2M216.7.6L.6 374.9M.6 125.4h432.2M216.7 499.7l216.1-374.3M.6 125.4l216.1 374.3M432.8 374.9L.6 125.4M.6 374.9l432.2-249.5"/><path d="M117.1 333h-16v-.7h5v-37.8h-8l-4 10.3h-.6v-11.1h31.1v11.1h-.6l-4-10.3h-7.9v37.8h5v.7zM230.3 110.7c-1.6-1.6-3.7-2.8-6-3.7-2.4-.8-5-1.3-7.9-1.3h-17.9v.7h4.8v37.9h-4.8v.7h17.9c3.2 0 6-.5 8.3-1.6 2.4-1.1 4.4-2.5 6-4.3s2.8-3.9 3.6-6.4c.8-2.5 1.2-5.1 1.2-8 0-3-.4-5.7-1.3-8.1-1-2.3-2.2-4.3-3.9-5.9zm-2.4 22.2c-.6 2.4-1.5 4.4-2.6 6.1-1.1 1.7-2.5 3-4.1 3.9s-3.3 1.4-5.3 1.4h-6.5v-37.9h5.9c2.4 0 4.4.5 6.2 1.4 1.7.9 3.1 2.2 4.2 3.8 1.1 1.6 1.9 3.6 2.4 5.8.5 2.2.8 4.7.8 7.4-.1 3.1-.4 5.7-1 8.1zM323.4 333.5c2.6-.6 4.7-1.4 6.5-2.3 1.7-.9 3.1-1.8 4.2-2.9 1-1 1.8-2.2 2.2-3.3.4-1.2.7-2.4.7-3.6 0-2.2-.6-4.1-1.7-5.6s-2.9-2.9-5.3-4.3l-6.7-4c-1.8-1-3.2-2.1-4.2-3.2s-1.5-2.5-1.5-4.2c0-1.9.7-3.5 2-4.7s3.1-1.8 5.4-1.8c1.5 0 2.8.3 4 .8s2.4 1.3 3.4 2.3l2.9 7.2h.6v-9.1c-3.2-1.5-6.7-2.3-10.6-2.3-4.2.7-7.3 2.1-9.4 3.9-2.1 1.9-3.1 4.1-3.1 6.9 0 1.1.2 2.1.5 3s.8 1.6 1.3 2.3c.6.7 1.2 1.3 2 1.9s1.6 1.1 2.6 1.7l6.9 4.1c2.3 1.3 3.9 2.6 4.9 4 1 1.3 1.5 2.9 1.5 4.6 0 2.2-.7 3.9-2.1 5.2-1.4 1.3-3.3 1.9-5.6 1.9-1.9 0-3.7-.5-5.2-1.4s-2.8-2-4-3.2l-2.6-6.3h-.9v9.3c1.6 1 3.3 1.9 5.1 2.4 1.7.4 3.8.7 6.2.7z"/></svg>