<svg id="Ebene_1" xmlns="http://www.w3.org/2000/svg" viewBox="0 0 413.1 86.3"><style>.st1{fill:#8ec582}.st2{fill:#fec05e}</style><g id="bevPZZ.tif"><path d="M53.1 78.3H405V8.5H282.3c-.3-2.7-.1-5.3-.2-8.2h131v86h-403v-9c2.3-1 4.7-2 7-3v4h36z" fill="#febd58"/><path class="st1" d="M53.1 78.3h-3c-.1-5.6-1.7-7.6-7.4-9.1l-3.3 3.3c-6.9-.2-11.9-4.3-17-8-1.5 3.5-3.1 6.8-5.3 9.8-2.3 1-4.7 2-7 3-3.3-.5-6.2 2-9.8.8-1.2-6.2.9-12 4-17.3.9-1.6 3.3-2.4 5-3.4.4-.3.9-.4.8-1 2.4.4 4.5-1.8 7-1 2 .2 3.5-1.8 5.5-.8 2.3-3.3 6.2-4.7 7.8-8.1 4.3-.3 8.2.2 12 1.7 2.7 1.1 5.4-.6 7.5-4.1.5-2.9 0-5.4-2.2-7.4-1.5-1.4-3.2-2.6-5.4-2.1-.3.7-.5 1.3-.6 1.9-1.8 0-3.5-.3-5.1.1-2 .4-3.3-.9-5.1-1.2-3.4-.6-6.8-2.3-9.4-4.6-1.7-1.5-3.1-2.3-5.1-2.2-2.6.2-4.7-1.1-7-2-3.2-2.4-5.9-7.6-6-11.7 0-1.7-.1-3.4-1.4-4.4 2-2.2 2.4.8 3.9.2 1-.4 2.3-.1 3.4-.1 2.3.7 4.7 1.3 7 2 2.4 3.1 3.8 6.7 5 10.4.9 2.9 2 5.7 4.6 7.6h1.9c1-.7.1-1.9.7-2.7.2-.3.4 0 .7.1 2.1.6 4 2.1 6.3 1.6 1.6-.3 2.7.7 4.1 1.1 3.3.8 6.7 1.5 9.5 3.4.8.5 1.5.5 2.3.5 7.2.7 13.1 3.2 16 10.5.4.9.5 2.3 1.9 2.9-.9 2.5 1 4.7.9 7.3-12.2-2.5-12.2-2.5-18.4-8.7-2 1.5-3.3 4.1-6 4.7-5.1 1.4-10.1-1.5-15.3-.6-.3.9-.5 1.5.7 1.9 2.8 1 5.5 2.5 8.5 1.9.9.8.4 1.7.6 2.4-2.4 2-4.6-.2-6.6-.7-2.1-.6-4.5-1.1-6.6-3-2.3 2.6-4.1 5.2-3.8 8.9 2 .5 3.1 2.3 4.5 3.4 3.8.2 7.3.9 10.8 1.9 1.8.5 3.5.4 4.6-.9 5.6 2.1 5.6 2.1 9.1 7.6.2 1.2.2 2.7.2 4.2z"/><path class="st2" d="M17.1 12.3c-2.3-.7-4.7-1.3-7-2V.8C14.5 0 97-.3 139.9.3v7.9H17.1v4.1zM247.3 58.3v-28c3.9 0 7.7-.2 11.5 0 5.5.3 10.1 2.4 12.3 7.9.2.5.4.9.7 1.2l.3.3v9c-1.1 1.2-1.4 2.9-2.2 4.1-2.4 3.5-6.1 5.1-10.1 5.4-4.1.3-8.2.1-12.5.1zm4-4h7.2c5.8 0 9.6-3.8 9.6-9.6v-3.4c-1.2-2.7-2.7-4.6-4.7-5.7-3.9-2.3-8-.9-12.1-1.4v20.1zM284.4 42.3h13.2c.7.5.5 1.2.5 1.8v2.1h-13.8v8.1h15.3c.9 1.2.3 2.4.5 3.9-6.6.4-13.2.1-19.9.2V30.6h19.6c.5 1.1.2 2.2.1 3.7h-15.6c.1 2.8.1 5.4.1 8zM219.3 30.4h19.5c.6 1.2.3 2.3.3 3.8h-15.8v7.9h13.1c1.4 1.3.2 2.7 1 4h-14v8.1h15.4c.5 1.4.5 2.6.2 4h-19.6c-.1-9.2-.1-18.3-.1-27.8zM186.3 30.4h3.7v11.7h16.1V30.8c1.2-.9 2.4-.3 3.5-.5.7.6.9 15.8.4 27.7-1.1.7-2.3 0-3.7.6V46.7c-.6-.2-.9-.4-1.2-.4h-14.8v11.9h-3.9c-.1-9.2-.1-18.3-.1-27.8zM96 34.7c.4 2.7 1.8 5.1.9 8-.7 1.3-1.5 3-2.4 4.6-4.6 3.5-10 3-15.4 2.9v7.6c-1.2.9-2.4.3-3.5.5-.1-.1-.4-.2-.4-.3V30.3c3.9 0 7.9-.3 11.8.1 3.5.3 6.9 1.4 9 4.3zM79.2 46.3h8.3c2.6-.2 5-2.4 5.6-4.9.5-2.2-.9-4.6-3.4-6.1-.4-.2-.7-.6-1-.8h-9.5v11.8zM118.1 50c-1.6-2.9-4.6-3.7-7.2-4.3-3.1-.8-5.5-2.3-7.7-4.9v-5c.9-2.3 2.5-4 5.5-4.6 2.6-.5 5-1.6 7.8-.2 1.6.8 3.8 0 5.3 1.8 1 1.4 0 2.4-1.2 3.4-3.4.1-6.1-2.9-10.1-1.8-.8.9-2.7 1.6-2.3 4.4.7.5 1.8 1.3 3.2 2.4 2.6.2 5.6 1.7 8.4 3.3 3.9 2.2 4.3 6.8 1.4 10.2-.8.9-1.6 1.7-1.8 1.8-6.7 3.3-12 1.1-17.2-1.8v-3c1-1 2.2-.2 3.2-.5 5 4.3 12.1 4.1 12.7-1.2zM373.1 40.7v-4.6c.7-2.2 2-4.1 4.3-4.6 2.9-.6 5.6-2.3 8.7-.7 1.8.9 4.1.2 5.7 1.8.6 1.7-.1 2.8-1.5 3.7-3.3-.2-6.1-2.8-9.9-1.9-1 1-2.8 1.8-2.5 4 1 2.7 3.7 2.8 5.8 3.7 1.6.6 3.1 1.1 4.7 2 5.3 3.1 6 7 1.8 11.4l-1.7 1.7c-9.5 1.8-6.4 1.6-16.3-2.2-.5-1.1-.2-2.2-.2-3.4 1.2-.5 2.5-.7 3.7-.1 5.1 2.7 5.1 2.7 8.8 2.7 1.1-1.4 4.2-1 3-5.1-.9-2.1-4.1-2.7-6.9-3.5-2.9-.8-5.3-2.3-7.5-4.9zM365 33.6c.1 1.2.5 2.5-.5 3.9-1.9-1-3.9-1.9-6.3-3.2-5.1-.7-9.2 1.6-12 7.1v6.4c5.4 6.2 6 6.5 12.1 6.5 1.9-1 3.9-2 5.8-3 1.1.1 1.6 1 2.1 1.8-.1.3 0 .7-.2.9-4.4 4.5-9.7 5.3-15.6 3.1-5.7-2.1-7.6-6.9-9.2-12-.6-1.9.7-3.5 1.2-5 1.8-6 8.8-10.4 15.1-9.6 2.5.2 5.4 1 7.5 3.1zM176.3 51.1c.8.7 1.3 1.3 1.8 1.7-.1.5 0 .9-.2 1.1-4.4 4.5-9.7 5.3-15.6 3.1-5.7-2.1-7.6-6.9-9.2-12-.6-1.9.7-3.5 1.2-5 1.8-6 8.8-10.4 15.1-9.6 2.7.3 5.5 1.1 7.7 3.3.1 1.2.5 2.5-.5 3.9-1.9-1-3.9-1.9-6.3-3.2-5.1-.8-9.1 1.7-12 6.8v6.2c2.8 5.3 6.8 7.7 12.2 6.9 1.9-1.2 3.7-2.1 5.8-3.2zM146.4 30.3h4.2c.5.3.4.4.2.8-2.5 4.4-4.9 8.9-7.4 13.4-1.7 3-2.8 6-2.3 9.5.2 1.3 0 2.6 0 3.9-1.2.7-2.4.3-3.5.4-.2-.3-.5-.6-.5-.8.8-6.6-1.9-12-5.4-17.2-2-2.9-3.2-6.3-4.8-9.4.5-.3.8-.5 1.1-.6 1-.1 1.9 0 2.9 0 2.5 4.4 4.9 8.6 7.3 12.8 2.6-2 2.7-1.9 4.7-6 1-2.3 3-4 3.5-6.8zM10.1 26.3c2.3.9 4.4 2.2 7 2v27c-2.5-.8-4.6 1.4-7 1v-30zM308.3 30.4h3.7V54c2.2.6 4.3.2 6.4.3 2.1.1 4.3 0 6.4 0 .8 1.2.3 2.4.4 3.5-.1.1-.2.3-.4.3h-16.5V30.4zM335 58.2h-3.7V30.6c1-.7 2.3-.3 3.7-.2v27.8z"/><path class="st1" d="M269.2 7.6v2.5h5.2c.8.5.7 1 .7 1.5-.2.2-.4.6-.7.6h-8.1V1.3c2.7-.2 5.6 0 8.2-.1.8.5.6 1.1.6 1.6-1.8 1-3.9-.1-5.7.6-.5.4-.3.9-.2 1.7h4.4c.5.8.5 1.2.3 1.7-1.4 1.1-3.2-.2-4.7.8zM212.9 12.2h-3.4c-.3-.6-.5-1.2-.7-1.8h-5.1c-1 .4-1.3 2.2-3 1.9-.2-.2-.5-.5-.5-.8 0-.6-.2-1.5.2-1.9 2-2.5 2.2-5.8 4.1-8.3h3.4c1.3 3.4 2.4 7.1 5 10.9zm-6.2-8.3c-2.2 1.1-3.2 2.2-2.3 4.3h2.4c.5-1.3.5-2.5-.1-4.3zM184.7 12.3c-1.2-1.2-2.4-2.3-3.5-3.5-.1-2.1-.2-4.2 1.2-6.1.5-.7 1.8-.3 2.2-1.3h6.5v2.9c-1.9.1-3.5-1.8-5.7-.7l-1.1 1.1v4c1.6.4 2.7 2.2 4.9 1.2 0-.7.1-1.5.1-2.3.9-.8 1.8-.5 2.8-.1v3.3c-2.3 1.9-4.9 1.4-7.4 1.5zM257.8 1.4c-2.3 3.2-4.1 5.7-6.3 8.8h5.5v1.9h-10.2c1.8-3.3 4-5.9 6.5-8.8h-5.1V1.4h9.6zM166.2 7.1v3.1h6.2c.8.5.7 1 .7 2-2.8.3-5.7.1-8.8.2V1.5c2.3-.3 4.9 0 7.2-.1.8.5.6 1.1.6 1.6-1.8 1-3.9-.1-5.7.6-.5.4-.3.9-.2 1.5 1.8.8 3.8-.1 5.8.6v1.6c-1.8-.2-3.6-.2-5.8-.2zM30.1 8.3h12c-.1 1.7.7 3.7-1.4 4.9-3.9.8-7.2-.8-10.6-2.2V8.3zM222.9 10.3h4.5c.9.5.6 1.1.7 1.8h-7.9V1.4h2.7v8.9zM42.1 60v2.8c-4.5 1.6-8.5-.8-12.8-1.9-.5-1.2-.1-2.4-.1-4 4.3 1.9 8 4.2 12.9 3.1zM30.1 17.9v-2.1c.3-.5.8-.7 1.2-.5 2.6 1.3 5.4.9 8.1 1 1.4.8 2.1 2 1.5 3.7-3.9 1.1-7.3-.7-10.8-2.1zM149.9 8.7c1.4 2.6 3.9.8 5.2 2V12h-6.8V.3h1.7c-.1 2.9-.1 5.6-.1 8.4z"/><ellipse class="st1" cx="237.6" cy="6.8" rx="1.9" ry="7.6"/><path class="st1" d="M29.7 21.2c1.3.5 2.8.8 3.9 2.1 2.7.2 5.7-.7 8 2.5-4.8 1.3-8.6-.6-12.5-1.8.2-1-.3-1.9.6-2.8zM29.1 78.3c-.3-1.6 1-2.5 1.4-4.1 3.5 1 7.2 1.2 10.6 2.6v1.5h-12zM30.1 39.6c4-1.4 7.3 1.3 10.8.6.4 1.9.7 3.1-1.7 3.1-3.3.1-6-1.3-8.9-2.5-.2 0-.1-.5-.2-1.2z"/></g></svg>