<svg viewBox="0 0 588.2 310.9" xmlns="http://www.w3.org/2000/svg"><path d="m588.2 248.6c-1.5-1.5-3.1-2.9-4.3-5.4-1.4 5-6.2 5.4-8.5 8.7.4-4.6-1-8.7-2.3-12.8-1.1-3.7-2.2-7.3-1.9-11.2.1-1.5 0-3 0-4.4-4.2-4-7.8-8.5-12.6-11.4h-3.5c1 3.7-1.3 7-.9 10.6 0 .4-.4.8-.5 1.3-1 4.6-3.8 8.3-6.8 11.6-4.9 5.4-10 10.8-16.4 14.6-5.2 3.1-10.1 6.8-15.6 9.5-2.4 1.1-5.1 1.4-7.2 3.1h-4.3c-2.4-4.3-.9-8.8-1.3-13.2 2.7-4.5 4.8-9.6 10.4-11.9 2.5 2.7 3.9 6.2 6.9 8.6 1.7-1.8 3.3-3.2 4.6-4.9 2.1-2.7 3.8-5.7 3-9.2-.5-2-1.2-4.1-2.8-5.9-2.6-2.9-6.7-5.6-9.6-4.3-2.8 1.2-5.8 1.9-8.5 3.8-5.2 3.7-9.8 7.8-13.6 13-2.1 2.8-3.3 6.1-5.6 8.7-3.9 4.5-8.3 8.5-13.1 11.9-2.1 1.5-3.6 4.1-6.6 4.4-.3-3.2-.4-6.4.8-9.5 2.2-5.6 4.1-11.4 7.8-15.9-.5-5.3-3.9-8.5-7.5-11.5-1.2.7-3 .7-3.6 2-1.2 2.7-3.8 4.5-4.8 7.5-1 3.2-2.8 6.3-4.9 8.9-4.3 5.4-9.9 9.6-15.1 14.1-2.1 1.9-4.8 3.6-8.2 3.5-2.9-2.1-3.6-5.2-3.6-9.1 3-.6 4.4-3.5 7.1-4.6 6.7-7.4 14.4-13.8 20.3-22 4.6-6.4 8.3-13.2 11.1-20.5 1-2.6 2-5.3 2.3-8 .4-3.1-1-5.7-2.7-8.4-2.5-4-4.9-7.8-9.7-9.7-2.3 1.3-5.1 1.7-7.5 3.4s-4.7 3.6-6.5 5.8c-4.7 5.7-8.1 12.3-11.4 18.8-4 7.8-8.4 15.5-11.3 23.8-1.2 3.3-3.1 6.4-3.7 9.9-.4 2.4-1.4 4.1-2.9 5.8-4.9 5.4-10.6 9.9-16.8 13.8-3.4 2.2-7.2 2.3-11.1 1.5-.4-.1-.7-.7-1.2-1.2.2-2.7-.6-5.6 1.3-8.3 5.2-1.8 10.4-4 14.9-7.2 4.2-3 7.2-6.9 6.8-12.5-.1-1.7 0-3.3 0-4.4-1.7-1.9-3.2-3.5-4.4-4.9-2.6-.6-4.9-1.8-7.3-1.1-6.1 1.6-11.6 4.2-15.7 9.1-2.9 3.5-5.8 7.1-7.4 11.4-.5 1.4-1.4 2.2-2.2 3.1-3.6 3.6-7.2 7.2-11.2 10.4-2.3 1.8-4.7 3.1-7.8 4.5.4-2.2-.3-3.7.6-5.6 2.4-4.3 3.4-9.2 5.3-13.8 2.5-5.8 4.5-11.8 7.1-17.5 2.3-5.1 3.9-10.4 5.9-15.6.5-1.2 1.6-2.5 1.1-4.1-2.7-3.4-5.1-7-8.6-9.8h-2.3c.2 2.3-1.7 3.8-2.3 6-.7 2.9-1.3 5.8-2.1 8.6-1.5 5-2.6 10.2-4.8 15-1.1 2.4-1.2 5.4-3.5 7.4-1.3-2-3.8-2.2-4.9-4h-10c-8.6 5.2-8.5 5.2-15.8 14.7-1.8 2.3-3 5.2-5.6 6.7-2.8 1.5-4.7 4-7 6.1-1.2 1.1-2.5 2-3.7 3-2.2 1.9-5.4 2.2-6.7 4.5h-8.2c-1.5-1.1-1.8-2.8-2.7-4.5 1-1.2 1.2-2.9 1.6-4.5 1.7-.9 3.2-1.7 4.7-2.4s3.2-1.2 4.8-1.8c1.8-.6 3-2.1 4.8-2.9 1.5-.7 3.1-2.1 4-3.2 1.1-1.3 2.4-2.6 2.7-3.1 1.9-4.2 1.8-7.6 1.6-9.5-1.2-5.3-5-6.1-8-8-6.3.1-12 2.3-16.7 6.4-4.5 3.9-8.3 8.4-10.4 14.1-.5 1.3-1.5 2.7-2.7 3.9-5.4 5.2-10.7 10.6-15.9 15.9-1.4 1.4-2.8 2.5-5.2 2.9 1.8-3.9 3.1-7.7 5.3-10.8 3-4.1 4.5-8.8 6.3-13.4.5-1.2.7-2.6.2-3.3-1.5-2.1-.9-5.1-3.6-6.6-3 .1-7.9 1.8-10.7 3.9-4.8 3.6-9.6 7.3-14.5 11v-2.5c2.4-2.4 4.8-4.9 7.3-7.3 7.2-6.7 12.5-14.7 16.7-23.6 1.5-3.1 2.2-6.4 3.8-9.4 1.9-3.4.6-7.1.9-10.6l-6.3-6.3c-5.8-1.1-9.8 1.6-13.8 5.3-5.6 5.2-8.9 11.9-12.8 18.2-.8 1.3-1.5 2.7-2 4.2-1.4 4.6-3.5 8.9-5.1 13.4-2 5.6-4.7 11-6.4 16.8-4.1 2.8-8.2 5.4-12.2 8.2-4.3 3.1-9.2 5.2-13.9 7.6-1.8.9-4.1 1.9-6.5 1.2-.3-.1-.6-.3-.8-.4.1-.9-.4-1.5-1.1-2.1v-6.5c0-1.5-.6-3.3.1-4.4 2.7-4.5 4.7-9.7 10.5-11.8.5 1.5 1.7 2.4 2.6 3.5 1.3 1.6 1.5 4.4 4.2 4.8 3.2-2.9 6.3-5.7 7.7-10.7 0-4.9 0-4.9-2-8.4-1.7-2.9-6.5-5.6-9.6-4.9-2.4.5-5 1-7 2.3-6.8 4.2-12.7 9.5-17.2 16.2-.7 1.1-1 2.7-1.9 3.7-4.2 4.8-9.1 8.9-14.2 12.8-.1.1-.6-.2-1.2-.3 2.7-6.3 5.4-12.7 8.1-18.9-1.8-3-1.8-3-4.9-4.7-1-.3-1.2 1.2-2.1 1-2.1-.4-3.4 1.3-3.8 2.5-.8 2.1-2.2 3.8-3.2 5.7-3.1 5.7-7 10.8-10.8 16-1.6 2.2-3.6 4.2-6.5 4.8-2.1-1-2.1-2.9-1.4-4.6.4-.9.5-1.8.8-2.7 1-3.1 2-6.2 3.7-9 1.4-2.1 3-4.1 4.4-6-2.6-3.3-6.3-4.7-8.6-7.7-3.4 2-6.4 5.1-8.6 8.2-1.3 1.8-2.2 3.7-3.4 5.6-1.4 2.3-4.2 3.3-6.7 5.6.7-6.2-1.4-11.4-2.9-16.6-.6-2.2-1.2-4.3-1-6.6.1-1.8 0-3.7 0-5.5-10.4-11-10.4-11-14.5-11.6l-1.6 1.6c.8 3.5-1.5 6.8-.9 10.4-1.3 1.3-.9 3.2-2 4.7-2.5 3.3-4.8 6.8-7.8 9.8-1.6 1.5-2.3 4.1-4.3 5.1-2.3 1.2-3.8 3-5.5 4.7-3.1 3-6.1 6.1-9.2 9.1v3.3c3.8 2.2 7.5 1.4 11.1.2 3.3 5.5 8.4 8.9 13.5 12.1 2.6 0 5.1 2.5 7.7.1.4-.3 1.3.1 1.9-.1 5-1.7 10.1-3.3 14.1-7 1.3-1.2 2.6-2.2 4.6-2.8 1.2 4.2 4.7 6 9.2 8 1.9 1.3 4.1-1.7 6.7-1.1 0-1.2.9-1 1.5-1 .6.6.6 1.1.1 2h-1.6c-6.1 2.8-11.7 6.5-17.3 10.1-6.7 4.3-13.4 9-16.7 17 0 .9.1 2.1 0 3.3-.2 2.9 1.3 5.4 3.5 6.5 5.7 2.8 11.4 4.5 18 1.4 8-3.7 13.8-9.4 18.6-16.5 3.9-5.8 7.9-11.6 11-18 .5-1 1.3-2 2.3-2.5 4.5-2.5 8.6-5.6 12.2-9.2 1.1-1.2 2.6-1.6 3.9-2.1 1.1 1.3 0 2.8.9 3.9 1.5 1.5 2.9 3.3 4.6 4.6 4.9 3.7 9.8 7.7 16.7 6.5.1-.1.2-.3.4-.4 8.4-3.9 16-9.2 23.5-14.5.3-.2 1-.3 1.3.3.9 1.4-1.2 1.8-.9 3.1.2 1.1.3 2.3-.9 3.1.4 2.8-2.5 5.8.6 8.5 2.4.1 5.2.6 7.2-1.4 2.3-2.3 4.9-4.2 6.5-7.3 1.5-2.8 3.5-5.3 5.6-7.7 2.4-2.7 5.1-5.3 7.7-7.8 2.8-2.7 6.3-4.5 10.3-5.6-2.5 7.2-7.3 13.2-10 20.2v7.1c3.5 4.1 8.4 4.8 13.5 4.5.5-.4.9-.8 1.6-1 4.8-1.4 7.5-5.7 11.6-8.2 1.3-3.5 4.6-5.1 6.8-7.9 3.8 5.6 5.9 7.4 10.8 9.9 2.5 1.2 5.2 2 7.7 3.1 1.6.7 3.6 2.1 5.5 1.1 2.7-1.5 5.9-2 8.3-4.1 2.6-2.3 5.6-4 8.4-6 1 1.5 6.6 5.9 8.6 7.3 3.3 2.2 6.7 3.5 10.6 2.7 2.1-.4 3.1-2.3 4.7-3.3 1.5-1 3.3-2 5.5-1.3 4.5 4.8 9 6.1 15.3 2.4 4-2.4 8-4.6 11.2-8.1 1.2-1.3 2.6-2.5 3.9-3.7 3.7 6.2 4.5 7.1 9.7 9.5 3.3 1.6 6.9 2.7 10.2 4.3 1.2.6 2.5.8 3.3.4 3.8-1.7 7.7-3.1 11.2-5.6 2.8-2 4.7-5.2 8.4-6.2 5.2 6.9 12.8 10.5 20.5 13.9 6.9-2.8 12-6.9 15.8-12.7.5-.7 1.1-1.8 2.6-1.2.4 2.8 1.4 5.2 4.1 6.9 4.7 2.9 9.9 4.4 15 6.1 5.6-3.5 9.9-8.3 14.3-13.3 3.6 6.6 10 9.8 16.7 13.2 3.5.3 6.9-.9 10.4-2.6 5.2-2.6 9.7-6.2 14.7-9.1 3.1-1.9 6.4-2.3 9.3-3.3 2.5 3.8 5.2 6.8 8.9 9.1 7.2 4.4 8.1 4.9 14.9 2.9 4.7-1.4 9.4-3.5 13.1-6.9 5.2-4.8 10.3-9.7 14.5-15.5.6-1.3.4-2.2.5-2.9zm-128.9-55.2c.9-.6 1.8-.5 2.8 0-2.3 9.1-6.5 17.5-11 25.7-4.2 7.5-9.7 14.1-16.5 19.8-.6.1-1.6.5-2.2-.2 7.5-16 16.3-31.2 26.9-45.3zm-69.1 46.9c.8-1.5 1.6-3 2.6-4.4 1.7-2.3 4.5-2.7 7.4-4.7-1.3 5.4-4.3 8.6-9.5 10.7-.7-.3-.8-1.1-.5-1.6zm-97.9-3.9c2.1-2.2 4-5 8.1-4-2 4.7-5.2 7.8-9.8 9.9-1.2-2.7.3-4.4 1.7-5.9zm-43.5-31.4c1.6 0 1.7 1.1 1.3 1.7-1.8 3-1.9 6.5-3.5 9.5-2.8 5.1-5.9 9.9-9.6 14.4-1 1.2-1.4 2.9-2.8 3.9-.6.4-1 .8-2.2.1 3.3-11.4 10.4-20.4 16.8-29.6zm-152.7 43.3c0 6.5-5.1 11.6-11.6 11.7h-2.9c-1.1-1-1.8-2.5-3.5-2.1v-2.4c3-3 6.2-6 9.1-9.2 2.6-2.8 4.9-6 7-10.4 1 3 1.6 5.2 1.8 7.4.3 1.7.1 3.4.1 5zm31.6 37.4c-3.5 4.1-6.4 9.1-11.5 11.7-1 .5-1.6 1.6-2.5 2.4-1.8 1.6-3.9 2.7-7.3 1.7 6.7-8 14.4-13.9 21.9-20 1.8 2.2 0 3.5-.6 4.2zm216.4-42.9c.1 1.2 0 2.3 0 3.5-2.1 3.8-4.9 7.1-7.9 10.2-3 3.2-6.6 5.5-11 7.8v-4.6c3.7-8.4 8.9-15.4 16.4-20.7.4-.3 1.3 0 2 0 1 1.2.4 2.5.5 3.8zm219 8.6c-2.1 3.6-4.8 6.5-8.4 8.4-4.1.4-8 .5-10.9-4 6.8-5 12.3-11.2 16.6-18.6 2.4.3 1.3 2.7 2.3 4s.3 3.2.4 4.8c.1 1.9 0 3.7 0 5.4zm-563 26.4c-.7-5 2-9.8 3.6-14.9 1.5-4.4 3-8.8 4.6-13.1s2.7-8.9 4.8-13c1.2-2.4 2.1-5 2.7-7.4.6-2.6 3.1-4.6 2.3-7.6 2.4-3.7 3.3-8 4.5-12.1 1.1-3.7 3.6-7 3.5-11.1 1.9-2.2 1.4-6.3 5.4-6.7h7.4c.7.9 1.6 2 1.8 2.3 3 1.6 4.6-.4 6.5-.4 1.7 0 3.7.9 5.2-.8.2-.2.7-.2.9-.1 4 1.7 8.7.1 12.5 2.4 1.4.9 2.9 0 4.1.9 2.2 1.6 4.1 3.4 6.5 4.7 1.9 1.1 4.5 7.9 4.5 10.5v8.7c-2 2.5-3 5.4-4.5 7.9-2.3 3.6-5.5 5.7-8.9 7.7-4 2.3-8.3 4.2-12.4 6.3-2.1 1.1-4.4 1-6.6 2.3-1.7 1-4 2-6.4 1.4-3.7 2-8 1.4-11.8 2.9-1.4.6-3.3.1-4.9.1-2.8 2.1-3 5.5-4.1 8.3-1.3 3.1-2.2 6.5-3.6 9.5-2.1 4.6-2.7 9.9-6.2 14.1h-9.4c-.1-.4-.9-1.4-2-2.8zm29.6-41.8c2.5 0 4.4.5 5.8-.1 4.3-1.8 9.2-1.6 13-4.7 5.9-1.2 10.1-5 14.2-9.1 1.7-1.7 2.6-3.9 3.4-6.1.7-1.9 0-4.1-1.3-5.8-1.6-.4-3-1-4.2-2.1-3.3 0-6.6.2-10-.1s-6.6 1.8-9.9 1l-2.1 2.1c-3 8.5-5.9 16.4-8.9 24.9z" fill="#f5bd65"/><path d="m303.2 141.2c-3.4-1.6-18.8-1.6-21.9-.2-.8.1-1.1-.5-1.9-1.2-1.3 1.1-3 1.3-4.8 1.2-3.4-.3-6.5.9-9.8 1.6-3.1.7-6.4 1-10 3 3-10 7.9-17.8 14.5-24.2 6.6-6.3 14.4-10.9 23.9-13.3 8.2 2.4 16.3 6.1 23.1 12.5s12 13.8 14.8 22.9c-2.9 1.3-5.2-.9-7.9-.9-.4 0-.6-.8-1.2-.7-3.8.5-7.3-1.7-11.1-1-1 .2-2.1.2-3.2-.6-1.2-.9-2.9-.5-4.5.9zm-13.8-3.8c3.4-.9 5.4-2.1 6.7-3.9v-2.4c-1.6-1.7-2.7-2.9-3.9-4.1-2.2-.2-4.2.6-5.9 2.4v5c.4.8 1.1.3 1.4.6.6.8 1.1 1.7 1.7 2.4zm-14.6-12.2h-4.3l-2.2 2.2v4.3l1.3 1.3h3.7c1.2-1 2.1-1.7 2.8-2.3v-4.2zm25.8-11.2h-3c-1.1 1.3-3.1 2.1-2.6 4 1 1.2 1.9 2.2 2.5 2.9h4.1c2-1.1 1.5-2.9 1.4-4.4-.7-.9-1.6-1.7-2.4-2.5zm21.5 18.7c-1-1-1.7-1.9-2.4-2.7h-3.1l-1.3 1.3v4.2c1.2 1.5 2.7 1.8 4 2.4 1-.4 1.8-.8 2.6-1.2.1-.1.2-.3.2-.4zm-13.1-2c.4-1.8.4-3.5-1.2-4.5h-4.6v4.4c2.6 1.9 3.2 1.9 5.8.1zm-26.9-9.2c.3.2.5.5.8.5 1.3.1 2.6 0 3.8 0 2-2.7 2-3.3.1-5.9-1.8-.3-3.5-.5-4.6 1.5-.1 1.3-.1 2.6-.1 3.9z" fill="#94c183"/><path d="m334.2 152.8c-2.3 4.6-6.5 5.2-10.3 6-1.5.3-2.9 1.2-4.5 1.2-2.6-.1-5.3 0-7.9 0-.9-2.7-3.3-4.3-3.8-7.4-1.2 2.7.1 4.7.2 6.8.1 2.2 1.5 3.9 1.1 6.4-2.1-.3-4.2.9-6.4-.7-.9-.6-2.6-.4-3.9-.1-5.8 1.1-5.8 1.2-11.2 0-.9-.2-2.4-.4-2.9.1-1.9 1.8-4.1.4-6.1 1-.9-2.4.3-4.5.4-6.6 0-2.2 2-4.1.9-6.6-2.7 2.1-2.6 5.8-5.3 8.2-1.5-.8-3.3-1.1-5.2-1.1-5.8-.1-11-2.1-15.4-4.6-.5-.7-.7-.8-.7-.9v-2.8c2.6-3.4 6.7-4.8 10.8-5.5 5.5-1 10.9-2.6 16.6-2.1 6.9-2.1 14.1-.4 21.1-1.1 2.4-.2 4.3 1.3 6.6 1.2 2.2-.1 4.6-.9 6.6.9.4.3 1.3.1 2 0 5.2-.3 9.8 1.8 14.3 4 1.8.8 3.3 2 3 3.7zm-54.1 42.7c0-1.5.1-3 0-4.5-.6-4.9.9-9.4 2.4-14 .8-2.5 1.3-5.1 2-7.8 2.9-1.3 5.7.6 8.7.9 3 .2 5.6-1.9 8.5-1l1.4 1.4c-.9 3.4 1.1 6.7 2.2 10.1 1.4 4.2 2.2 8.4 1.6 12.7-.5 3.6-2.5 6.7-5.9 8.7-3.6 2.1-7.2 2.5-11.3 1.3-4.2-1.2-7.1-3.4-9-7.1 0-.3-.3-.5-.6-.7zm3 0c2.2 2.1 3.9 4.4 6.7 5.4h8c.7-.9 1.9-1.3 1-2.7h-6.2c-3.9-1.6-6.7-4.1-8-8.1-.2-.7-1-1.3-2-1-1.9 2.2 1 4.1.5 6.4z" fill="#94c183"/><path d="m111.3 99.6c3.9 2.5 8.2 3.3 11.4 5.7 3.6 2.7 7.6 4.3 11.4 6.5 4.4 2.6 8.3 5.7 12.3 8.8 4.1 3.2 8.3 6.3 12.6 9.3.8.5 1.7 1 2.2 1.7 2.5 3.1 5.9 4.6 9.3 6.4 2.9 1.5 5.8 3.3 8.1 5.9 2.4 2.6 5.7 4 8.5 6 .3.2 1 .3 1.2.7 1 3.3 4.3 4 6.7 5.5 2.3 1.4 4.6 3 7.3 4 2.1.8 4 2.3 6 3.5 3.6 2 7 4.3 10.1 7 3 2.5 6.1 5 9.6 6.8 1.3.7 2.2 1.9 3.1 2.7v3.4c-.7.9-1.6.2-2.4.6-1.6-1.7-3.3-3.1-5.3-4.2-2.3-1.3-4.6-2.9-6.5-4.8-2.8-2.8-5.7-4.9-9.4-6.4-4.5-1.9-8.3-5-12.1-8.1-4.9-3.9-9.8-7.9-15.6-10.6-.6-.3-1.3-.3-1.7-.7-2.5-3.1-6.1-4.4-9.3-6.5-2-1.3-3.7-3.1-5.5-4.6-4.8-4-10.2-6.9-15.2-10.4-2.2-1.6-4.4-3.1-6.5-4.9-3.2-2.8-6.8-5.1-10.4-7.5-4.6-3-9.5-5.6-13.5-9.5-1.3-1.3-3.1-2.1-4.7-3.1-1-.4-2-.9-1.7-3.2zm246.7 83.4c2.6-3.6 6-6.6 9.8-9 4.6-2.9 9.5-5.4 13.8-8.9.4-.3 1.2-.2 1.7-.7 2.5-2.5 5.1-4.7 8.2-6.5 3-1.7 5.8-4 8.4-6.3 6-5.4 13.2-9 19-14.7 2-1.9 4.6-3.3 7-4.7 3.4-2.1 6.4-4.7 9.5-7.1 4-3.1 8.2-6.1 12.4-8.9 2.1-1.4 3.9-3.5 6.7-4.4 2.4-.8 4.2-3.5 6.4-4.9 4.8-3 8.9-7 14.5-8.9 1 0 1.1 1.3 2.3 1.6-3.1 4.6-8 5.4-12.1 7.7-.6 2.2-2.5 3.6-4.2 5-4.2 3.3-8.6 6.3-13.3 8.7-4.6 2.4-8.5 5.4-12.3 8.9-3.1 2.9-6.6 5.6-10.1 8-2.9 2-5.6 4.2-8.3 6.5-4.2 3.6-8.7 6.7-14 8.5-.4.2-1 0-1.6 0-4 3.9-7.7 8.2-12.8 10.9-1.2.7-2.4 1.4-3.7 2.1-3 1.5-6 4.5-8.6 6.9-3.3 3-6.7 5.8-10.5 8.2-1.7 1.1-3.7 1.6-5.4 2.7-.7.5-2 .9-2.8-.7z" fill="#f4be66"/><path d="m549.7 213h-34.8c-8.9-2.1-18-.4-27.3-1.1-.7-2.2-2.7-3.5-4.4-5.3.4-.5.9-.9 1.5-1.6 1.5.5 3.4-.8 4.9.9 3.6 0 7.2.7 10.7-.5 2.2-.8 4.6-.9 6.6 0 1.3.6 2.5.6 3.7.6h38.9c1.4 0 2.8.5 4.2-.8.6-.6 2.2-.1 4-.1-2.1 1.3-3.7 2-5.1 3-1.7 1.2-2 3.2-2.9 4.9z" fill="#f5c06d"/><path d="m199.6 19-5.3 5.3c-1 3.2.5 6.3 1.1 9.4.4 2.3 2.6 3.6 4.1 5.2 4.5.5 8.6-.2 12.2-2.9 1.3-2.3-.3-4-1-6-3.3-.2-6.4 1.3-9.3 2.1-2-.5-2.4-1.8-2.2-3.7 5-1.6 9.7-4.6 15.5-4.3.8.8 1.5 1.7 2.4 2.6-.1 4 2.6 7.7 2 11.9-.5.5-.9 1.3-1.4 1.3-4.5.1-8.4 2.4-12.7 3.3-2.2.5-4.5 1.2-6.5.5-2.8-1-5.8-2.5-7.2-5.2-2.1-4-3.8-8.4-3.1-13.2.2-1.3 1.7-2.1 1.1-3.5 4.6-6.9 11.3-8.8 19.7-7.5.4.5 1.3 1.5 2.2 2.7.1 1.1-.8 1.8-2 2-1.3.2-2.7 0-4 0z" fill="#96c285"/><path d="m442.6 28.1c-4.1 3.9-9.4 4.4-13.8 6.7-4.5 2.4-9.1 4.4-14 6.8 1.7 2.1 4 2.5 6 3.4 3.8 1.7 7.9 2.7 11.3 5.1v2.9c-4.8-.3-9-2.6-13.4-3.9-4.3-1.3-8.5-2.7-12.6-4.6v-1.9c3.7-5 8.8-8 14.3-10.3 3.2-1.4 6.8-2 9.7-4 .2-1.1-.7-1-1.4-1.4-3.6-2.3-7.5-3.6-11.5-4.9-2-.7-2.4-1.9-1.9-4.1 5.8 0 11.2 2.5 16.4 4.5 3.6 1.4 8 2 10.9 5.7zm31.1 32.9c-2.2 1.8-2.1 4.5-3.9 6.1 4.8 3.1 9.7 5.3 13.7 8.8.5.5.8 1 .5 2-1.9.2-3.8.3-5.8-.8-3.8-2.1-7.7-3.9-11.4-6.1-1.4-.8-2.3-2.3-3.7-3.8 3.5-6.1 5.8-13 10.1-19 2.3-3.3 3.8-3.6 7.5-2.3 5 1.9 9.3 4.9 14 7.2 1.4.7 3.4 1.9 2.3 4.7-1.2.2-2.5.5-4.2-.6-2.3-1.5-5.1-2.3-7.4-3.7-2.2-1.3-4.3-2-6.8-1.4-1.8 1.1-1.4 2.8-1.3 4 2.7 2.8 6.7 3.3 8.9 6.3v2c-.4.6-.9.6-1.4.5-3-.8-5.9-1.9-8.5-3.5-.9-.4-1.6-.3-2.6-.4zm-343.6-18.5c6.7-4.2 13.4-7.4 20.3-9.7 1.4 1.1.2 2.4 1 3.5-5.5 2.7-10.5 5.7-15.5 9.2.8 1.6 1.3 3.3 2.9 4.6 4.1-.8 7.5-4.1 11.8-4.2.7 1 .4 1.8.4 2.7-3.1 2.2-6.3 4.4-10 5.7 0 3.1 1.6 5 3.7 6.7 5.3-.7 9.5-4.5 14.6-5.2 1 .8.6 1.7.7 2.5-2.2 3.2-5.8 4.2-9 5.6-3.1 1.3-5.8 3.7-9.4 4-2.8-1.8-4.1-4.9-5.6-7.9-1.9-3.9-3.9-7.7-6-11.9.1-1.6.1-3.6.1-5.6z" fill="#94c183"/><path d="m454.6 170c-5.2 0-5.2 0-7.5-1.4 2.5-2.2 5.5-3.2 8.3-4.5 2-.9 4.3-.8 6.4-1.3 3.9-.9 7.7-2.4 11.2-4.2 1.6-.8 3.2-.1 4.5-.6 1.7-1.3 3.5-1.6 5.3-2.3 2.3-.8 5-.7 6.9-2.7 2.5.4 4.4-1.5 6.6-2.2 4.3-1.2 8.6-2.6 12.9-3.6 3-.7 5.7-2.4 8.9-2.8 1.4-.2 2.7-.6 4 0 0 .5.1 1-.1 1.2-.7.9-1.6 1.7-2.3 2.4-2.8-.2-4.7 1.4-6.6 2.6s-3.8 1.9-6 2.6c-3 1-6.1 2.1-9.1 3.3-6 2.5-12.1 4.7-18.6 5.7-2 .3-4.2.3-6 1-2.1.7-4.1.6-6.1.9s-3.4 2.2-5.7 1.9c-1.5 2.6-4.9 1.9-7 4z" fill="#f5bf69"/><path d="m266.3 2h4.4c4.9 8 8 16.8 12.6 24.8-.2 1.6-2 2-2.5 3.2-.6-.1-1-.1-1.2-.3-2.5-1.9-3.4-4.8-4.6-7.7-4.3-.3-8.6-.3-14.2 1.7-2.5 1.6-3.4 6.1-6.3 9.2-1 .2-1.3-.8-2.1-1.3v-3.6c4.5-9 7.8-18.1 13.9-26zm4.9 14.4c-1.2-2.4-1-5.5-4.5-6.5-1.2 2.5-2.4 5-3.8 7.9h7.1c.3-.5.8-1 1.2-1.4z" fill="#96c285"/><path d="m157.7 77.2h5.1c2.8 2.8 5.9 5.7 7.7 9.6 1.5 3.3 4.6 5.1 7.4 7.2 3.6 2.6 6.7 5.7 9.3 9.2 1.1 1.5 2.5 2.6 3.6 4 3.6 4.4 7.5 8.6 9.9 13.9.4 1 .5 1.8 0 3-3.1-.5-5.3-2.6-6.8-4.9-2-3.1-4.6-5.5-7.2-8-4.2-3.9-7.2-9-11.6-12.7-1.1-1-1.7-2.4-2.3-3.6-2.5-4.3-6.2-7.3-10.2-10.2-2.2-1.5-3.3-4.3-4.9-7.5zm52.7-9.8c2.1 6.1 5 11.7 9.7 16.2v3c1.7.3 2.7 1.7 3.9 2.9 0 1 .1 2.1.2 3.2 4.5 1.5 5.3 6.5 8.8 8.6v4.5c-3.5-.9-5.1-3.4-6.1-6.5-1.9-.9-3.7-1.7-3.9-4.3-.2-1.7-1.3-3.2-2.7-4.3-.9-.8-1.7-1.7-1-2.9-1.6-2-3.9-3.3-4.7-5.7-.1-.3-.4-.6-.7-.7-3.3-1.7-4.4-4.9-6.1-7.9-1.8-3.3-4.9-5.9-6.9-9.2-1.4-2.3-4.1-4.2-3.9-7.4.6-1.3 1.5-2.1 3-1.8.3.1.6.2.8.4 2.4 2.7 6 4.7 6.2 9.4 1.1.6 2.2 1.5 3.4 2.5z" fill="#f4be66"/><path d="m134.1 209c-1.9-.5-3.5.6-5 1.1-3.7 1.3-7.3 2-11.2 1.9-6-.1-12 0-18.3 0-2.4-2.8-5.6-4.6-9.5-6.1-1.3.9-2.9 1.6-4.7.9-.5-.4-.3-.9-.2-1.4.3-.1.5-.4.8-.4h34.5c1.6 0 3.1.1 4.7.8.9.4 1.9 1.1 3 1.1 1.7.1 3.3 0 5 0 .3.8.6 1.4.9 2.1z" fill="#f5c06b"/><path d="m401.2 113.3c-.4-4 1.7-6.2 4-7.8 1.5-1 2.3-2.5 3.5-3.5 3.6-3 5.4-7.5 9.6-10.1 2.4-1.5 3.9-4.6 5.7-7 .2-.3.4-.9.8-1.2 4.8-4.1 8.1-9.5 12.7-13.7 1.6-.5 2.8.1 3.6 1.6 0 .3 0 .7-.2.9-.4.5-1.1.9-1.4 1.4-2 4.5-5.6 7.4-9.7 10-1.1.7-2.2 2-2.5 3.2-.7 2.5-3.4 3.3-4 5.8-.2.8-1.3 1.4-2.1 1.9-3.7 2.2-3.9 2.1-5.7 5.2-1.5 2.5-3.3 4.5-5.9 6-1.6 1-2.4 3.2-3.5 4.9-.4.5-.7 1-.9 1.3-1.3 1.2-2.5.5-4 1.1z" fill="#f5bd65"/><path d="m76.7 74.7c1.2-.9 2.2-1.5 3.7-2.6h2.6c3.8 6.3 7.1 13.1 13 18 5.2-1.3 8.3-6.8 14.1-7.2.1 1 .1 1.6.2 2.3-3.5 4.9-9.3 7-13.8 10.7-.5.4-1.6.1-2.6.1-6.9-5.8-11.9-13.3-17.2-21.3z" fill="#94c183"/><path d="m322.4 23.7 1.3 1.3c4-.8 7.8 1.9 11.4 1 .9.7 1.6 1.2 2 1.5.2 1.3-.8 1.6-1.4 2.5-6-.5-12.2 1.1-18.6-1.5.8-3.8-1.1-7.6-1.1-11.7 0-2.3 1.3-4.3 1.1-6.6-.1-2.3 0-4.7-.1-7-.1-1.4 1.8-1.8 1.2-3.2 2.1-.4 3.4.8 4.8 1.4.7 7.4-1.9 14.7-.6 22.3z" fill="#96c285"/><path d="m425.8 206c1.5 3-2 3.7-1.9 6-10.2 0-20.3.2-30.4-.1-2.9-.1-5.9-.6-8.7-1.9-.5-.2-.8-.5-.6-1.6 1.5-.7 3.7-1.2 5.4-1.2 3-.1 5.7-1.3 8.6-1.2 3 .1 6 0 9 0z" fill="#f5c06b"/><path d="m162.7 178c-.9-1.1-2.4-1.8-2.8-3.7 3.5-.9 6.6-.4 9.3 1.3 2.2 1.4 4.8 1.2 7.1 2.2 1.2.6 3.3.7 4.5-.9 2.8 1 5.5 2 8.6 2.2 3.2.2 6.4 1.4 9.5 2.3.6.2 1 .6 1.7.6 3.5.2 6.5 1.6 8.5 4.8.2 1.1-1 1.5-1.7 2.4-3.7-1.7-7.9-1.5-11.7-3.1-.3-.1-.6-.2-.9-.1-3.2.7-5.8-1.2-8.5-2.3s-5.6-1.8-8.4-2.7c-3.6-1.1-7.2-2.6-11.2-2-1.4.2-2.4-1.8-4-1z" fill="#f4be68"/><path d="m484.1 217.3v4.3c-.8.5-1.8 1.1-2.8 1.7.2.2.3.4.5.6h-6.1c-2.7-1.3-5.2-3.1-6.7-7.4-.2-2 .3-4.8 2.3-7.4h5.8c3.9 1 5.4 4.1 7 8.2z" fill="#f5bf69"/><path d="m69.2 151.5v-2.4c1.9-.1 4-.7 5.7.2 2.1 1.1 4.2.7 6.2.6s3.6 1 5.6 1.2c1.8.1 3.6 1 5.1 2 1.7 1.2 3.9 1.1 5.5 2.4 1.4 1.1 3.5 1.3 4.9 3-2.7 1.5-5.2 1.9-8.4.8-3.6-1.3-7.6-1.4-11.1-3.2-.8-.4-2-.1-3-.1-4.4.4-7.7-1.5-10.5-4.5z" fill="#f4be68"/><path d="m297.1 76.4c-.6.7-1.1 1.2-1.5 1.6-.1.1-.3 0-.5 0-.3-.1-.7-.2-.8-.4-1.1-3.2-1.3-6.6-1.2-10 .1-4.2 0-8.3.1-12.5 0-1.6-.7-3.3.9-4.6.3-.3.3-1.4 0-1.9-1.4-3.1-.9-6.4-.9-9.6 0-.9-1.4-1.1-1.1-1.8.1-1.2 1.1-1.5 1.5-2.1 1.9.2 1.9.2 3.4 1.4.2 4.2 2.1 8.4 1 12.5-.9 3.5-1.1 7.1-.8 10.6.2 2.5-2.2 4.8-.9 7 1.4 2.4.5 4.8.8 7.2.2.8 0 1.8 0 2.6z" fill="#f5c372"/><path d="m228.1 153c-2-.1-3.5-1.1-5-2.4-2.6-2.2-4.3-5.4-7.7-6.7-1.2-3-3.5-5.2-5.3-7.8-.2-.3 0-1 0-1.4-2.9-1.3-4.6-4.1-6.9-6v-2.6h2.5c1.6 2.2 3.1 4.3 4.8 6.5 7.2 3.6 11.8 10.4 17.6 15.8z" fill="#f4be68"/><path d="m187.1 203h11.3c2.5 0 4.8-1.7 7.5-1 .6.2 1.3.1 1.3 1-.1 1.1-1.5 1.7-1 3-2.2.4-4.6-.9-6.6 1-.3.2-1.2.2-1.4 0-2.3-2.4-4.7-.4-6.6.2-3.1.9-6 .6-8.8.8-.8-.5-.6-1-.6-1.5-.4-.7-1.2-.7-1.7-.5-3.3 1-6.7 2-10.1 1.9-1.8-.1-3.2 2.4-4.9.8-1.6-1.5-3.5.1-5.3-1.2.3-2.1 2.1-2.3 3.7-2.5s3.3 0 5 0h14.4c1.1 1.8 2.6.9 4 .8-.2-1.1-.2-2-.2-2.8z" fill="#f5c06d"/><path d="m149.6 168c2 2.1 5 2.9 6.4 5.6l-1.3 1.3c-6.7-1-12.8-4.7-19.8-3.9-3.4-2.5-8.3-2.4-12-7 3.5.6 5.5-1.8 7.8-.9 2.2.9 4.3 1.9 6.9 1.8.9 1 1.8 2.1 2.6 3 3.4.1 6.4.1 9.4.1z" fill="#f4be66"/><path d="m413.3 181c3.5-1.9 6.7-3.7 10.5-4 0 3.3 0 3.3-2.2 4.1-3.2 1.1-6.5 2.1-9.5 3.6-3.4 1.6-7.1 2-10.6 3.4-2.6 1-5.5.8-8.2 1.9-1.3.6-3.3.5-4.2-1.8 5.5-3.1 12.2-3.5 17.6-7.1 2.3-.1 4.6-.1 6.6-.1z" fill="#f5c06b"/><path d="m372.9 35.9h-2.9c.3-9.5 2.7-18.5 4.4-27.7 1.6-.2 3.2-.6 4.8 1.5-.4 4.2-2 8.6-2.8 13.2-.9 4.4-2 8.7-3.5 13z" fill="#96c285"/><path d="m365.1 105v5.5c-1.5 1.4-2 3.2-2.1 5.4-4.6 2.7-5.8 8-8.9 12-1.2 1.6-1.1 1.7-3.3 3.1-1.1-.4-.9-1.5-.6-2.1 2.1-5.5 3.5-11 7.8-14.2.3-4.9 3.5-8 7.2-10.7-.1.3-.1.7-.1 1zm-35.2-58h2.7l1.6 1.6c-1.7 2.4-1 5.2-1.1 7.9-2.3 2.1-1.9 5.2-2.9 7.8-1.2 3.1-2.7 6.1-2.1 9.6-1.2 1.3-.4 3.6-2.1 4.6-1 .6-.6 1.8-1.4 2.4-1.1-5.7-.9-9.9 1.6-16.3.8-2.1.6-4.4 1.9-6.2 1.3-1.9.8-4 1.1-6.1.2-1.6 1.4-3.1.7-5.3zm-66.8 34c-2-.3-2.5-2.3-2.8-3.5-1.3-4.5-3.7-8.4-5.2-12.8-2-1.1-.6-3.3-1.5-4.9-1.4-2.5-2.2-5.4-3.2-8.1-.4-.9-.6-1.8.3-2.8 2.1.3 2.9 2.4 4.3 3.4.3 3.6 3 6.5 2.1 10 2.1 2.5 3.5 4.9 4.1 8 .4 1.7.6 3.6 1.8 5.2 1.2 1.5 1.2 3.6 1.1 5.5z" fill="#f5bf69"/><path d="m559.1 206c6.2-2 12.6-.8 19-.9 1.3 0 3.4.8 4 2.7-.2 2.1-2.4 1.8-3.4 3.1h-13.1c-1.7-1.7-3.4-3.9-6.4-3.9-.1-.3-.1-.7-.1-1z" fill="#f5bd65"/><path d="m351.1 82.8c0-2.3 2.4-3.8 2-6.1 3.2-3.9 3.3-9.4 6.9-13.1-.5-1.3.9-1.9 1.2-3 .9-3.5 3-6.4 6-9.1 1.1 1.6.7 2.5.3 3.8-1.9 5.6-5.5 10.3-7.9 15.7-1.6 3.6-3.6 7.1-5.6 10.6-.4.8-1.3 1.8-2.9 1.2zm-333.1 122.2v4.6c-.6 2.4-2.6 3.4-4.9 4.4-2.2-1.6-5.1-2.2-7.7-3.2-.6-.8-.3-1.6-.3-2.4 6.4-2.9 8.3-3.4 12.9-3.4zm364.4-74.8h2.6c.4 1.8-.8 3-1.6 3.9-2.1 2.4-4.1 4.8-5.6 7.6-.7 1.4-2.1 2.5-2.7 3.2-2.1.3-2.2-1.1-3.1-1.3 1.7-6.2 6.8-9.4 10.4-13.4z" fill="#f4be68"/><path d="m382.1 79c.2 2.5-.1 4.9-2.1 6.6-1.3 1-.3 2.6-1.9 4-.9.6-2.5 1.3-3.4 3.2-.7 1.4-2 3.6-4.5 3.3-.2-2.2 1.2-4 2.2-5.5 1.2-1.8 2.4-3.7 3.3-5.6 1.2-2.6 3.2-4.4 5.4-5.9.4-.1.7-.1 1-.1z" fill="#f4be66"/><path d="m359.8 161.9h-2.5v-3.5c3.6-3.2 5.7-7.9 10.3-10.8.8 1.8.6 3 0 4.7-.8 2.2-3.4 3-3.7 5.5-2.7.1-2.5 3-4.1 4.1z" fill="#f4be68"/><path d="m232 157h2.5c1.5.8 2.1 3.1 3.4 3.8 1.8 1 2.7 2.7 4.2 3.6v3.1c-.6.9-1.5.3-2.4.6-3-3.4-7.1-6-7.7-11.1z" fill="#f5c06b"/><path d="m118.1 162.6c0 .3 0 .6-.1 1-6.5.8-11.4-.9-13.9-4.9 3.6-.9 5.9-.2 14 3.9z" fill="#f5c372"/><path d="m382.1 79h-1c-.3-2.7.4-5 2.4-6.9 1.4-1.3 2.4-2.8 2.7-4.8.3-2.1.8-2.2 4-1.9-.2 2.2-2.5 3.7-2 6.2-2.9 1.7-3.9 5-6.1 7.4z" fill="#f5c06b"/><path d="m263.1 81h1c.8-.1 1.4.6 1.5 1.1 1 3.6 3.1 6.7 4.5 10.1.1.3 0 .7 0 1-.5 1-1.1 2-2.7 1.8-.5-3-2-5.7-3.3-8.4-.8-1.8-1.1-3.7-1-5.6z" fill="#f4be66"/><path d="m325.2 91.2c-1.1 1.9-2.2 2-3.4 1.8-.5-.2-.6-.6-.6-1.2.1-2.9 1.8-5.5.9-8.3l.9-.9c.8.8 1.7 1.6 2.5 2.5.8 1.8-1.2 3.9-.3 6.1z" fill="#f5c372"/><path d="m206.1 206c-.5-1.3.9-1.9 1-3h9.8c.3 1.2.3 1.6-.8 2.1-3 1.1-6.1 1.4-9.2 1.9-.5 0-.9-.4-.8-1z" fill="#f5bf69"/><path d="m134.1 209c-.3-.7-.7-1.3-1-2h15.7c.4.8.5 1.2-.1 2z" fill="#f5c372"/><path d="m388.3 126.9c.2-3.4.6-4.1 3.6-7 1.9.4 2.5 1.7 2.2 3.7-1.8 1.1-2.5 4-5.8 3.3z" fill="#f5c06b"/><path d="m398.3 112h1.4c.9 1 .2 2.2.5 3.4-1.4 1.2-2.2 3.4-4.9 2.3v-3.4c.6-.4 1.6-1.2 3-2.3z" fill="#f4be66"/><path d="m365.1 105v-1c.6-2.2 3.3-6.4 5-8v5.6c-1.6 1.1-3.3 2.3-5 3.4z" fill="#f5c06d"/><path d="m238.6 114c-1.5-1.5-2.7-2.7-4.3-4.4 0 .1-.5-.8.2-1.6.4 0 1-.1 1.2.1 1.1 1 2.1 2.1 3.2 3.1.2 1 .6 2-.3 2.8z" fill="#f5c06b"/><path d="m187.1 203v2.8c-1.4.1-2.9 1-4-.8v-2z" fill="#f5bf69"/><path d="m238.9 115.5c1.5-.8 2.7-.4 3.8-.5.8.8.4 1.7.3 2.8-2.1.7-3.3-.1-4.1-2.3z" fill="#f4be68"/><path d="m345.9 93.5c1.1-1.1.4-3.2 2.7-3.6.8 1.3.4 2.5.4 3.7-.9.6-1.8.6-3.1-.1zm90 80.6c-.6-.4-.8-.8-.6-1.7.9-.5 2.1-1 3.2-1.6.6.4.8.8.6 1.7zm-59.7 34.6v-1.3c.9-.6 1.8-.5 2.7-.1-.2 1.6-.2 1.6-2.7 1.4zm-249.1 61.3c0-1.2.9-1 1.5-1 .6.6.6 1.1.1 2h-1.6z" fill="#f5c372"/><path d="m228.1 153v-2c1.5.1.8 1.2 1 2z" fill="#f5c06b"/><path d="m559.1 206v1c-.5 0-.9-.1-.8-.7.1-.1.6-.2.8-.3z" fill="#f5c06d"/><path d="m232.1 157c-.5.1-.8-.1-.9-.6 0-.1.2-.3.3-.3.5.1.7.4.6.9zm-2-3c.5-.1.8.1.9.6 0 .1-.2.3-.3.3-.4-.1-.6-.4-.6-.9zm0 0c-.7 0-1-.3-1-1 .7 0 1.1.3 1 1z" fill="#f5c06b"/></svg>