<svg xmlns="http://www.w3.org/2000/svg" viewBox="0 0 600 300"><style>.st1{fill:#605f5f}.st3{fill:#767777}.st9{fill:#727171}.st12{fill:#4e4d4e}.st18{fill:#7a7979}.st21{fill:#9c9b9b}.st22{fill:#acadaf}.st23{fill:#909090}.st24{fill:#797878}.st25{fill:#7b7b7b}.st29{fill:#929191}.st31{fill:#7f7e7f}.st32{fill:#616161}.st34{fill:#d8ccce}.st43{fill:#2e2d2d}.st45{fill:#727172}.st46{fill:#4f4e4e}.st51{fill:#6e7476}.st53{fill:#868686}.st58{fill:#bec4c8}.st63{fill:#6b6a69}.st64{fill:#414141}.st65{fill:#6b6a6a}.st68{fill:#8a8a8a}.st73{fill:#b6d5de}.st79{fill:#595757}.st83{fill:#3ca2c3}</style><path d="M326.7 49.3v-.2c-.1-.1 0-.2.1-.3 1.3 1 2.7 1.2 4.3 1.1.4 0 .8.2 1.1.5 2.2 2 4.3 4.1 5.6 6.8.2.4.4.8.4 1.2-.4 1.2-1.3 1.5-2.3.7-.2-.3-.2-.6-.3-.9-.4.9.1 2-.6 2.9-.3.4-.5.8-.8 1.2-.3.4-.5.9-1 .8-.5-.1-.3-.7-.3-1.1 0-.7 0-1.4-.3-2.1-.1-.1-.2-.3-.4-.2-.2.1-.2.3-.3.4-.6 1.9-2.1 2.3-3.8 2.4-1.7.2-3.4.1-5 .5-.9.2-1.6.1-2.1-.8-.3-.5-.8-.6-1.3-.6-.8 0-1.6-.2-2.3-.3-1.1-.1-1.5-.9-1-1.9.6-1.2 1.5-2.2 2.6-2.9.7-.5 1.4-1 2.2-1.6.3-.2.7-.5.6-.9-.1-.5-.6-.6-1-.7-2.7-.4-5.3-.5-8 .2s-5.4 1.5-8.2 1.8c-1.2.1-2.3.8-3.6 0-.6-.4-1.6.5-2.3.8-1.2.6-2.2 1.5-3.7 1.6-.4 0-.7.4-.9.7-1.2 1.3-2.9 1.6-4.6 1.9-.9.1-1.8-.8-1.7-1.9.1-2.4.2-4.8 1.5-6.9.9-1.5 1.3-3.2 1.4-5 .1-1.9-1.6-4.1-3.5-4.5-.5-.1-1.2-.1-1.5-.7 1.5-.7 3.1-.9 4.7-1.1 2.6.1 5 1.1 7.4 2.1 4.3 1.9 8.8 3.3 13.3 4.8 1.3.4 2.6.9 3.7 1.6 1.8 1.2 3.8 1.5 5.9 1.5 1 0 2.1.1 3.1.3.8.2 1.7.2 2.5 0 .2-.3.6-.5.4-1.2z" fill="#dbdbda"/><path class="st1" d="M263.2 53.5c1.4-1.5 3-2.8 4.7-4 .4.5 0 1-.3 1.3-.9 1.3-2.1 2.3-3.2 3.5-.4.4-.8.7-1.1 1.2 1.1-.7 2.3-1.2 3.4-1.8.8-.4 1.5-.4 2.1.3.2.3.6.4.8.7.6.6.7 1.2.5 2-.8 3.8-2.3 7.4-1.9 11.3.2 2.2.7 4.3 2.1 6 1.5 1.8 3 3.7 3.6 6.1.2.8.9 1.1 1.7.8.4-.2.8-.4 1.1-.7 4.1-3.6 8.5-6.9 13-10 2.6-1.8 5.3-3.6 8.1-5.2.7-.4 1.3-.8 2-1.3.3-.2.6-.4 1-.5.9.1.8.6.4 1.1-1.9 2-4.2 3.4-6.3 5.2-.4.3-.7.6-1.1.9-.3.2-.6.5-.9.7-.3.2-.5.5-.9.1.3-1 1.2-1.5 1.7-1.9-3.4 2-6.7 4.6-10.1 7.3-2.4 1.9-4.5 4-6.7 6.1-.9.9-1.8 1.7-2.8 2.5-.9.8-1.8.6-2.3-.5 0-.1-.1-.2-.1-.3-.6-3.5-2.7-6.3-4.5-9.3-1.2-2-1.9-4.1-1.6-6.5.1-.7.1-1.4 0-2-.2-1.8.1-3.6.1-5.3 0-1-.1-1.9-.5-2.8-.3-.8-.8-.9-1.4-.4-1.3 1.1-2.5 2.4-3.4 3.8-2.8 4.5-4.1 9.7-5.7 14.7-1.2 3.8-1.6 7.7-2.5 11.5-.1.3-.1.6-.1 1 .3 3.7.1 7.4 1 11 .2.7 0 1.4.2 2 .4 3.8 1.9 7.2 3.6 10.6.7 1.4 1.4 2.8 2.2 4.2.2.3.3.6 0 .9-.5 0-.7-.4-.9-.7-2.3-4.1-4.4-8.4-5.6-13-.4-1.4-.4-2.8-.5-4.2-.4-3.5-.7-7-.9-10.6-.1-2 .4-3.9.5-5.9.3-4.1 1.6-8.1 2.5-12 .2-1 .3-2 .5-2.9-1.1 1.6-1.6 3.5-2.3 5.3-1.8 5.3-2.8 10.9-3.1 16.5-.2 3.5.5 7 1.1 10.4 1 5.5 3.2 10.6 5.9 15.5 1.2 2.2 2.7 4.3 4.2 6.3.3.4.7.7.6 1.3-.5.2-.8-.2-1-.5-3.1-3.7-5.9-7.7-7.6-12.1-1.7-4.4-3.2-9-3.5-13.9-.1-1.9-.5-3.8-.4-5.8.1-5.7.9-11.4 2.6-16.9 1.2-4.1 3.1-8 5-11.8 1.1-2.2 2.7-4.1 4.4-5.9 1.1-1.2 2-2.2 2.6-3.4z"/><path d="M285.3 41.1c.4.1.8.3 1.2.4 2.7.5 4.2 2.6 4 5.4-.1 1.7-.7 3.1-1.4 4.6-.8 1.6-1.4 3.3-1.3 5.1 0 .5-.2 1.1-.2 1.6 0 1.3.8 1.9 2 1.6 1.7-.3 3.2-.8 4.3-2.2.1-.1.3-.3.4-.3 2.3.1 3.8-1.8 5.7-2.5.4-.1.7-.2.9.2.3.6.9.6 1.4.4 4.1-.9 8.1-1.9 12.2-2.7 2-.4 4.1-.1 6.2.2.5.1 1 .3 1.1.9.1.6-.4.8-.7 1.1-1.2 1-2.7 1.8-3.8 3-.6.7-1.5 1.4-1.2 2.5.3 1 1.4.5 2 .7.4.1.8.1 1.2.1.8-.1 1.4.1 1.7.9.3.7.9.7 1.6.5 1.7-.5 3.5-.4 5.3-.5 2.2-.2 2.8-.5 3.6-2.6.1-.4.3-.6.7-.5.2 0 .8-.1.4.5-.4.7-.5 1.6-.8 2.3-.8 1.7-.8 1.7-2.6 1.3-.4-.1-.8-.2-1.2-.1-1.1.4-2.3.3-3.5.3-.8 0-1.6.2-2.3.5-1 .4-2 .8-3.1.9-1 .1-1.9-.1-2.4-1.1-.3-.6-.8-.8-1.3-.9-1.9-.4-2.4-1.8-1.4-3.3 1.1-1.6 2.4-3 3.9-4.2.4-.3 1.1-.7.9-1.3-.3-.6-1-.4-1.5-.4-1.3 0-2.7.2-3.9.7-3 1.2-6 2.1-8.9 3.3-3.5 1.4-6.7 3.4-10 5.1-1.4.7-2.9 1.4-4.3 2.2-1.6.9-3.5 1-5.2.6-1.7-.4-2.5-2.1-2.8-3.7-.6-3 .4-5.8 1.8-8.4 1-2 2.1-4 2.6-6.1.5-2.2-.1-4.4-2.7-5-.3-.1-.8 0-.8-.5.7-.3 1.4-.6 2.2-.6z" fill="#cdcdcd"/><path class="st3" d="M261.3 123.7l-3.6-5.4c-2.8-4.3-5-9-6.3-13.9-1-3.6-1.7-7.3-2-11.1-.2-2.9.2-5.7.4-8.6.2-2.8.9-5.5 1.6-8.2.7-2.7 1.6-5.4 2.9-8 .3-.5.3-.6 1.1-.9-.6 2.5-1.1 5-1.7 7.5-1.1 3.8-1.6 7.7-1.9 11.6-.3 3.8.1 7.6.6 11.4.2 1.6.3 3.2.5 4.8.2 1.8.8 3.5 1.4 5.1 1.2 3.1 2.7 6 4.3 8.8.2.3.4.6.7.8 0 0 .1.1.2.1 1.4 2 2.9 3.8 4.5 5.7 1.2 1.4 2.6 2.6 4.1 3.8 1.6 1.3 3 2.7 4.4 4.3.5.6 1.1 1 1.7 1.3 2.3 1.2 4.5 2.4 6.8 3.4 2 .8 4.1 1.3 6.2 1.8 4.6 1.1 9.3 1.1 13.9 1.4 1.9.1 3.7.1 5.5-.5 1.2-.1 2.3-.4 3.4-.9 1-.5 2.1-.9 3.2-1.1.4-.1.8-.2 1.2 0 .2.7-.4.6-.8.7-1.4.7-3 1-4.3 2-1.4.4-2.9.5-4.3.6-3.3.4-6.5.4-9.8 0-.7-.1-1.4 0-2 .2 3.1.2 6.1 1 9.2.8.2 0 .4-.1.5-.1.5 0 1-.1 1.3.4-.2.3-.5.1-.7.3-8 .7-15.8 0-23.4-2.9-2.6-1-5-2.4-7.4-3.8-.1 0-.1-.2-.2-.3-.7-1.3-2-1.9-3.1-2.6-3.2-2.2-5.6-5.1-8.1-8 0-.1-.1-.3 0-.5z"/><path d="M335.3 114.4c.4.3.7.6 1.1.9.4.3.9.7.5 1.2-.3.5-.8.4-1.3.1-1.2-.7-2.4-.1-3.7-.1-.6 0-1.2.2-1.8.1-1.3-.1-2.3.3-3.2 1.1-1.5.4-2.9.1-4.5-.3 1.2 1.6 1.7 3.2 2.1 4.9.3 1.2.2 2.5 0 3.7-.1.4-.1.8-.3 1.2-.1.3-.4.5-.7.5-.4 0-.5-.4-.5-.7-.1-.9-.1-1.8-.2-2.8-.2-1.7-.5-3.4-1.3-4.9.1.4.1.9-.4 1.1-.5.2-.8-.1-1.1-.5-.2-.4-.4-.7-.7-1.1-.5-.6-1.2-1.1-1.5-1.9-.2-.5-.7-.5-1.3-.5.1.5.5.9.5 1.4.1.8 0 1.6.1 2.4.1.5-.1.9-.6 1.1-.5.2-.7-.3-.9-.6-.3-.5-.5-.9-.7-1.4-.7-1.4-1.7-2.6-2.8-3.8.8 1.2 1.3 2.4 1.3 3.8 0 .4.1.9-.5 1-.5.1-.7-.3-.9-.7-.9-1.8-2.1-3.5-3.3-5.1-.5-.7-1.2-1.2-2.2-1.5.2.9.7 1.6.9 2.3.1.6.8 1.5-.1 1.9-.8.3-1-.7-1.4-1.2-.8-1.4-1.5-2.8-2.9-3.8-.3.5-.1 1.3-.9 1.2-.7 0-.9-.7-1.1-1.2-.1-.3-.1-.6-.2-.9-.2-.7-.7-1-1.4-1-.6 0-.6.6-.6 1.1 0 .2 0 .5-.1.7-.1.2-.3.4-.6.4s-.4-.3-.4-.5c-.1-.4 0-.7-.2-1.1-.1-.4-.1-.9-.5-1.2-.9-.7-1-.7-1.7.2-.2.3-.5.6-.9.5-.4-.1-.3-.5-.5-.8-.4-.8-1-1.5-1.4-2.3-.1-.1-.2-.2-.4 0-.8.9-1.2.8-1.5-.3-.2-.7-.7-1.1-1.3-1.4-.1-.1-.3-.1-.4-.1-1.4.4-2.2-.6-3-1.3-.6-.6-1.4-.2-1.9-.7-.3-.8-.7-1.5-1.6-1.6-.1 0-.2-.1-.3-.1-.3-.4-1.2-.4-1.1-1.2.5-.2.8 0 1.2.2 1.3.8 2.7 1.3 4.1 1.9-1.1-1.3-2.5-2-3.8-2.8-1.4-.9-2.8-1.8-4.4-2.5-1-.4-1-.6-.4-1.6.2-.2.5-.4.8-.4.3.3-.2 1.1.5 1.2.7.4 1.4.7 2.1 1.1 1.7 1.1 3.5 2 5.2 3.2.6.5 1.4.8 2 1.3 3.4 1.7 6.5 3.6 10 5.2 1.9.8 3.8 1.8 5.8 2.4 3.5 1.3 6.9 2.7 10.6 3.2.4.1.8.2 1.2.4 1.7.6 3.5.7 5.2 1 2.3.4 4.5.3 6.8.2 2-.1 4-.1 6.1-.4.6 0 1-.1 1.3.2z" fill="#383737"/><path d="M326.7 49.3c.7.6.5 1-.3 1.3-.9.3-1.9.5-2.8.2-2-.6-4.1-.2-6.1-.6-.4-.1-.8 0-1.1-.3-3.9-2.4-8.3-3.4-12.6-4.9-3.5-1.2-6.8-2.8-10.3-4-1.1-.4-2.4-.4-3.5-1 1.2-.6 2.5-.5 3.7-.6 2.4-.1 4.8-.2 7.1.1 1.5.2 3 .2 4.5.5 3 .5 5.9 1.4 8.6 2.6 2.9 1.2 5.7 2.5 8.2 4.5l2.7 2.1c.9.6 1.4.6 1.9.1z" fill="#e6e6e6"/><path d="M283.2 41.7c.8.3 1.6.4 2.4.9.7.4 1 .9 1.2 1.6.6 1.9.1 3.6-.7 5.3-1 2.3-2.3 4.4-3.1 6.8-.6 1.8-.8 3.7-.5 5.5.3 1.8 2.2 3.3 4 3.4 1.8.1 3.4-.6 5-1.4 6-3 11.7-6.7 18.2-8.6 2.1-.6 4.1-1.7 6.3-2 .9-.1 1.9-.1 2.8-.1.7 0 1 .7.5 1.3-.4.5-.9 1-1.4 1.3-1.4 1-2.5 2.4-3.5 3.8-.9 1.3-.4 2.5 1.2 2.8.7.2 1.4.2 1.7 1.2.3.9 1.8 1.1 3.3.5 2-.9 4.1-1.2 6.3-1.2 1.3 0 2.5-.3 3.7.1.4.1.6-.3.8-.6.1-.3.1-.7.5-.9.4.3.3.8.3 1.2-.1.8-.2 1.5-.9 2.1-.1.1-.2.1-.3.1-.2 0-.4 0-.5-.2-.8-1.2-1.8-1-3-.7-2.7.6-5.4.9-8.1 1.4-1.5.5-2.8-.1-3.9-1-.4-.3-1-.5-1.5-.6-1.5-.5-2.1-1.9-1.4-3.3.4-.7.8-1.4.9-2.3.1-.6.7-1 1.2-1.3.5-.4 1.1-.6 1.5-1.1.2-.2.3-.5.2-.8-.1-.3-.4-.2-.7-.2-1.3.1-2.5.2-3.7.8-2.7 1.2-5.5 2-8.2 3.2-2.7 1.2-5.2 2.7-7.7 4.2-2.2 1.3-4.5 2.7-6.8 3.9-3.8 2-7.7.2-8.9-4.2-.9-3.5-.1-6.6 1.5-9.7 1.1-2 2.1-4 2.3-6.3.1-1.5-.4-2.3-1.8-2.5-1.4-.1-1.4-.1-1.4-1.7.7-.3 1.4-.6 2.2-.7z" fill="#c0bfbf"/><path d="M261.3 123.7c2.7 3.2 5.3 6.4 8.8 8.7.6.4 1.1.8 1.7 1.1.5.3.8.8.9 1.4-1.9-.9-3.5-2.1-5.1-3.3-2.1-1.6-4.1-3.4-6-5.3-3.1-3.3-5.7-6.9-7.9-10.8-2.5-4.4-4-9.1-5.2-14-.5-2.2-.9-4.5-1-6.7-.1-1.1-.2-2.3-.2-3.4-.1-6.3 1-12.4 3.1-18.3 1.8-5 4.3-9.6 7.6-13.8 1.6-2 3.2-4 5.2-5.7-.1 1.4-1.2 2.3-2 3.2-3.3 3.5-5.5 7.7-7.4 12.1-1.2 2.7-2.1 5.6-2.8 8.5-1 3.6-1.4 7.3-1.7 11.1-.4 5.1.2 10.1 1.4 15.1 1.4 5.7 3.5 11 7.1 15.7 1.1 1.4 2.1 3.1 3.5 4.4z" fill="#444242"/><path d="M348 58.5c.4-.4.6-1 .8-1.5.5.2.3.6.2.9-.1.5-.4 1-.6 1.4.4-.8.7-1.7 1.4-2.4.8-1.2.9-2.7 1.6-3.9 0 2.2-.5 4.3-1.4 6.2-.1-.1-.2-.1-.3 0-1.2 2.4-3.2 4.2-5 6-.3.3-.7.5-.6.9v.1c-.1.1-.1.2 0 .1 1-.7 2.1-1.1 3.1-1.8l2.4-2.1c.4.5 0 .9-.3 1.2-1 1.2-2.1 2.4-3.7 3-2.1.8-4 2.1-6.3 2.6-.4.1-.7.4-1 .7-.2.2-.5.2-.7.3-.5.3-.2.7 0 1 .6 1.1-.5 1.6-.9 2.3-.3.6-.9.2-1.3.1-.4-.2-.8-.2-1.2 0-.7.2-1.3.6-1.9.9-.9.4-.6 1.3-.6 2.1 0 .9 0 1.9-.1 2.8-.1.7-.5 1.1-1.2 1-1.6-.2-3 .5-4.4 1.2-.4.2-.9.6-1.4.2-.5-.4-.2-.9-.1-1.4 0-.2.1-.3.1-.7-.6 1-.8 1.9-1.1 2.8-.3 1-.5 2-.7 3-.1.3-.2.8-.6.7-.5-.1-.3-.6-.3-.9 0-.2 0-.5.1-.7 0-.1 0-.2.1-.3.2-.7.1-1.3.1-2 0-.9.2-1.8.5-2.7.2-.5.1-1-.3-1.3-.3-.5 0-.7.3-1 .6-.6 1.3-1.1 1.9-1.7.3-.3.7-.6 1-.2.4.4-.1.7-.3 1-.3.3-.7.6-.9 1.3 1.9-.9 3.3-2.2 4.3-3.8 1-1.6 2-3.1 2.9-4.7.3-.4.6-1.2 1.2-.8.5.3.1.9-.2 1.3-.2.4-.4.8-.5 1.2.9-1.8 2.2-3.4 3-5.3.3-.6.4-1.3.3-2-.1-.5.1-1.1.2-1.6.1-.2.2-.4.5-.2.2.4.2.8.2 1.2 0 .4.2.7.5 1 .3 1.1-.2 2-.7 2.9-.5 1.2-1.2 2.2-1.8 3.5 2.6-2.5 4.3-5.5 5.9-8.6.2-.5.3-1.1 1.1-1.2v1.8c.6-.2.8-.7 1.3-1 .3.3.1.6-.2.8-1.3 1.2-2 2.8-2.9 4.2-.3.4-.6.9-1.1 1.4 1.1-.6 2.2-.7 3.2-1.2 1.4-.8 2.6-1.7 3-3.4.3-1.1 1.4-1.5 1.9-2.4-.3.2-.4.9-1.1.7-.2-.5.2-.7.4-1 .8-.5 1.5-1.3 2.2-2z" fill="#515a5f"/><path class="st9" d="M300.1 63.8c-1 1-2.3 1.6-3.4 2.3-2.5 1.7-5 3.3-7.5 4.9-3.9 2.6-7.6 5.6-11.3 8.6-.7.6-1.2 1.3-2.1 1.6-1 .3-1.9 0-2-1-.4-2.3-1.8-4-3.2-5.7-1.6-1.9-2.3-4.1-2.5-6.5-.2-3.2.6-6.2 1.4-9.2.3-.9.2-1.9.7-2.8.1-.3-.1-.6-.3-.8-.5-.6-1.1-1.1-1.7-1.6-.2-.2-.5-.1-.7 0-1.2.6-2.5 1.2-3.7 2-.3.2-.6.8-.9.3-.3-.4.2-.7.5-.9 1.1-1.1 2.3-2.2 3.4-3.4.6-.6 1.1-1.2 1.2-2.1.9-.7 1.9-1.5 3-2 .4.6-.1.9-.4 1.3l-.7.7-.7.7c-.5.3-.9.8-1.3 1.4-.2.3-.2.5.3.5.4 0 .8-.2 1.1-.4.7-.4 1.4-.5 2.2-.4 1.2.1 1.9.7 2 1.9.1 1.1-.2 2.2-.6 3.2-.7 1.7-1.2 3.4-1.8 5.2-.6 2-.7 4-.6 6 .1 1.7.9 3.2 1.9 4.5 1.2 1.5 2.1 3.2 2.9 5 .7 1.6 1.3 1.7 2.7.8 3.5-2.2 6.8-4.6 10-7.2 1.5-1.3 3.2-2.2 4.9-3.3 1.5-1 3.1-2.1 4.7-3 .7-.3 1.5-1 2.5-.6z"/><path d="M344.3 84.4c.3.8.4 1.5.4 2.4 0 2.3.1 4.6 0 7-.2 2.7-.7 5.3-1.7 7.8-.4 0-.3.3-.4.5-1 2.8-2.2 5.5-3.9 7.9-1 1.4-2.1 2.8-3.4 4-.7.6-.8.5-1.1-.3 0-.1.1-.2.1-.3 1.5-1.8 3-3.6 4.2-5.7 1-1.8 2.1-3.6 2.7-5.6-.6 1.9-1.6 3.6-2.6 5.4-.1.1-.2.1-.3.2-.9-.1-.5-.6-.3-1 .5-1.1.9-2.3 1.3-3.4.5-1.3.7-2.7.9-3.5-.2 1-.6 2.5-1.3 3.9-.1.1-.2.2-.4.2-.6-.4-.3-.9-.1-1.3.9-2.5 1.3-5.1 1.6-7.8.3-.4.4-.9.3-1.4-.2-.9-.4-1.9-.6-2.8-.1-.4-.1-.8.1-1.1.5-.2.4-.7.4-1.1 0-2.1-.3-4.1-.9-6.1-.7-2.4-1-4.8-1.8-7.1-.1-.5-.5-1.1.1-1.3.5-.2.6.5.8.9.4.8.5 1.6.8 2.4.6 2.3 1.5 4.5 1.6 6.9.1-.2-.1-.3-.1-.5 0-.3-.1-.7.3-.7.4-.1.6.3.6.6.2 1.8 1 3.6 1.1 4.8-.5-3.5-1.2-7.5-3.5-11.1-.5-1.8-1.6-3.5-1.6-5.5.7-.4 1 .1 1.3.5.7 1.2 1.4 2.4 2 3.7 1.3 2.8 2.5 5.7 3 8.8 0 .1.1.2 0 .3.4-.3.2-.5.4-.6z" fill="#e9e8e9"/><path d="M281 42.4c.1.2.4.4.4.5-.6 1.3.4 1 1 1 1.6.1 2.3 1.2 2.1 2.8-.3 2.5-1.4 4.6-2.6 6.8-1.6 3-2.3 6.1-1.2 9.5 1.3 4.2 5.2 5.5 8.9 3.4 3.9-2.3 7.8-4.6 11.8-6.7 2.8-1.5 5.8-2.4 8.7-3.6.8-.3 1.7-.6 2.5-1 1.1-.6 2.4-.2 3.5-.6.2-.1.6.2.6.3.1.4.1.9-.3 1.2-.5.4-1.1.8-1.6 1.2-.7.4-1.1.9-1.2 1.7-.1.8-.7 1.3-1 2-.4 1 0 2.3 1 2.6 1 .3 1.9.6 2.6 1.3.9.8 1.9.7 3 .5 0 .6-.5.6-.9.7-1.2.1-2.5.3-3.5-.1-1.4-.5-2.8-1.2-3.7-2.5-.4-.7-.3-1.4 0-2.2.3-.6.3-1-.4-1.4-.7-.4-.4-.9.1-1.3 1.1-.8 2.3-1.5 3.5-2.1.4-.2.9-.3 1.1-.9-.5-.3-1.1-.1-1.5.1-2.1.9-4.3 1.6-6.5 2.2-3.4.9-6.4 2.8-9.4 4.5-3 1.6-5.8 3.7-8.8 5.3-1.2.7-2.5 1.2-3.9 1.2-2.4.1-4.2-1.1-5.2-3.1-2.1-3.9-1.9-7.9-.2-11.9.8-2 1.7-3.9 2.2-6 .5-1.8-.3-3-2.4-2.9-.5 0-.9 0-1.2-.4-.1-.7.8-.9.7-1.5.4-.1 1.1-.4 1.8-.6z" fill="#b4b3b3"/><path class="st12" d="M326.7 117.7c.7-.8 1.5-1.3 2.7-1.3 1.7.1 3.3-.1 5-.4.4-.1.8-.1 1.1.2.4.4.8.6 1.2.2.4-.4-.1-.8-.3-1.1.6 0 1 .4 1.2.9.4 1 1.3 1.3 2.1 1.6.1 0 .2.1.3.1 1.7-1 3 .1 4.3 1 .2.1.6.4.4.7-.2.3-.5-.1-.8-.2-.1 0-.3-.1-.4-.2-.4-.1-.8-.2-1.1-.4.3.2.7.3.9.6.6.6 1.6 1.2 1.1 2-.3.4-1.4-.4-2.1-.8.9 1.1 2.2 2.1 1.7 3.9-.6-.8-1.1-2-2.5-1.6.4 1 1 2.1.5 3.4-1.2-1.2-1.1-3.3-2.9-4.3.5 1.1 1.3 1.9 1 3.3-.7-.8-1.3-1.6-1.9-2.4-.3-.4-.6-.6-.9 0-.1.1-.3 0-.4-.1-.9-1-1.8-1.9-2.9-2.6-.2-.1-.5-.4-.3-.7.2-.3.5-.1.8.1.6.4 1.2.9 1.8 1.2-.6-.9-1.4-1.5-2.2-2.2-.4-.3-1-1.1-1.5.1-.2.4-.8 0-1.2-.2-.7-.4-1.4-.5-2.1-.2-.4-.3-.8-.4-1.3-.4-.6.1-1 .1-1.3-.2z"/><path d="M338.3 70c.2-.8.9-.8 1.5-1.1 3.1-1.3 6.5-2.1 8.9-4.8.4-.5.9-.9.9-1.6 1.2-1.8 2.1-3.7 3.2-5.7.4 1.8-1.1 5.5-3 8-1.8 2.4-4.3 3.7-6.9 5 1.7.2 5.4-1.1 8.1-3.6-.5 1.3-1.3 2.1-2.3 2.8-1 .7-2 1.2-3.2 1.7-2.1.9-4.2.5-6.3-.1-.4 0-1 .2-.9-.6z" fill="#3e3e3e"/><path d="M329.3 118.3c.3-.8.9-.4 1.3-.3.6.2 1.1.5 1.7.7-.3-1-.1-1.2.8-.8 1.6.7 2.6 2 3.8 3.4-1.3-.4-2.1-1.2-3.2-1.7 1.2 1 2.5 2 3.5 3.3.8 1.1 1.7 2.2 1.7 3.9-.8-.4-.9-1.2-1.4-1.7-.4-1-1.4-1.6-2.2-1.9-1.4-.6-2.3-1.7-3.4-2.5l1.2 1.5c.9 1.2 1.1 2.5 1.2 3.9 0 .5-.1 1-.9.8-.6-.7-.8-1.7-1.3-2.5-.8-1.3-1.9-2.4-2.9-3.5-.4-.4-.9-.7-1.1-1.2-.1-.5-1.1-1 0-1.5.3-.2.7.2 1.2.1z" fill="#2d2d2d"/><path d="M341.3 60.8c-.5.3-.6.9-.8 1.3-1.6 3-3.2 5.9-5.7 8.3-.2.2-.4.6-1 .5.9-2.3 2.5-4.3 3-6.8.5-1.4 1-2.8 1.7-4 .4-1.3.2-2.6.3-4 .7.4.5 1.5 1.2 2 .5-1.8.4-3.5.1-5.4 1.2 1.3 1.9 6 1.2 8.1z" fill="#3a3a3a"/><path d="M345.4 61.7c.7-.1.9-.9 1.8-1.2-.4.5-.6.9-.9 1.2-1 .9-1.4 2.1-2 3.2-1 1.6-2.5 2.4-4.3 2.9-.6.2-1.2.5-1.9.6 1.5-1.7 2.2-3.9 3.8-5.6.3-.3.8-.6.8-1.2 1.2-2.8 2.4-5.5 2.2-8.9.6 1.2.8 2.1.7 3.1.2 2.1.2 4.1-.6 6-.2.2 0 .2-.1.1l.1-.1c0-.1.1-.2.4-.1z" fill="#363535"/><path d="M333.4 126.9c.7.1.6-.4.6-.8-.2-1.8-.7-3.4-2-4.7-.3-.3-.7-.6-.7-1.2.4-.1.7.1.8.3 1.3 1.6 3.3 2.3 4.8 3.6.3.3.5.6.5 1-.3-.1-.4-.3-.5-.5-.3-.4-.5-.3-.7 0-1.1 1.9-2.8 3.2-4.2 4.8l-.6.3c-.4.3-.5 0-.5-.3.5-1.1 1.5-1.8 2.3-2.7 0 .1.1.1.2.2z" fill="#6f6e6f"/><path class="st18" d="M331 129.4c.3.8.7-.3 1 0-4.8 4.3-10.2 7.5-16.2 9.7-.3.2-.5.2-.7-.1.1-.5.5-.5.9-.7 4.6-1.9 9-4.2 12.8-7.4.4-.3.7-.7 1.1-1 .3-.3.6-.6 1.1-.5z"/><path d="M338.3 70c.1.4.6.4.9.6-.4.4 0 .6.1.9 1.7 3.3 3.4 6.6 4.4 10.3.2.8.4 1.7.6 2.6v.8c-.8-3.2-2-6.3-3.4-9.2-.7-1.4-1.4-2.7-2.1-4-.2-.4-.5-.5-.9-.4-.1-.4.3-.3.4-.4-.3-.2-.8-.4-.7-1 .2-.2.4-.2.7-.2z" fill="#b8b8b9"/><path d="M344.1 66.2c-.2 0-.4-.1-.2-.4l1.5-1.5c1.6-1.5 3.1-3.2 4.2-5.2.1-.1.1-.4.3-.2.1.1.1.3.1.4-.3 1.6-1.3 2.9-2.3 4.1-.8.9-1.4 1.9-2.5 2.4-.3.2-.6.5-1.1.4z" fill="#3c3b3b"/><path class="st21" d="M278.9 43.3c.8.9-.4.9-.6 1.3-1.1.9-2.6 1.2-3.8 2.1-.3.2-.7.3-.7.8-.5 1-1.6 1.2-2.5 1.8-.3.2-.6 0-.7-.4.4-.8 1-1.3 1.7-1.7.7-.5 1.3-1 1.9-1.6 1.4-1.1 3-1.7 4.7-2.3z"/><path class="st22" d="M334.4 113.6c.1.6.2.8.8.3 1.9-1.9 3.6-4 4.8-6.4 1-2 2.1-3.9 2.6-6 0-.1.1-.4.3-.2.1.1 0 .3.1.4-.9 3-2.2 5.8-4 8.4-1.1 1.6-2.4 3.1-3.8 4.5h-1.1c-.1-.5-.2-.8.3-1z"/><path class="st23" d="M315.1 138.9c.2.2.4.2.6.2-2.8 1.2-5.8 1.8-8.8 2.3-1.1.2-2.2.4-3.4.4.1-.1.3-.2.5-.3-.4 0-.8 0-1.2-.1.1-.5.5-.5.8-.5 3.6-.2 7.1-.8 10.5-2.1.4 0 .7-.1 1 .1z"/><path class="st24" d="M274.2 45.6c-.1.8-.7 1.2-1.3 1.5-.8.5-1.4 1.1-2.1 1.7-.1.1-.3.1-.4 0 .2-.4.8-.7.6-1.3.9-.8 2-1.4 3.2-1.9z"/><path class="st25" d="M338.5 60.2c-.4 1.4-.8 2.8-1.7 4-.6.1-.9-.1-.8-.7v-1.6c-.5-.9-.3-1.8-.2-2.7 0-.1.1-.2.2-.3.8.7 1.6.4 1.9-.6.5.5.2 1.3.6 1.9z"/><path d="M331.9 63v-1.3c.1-.8.1-1.6.9-2.1.7 1 .3 2.2.5 3.3.9-.5.9-1.6 1.6-2 .2.2.2.5.2.8-.2 1.2-.4 2.4-1.3 3.3-.2.3-.5.6-.9.5-.4-.1-.2-.5-.3-.8-.2-1 0-1.9.1-2.9v-.1c-.2-.1-.1.1-.1.2-.3.3-.1.9-.7 1.1z" fill="#afaeae"/><path class="st25" d="M334.8 61.7v-.8c.2-1.2.3-2.3.5-3.7.5.6.6 1.2.6 1.7l-.1.1c-.4.5-.2 1.1-.4 1.6 0 .4.1 1-.6 1.1z"/><path d="M253.4 102c-.3-1.8-.5-3.6-.9-5.3-.4-2.3 0-4.7-.4-7-.3-1.7.5-3.2.7-4.8.7-5.2 2.3-10.1 3.9-15 .9-3 2.1-5.9 3.9-8.5 1-1.5 2.1-2.9 3.8-3.9.6-.3.8-.2 1.1.4 1 2.3.6 4.6.5 6.9-.1 1.1.3 2.1.1 3.2-.3 2.2.3 4.2 1 6.2.5 1.2 1.3 2.3 2 3.4 1.5 2 2.3 4.3 2.9 6.7.4 1.5 1.1 1.7 2.3.7 3.3-2.9 6.3-6.1 9.7-8.8 3-2.4 6.1-4.8 9.4-6.8.3-.2.6-.3 1-.3-.7.8-1.5 1.6-2.2 2.4.1.2 0 .4-.2.6-2 1.5-3.6 3.3-5.4 5-.7.5-1.4 1.2-1.9 1.9-.1.1-.1.2-.2.2-.6.7-1.3 1.2-1.8 2l-.3.3c-1.5 1.8-3.1 3.4-4.5 5.2-1.7 2.2-3.7 4.2-5.1 6.6-.3.5-.9 1.3-.5 1.6.6.4 1-.5 1.5-.9 1-.9 1.8-2.1 2.5-3.3.4-.7 1.1-1 1.7-1.4 1.8-1.2 3.9-2.1 5.7-3.3 3.8-2.6 7.9-4.5 12-6.6 2.9-1.5 5.8-3 8.8-4.5 2.5-1.2 5.2-2.3 7.7-3.5 1.1-.5 2.4-.6 3.6-1.1.4-.2.8-.2 1.2.2 0 .4-.3.5-.6.6-1.1.5-2.1 1-3.2 1.3-1.3.5-2.5 1-3.7 1.6-4.1 2-8 4.5-12.1 6.6-2.4 1.2-4.9 2.3-7.3 3.6-1.8 1-3.3 2.3-4.8 3.6-2.4 2-4.9 3.8-7.4 5.6-1.8 1.3-3.6 2.6-5 4.5-.8 1.1-2.1.9-2.7-.3-.6-1.2-.7-2.4-.4-3.6.8-3.5 1.1-7-.2-10.5-.4-1.2-1.2-2.1-1.9-3.1-2.3-2.9-3.9-6.2-3.8-10 0-1.6.2-3.2.1-4.8-.1-1.2 0-2.5-1.1-3.5-.4-.3-.5-.3-.7 0-.3.3-.7.6-.9 1-2.1 3-3.4 6.3-4.4 9.8-.3 1-.6 2-.8 3.1 0 .1-.1.2-.1.3-.7 1.8-.9 3.7-1.4 5.5-.6 2.4-.7 4.9-1.4 7.2-.2.8 0 1.6 0 2.3 0 3.2.5 6.3.7 9.5-.3.2-.1.8-.5 1.2z" fill="#585758"/><path d="M253.4 102v-1.5c.5 0 .4.4.5.7.3 3.1 1.2 6.1 2.6 8.9 1 2.2 2.1 4.3 3.3 6.4.9 1.4 1.9 2.7 3 3.9 4.1 4.3 8.2 8.7 13.5 11.7 4.4 2.4 9 4.1 13.9 5.2 2.4.5 4.7.7 7.1.6.7 0 1.3-.1 1.9-.3.3-.1.6-.1.7-.5.1-.4-.3-.4-.5-.6-.3-.2-.6-.3-.9-.5-1.1-.9-1.1-1.7.1-2.5.8-.5 1.3-1.1 1.6-2 .4-1.2.2-2.2-.7-3-1.4-1.2-2.9-2.1-4.6-3-3.2-1.6-6.4-3.2-9.1-5.5-2.8-2.3-5.7-4.6-8.2-7.2-1.8-1.9-2.8-4.3-3.4-6.8-.1-.3-.1-.6-.2-.9-.9-2.1-.4-3.6 1.4-5 .6-.5 1-1.4 2-1.1.2.1.3.2.3.3-.4.4-1 .5-1.2 1-1 .7-1.7 1.5-1.7 2.9 0 .5 0 .9.3 1.3.8 1.7 1.2 3.6 2.3 5.1.6.9 1.4 1.6 2.1 2.4 2.7 3.3 5.8 6.1 9.3 8.5 1 .7 2.1 1.3 3.2 1.9 2.8 1.5 5.7 2.8 8.6 4.2 1.4.7 3 .9 4.5 1.3.8.2 1.6.5 2.4.9.7.4 1.2.8 1.5 1.6.4 1 1.1 1.6 2.2 1.9.9.2 1.7.7 1.7 1.8.1 1.4-.4 2.1-1.7 2.6-.3.1-.6.3-.9.3-1.4.2-2.5.8-3.7 1.6-1.2.9-2.8.8-4.1.8-2.7-.1-5.5-.1-8.2-.4-4-.5-8-1.1-11.7-2.7-1.4-.6-3-1.1-4.3-1.8-3.1-1.7-5.8-4-8.6-6.1-2.8-2.1-5.2-4.7-7.5-7.3-.9-1-1.6-2.2-2.4-3.3-.8-1.6-1.7-3.3-2.5-4.9-2.1-3.6-3.8-7-3.9-10.9z" fill="#575656"/><path class="st29" d="M293.9 70.3c1.1-1.2 2.4-2 3.6-3 1.2-1 2.5-2 3.7-3 .8-.8 1.7-1.5 2.8-2 .5-.1.9-.8 1.6-.3 0 .3-.1.8.5.5.6-.3 1.1-.5 1.6-.8.5-.2 1-.4 1.5 0s.3.9.2 1.4c-.2 1.1.3 2.2 1.4 2.6.4.2.9.3 1.1.7.4.8 1 .8 1.7.6 1.1-.3 2.3-.7 3.4-.8 2.1-.2 4.2-.6 6.2-.1 0 .8-.7.7-1.2.9-1 .1-2 .4-3.1.2-.6-.1-1.1.2-1.6.4-2.9 1.3-6 2.1-9 3.2-.6.2-1.2.3-1.4-.6-.1-.3-.3-.4-.6-.4-1.9 0-2.3-1.6-2.8-2.9-.3-.7-.4-.8-1-.5-1.3.5-2.4 1.3-3.4 2.1-1.2.9-2.4 1.7-3.5 2.6-1.6 1.1-3 2.6-4.8 3.6-.8-.1-.6-.6-.3-1s.6-.9 1-1.2c.9-.6 1.6-1.4 2.4-2.2z"/><path d="M293.9 70.3c-.6 1.5-2.1 2.3-3 3.6-.2.3-.8.6 0 .9.1.5-.2.7-.5.9-1.3 1.1-2.5 2.4-3.8 3.5-.7.7-1.4 1.3-2 2-.6.6-1.3 1.2-2 1.8-.3.3-.7.5-1.1.2-.3-.3 0-.7.1-1 .2-.4.5-.6.7-1l.2-.2c.6-.8 1.4-1.3 1.9-2.1.6-.8 1.4-1.3 1.9-2.1 1.9-1.8 3.9-3.6 5.8-5.4.8-.1 1-1 1.8-1.1z" fill="#808081"/><path class="st31" d="M300.1 63.8c-1.7.1-3.1 1.2-4.4 2-2.1 1.4-4.2 2.7-6.2 4-.5.3-.9.7-1.4 1-.1.1-.3.1-.4 0-.1-.6.4-.7.7-1 .3-.3.6-.4.9-.7.6-.6 1.3-1.1 2-1.4 2.2-1.3 4.2-2.8 6.4-4.1 1.2-.7 2.5-1.2 3.8-1.7.4-.1.7-.3 1.1-.1.2.6-.3.7-.6.9-.3.2-.7.2-1.1.5-.2.4-.5.5-.8.6z"/><path class="st9" d="M301 63.4c.4-.7 1.3-.6 1.7-1.3.2-.5.7-.6 1.2-.6.7.3.7.6.1 1-.9.6-1.9 1.1-2.8 1.7.2-.3.6-.7-.2-.8z"/><path class="st32" d="M297.6 111.2c.3.3.2.7.2 1 0 .2 0 .4.2.4s.3-.2.3-.3v-.7c0-.6 0-1.2.7-1.3.7-.1 1.8.7 1.8 1.3 0 .6.3 1 .5 1.5.1.3.3.6.7.5.3-.1.3-.4.3-.7 0-.3-.3-.6.1-.8.4-.2.5.2.8.4 1.3 1.1 2 2.6 2.8 4 .2.4.3 1.2 1 .9.5-.2.1-.8 0-1.2-.2-.9-.6-1.7-1.1-2.4-.1-.2-.4-.4-.2-.5.1-.1.4-.2.6-.1.8.3 1.6.6 2.1 1.4 1.3 1.8 2.6 3.6 3.5 5.6.1.3.3.6.6.5.4-.1.3-.4.3-.7.1-1.5-.5-2.8-1.4-4-.1-.2-.4-.3-.2-.7 1.5 1.2 2.7 2.6 3.5 4.3-1 .1-1.1.7-1 1.5.2 1.5.9 2.7 1.9 3.8 1 1 1.7 2.1 1.6 3.6-.1.9.2 1.9 1.2 2.5.1.1.2.1.2.2 2.4 1.9 1.8 3.4-.6 4.7-.9.5-1.9.8-2.8 1.3-.3.1-.6.3-.9 0-1.6.1-3 .6-4.5 1.3-1.1.5-2.3.8-3.5.9-.1-.3.1-.4.3-.5 1.8-.9 3.5-2.1 5.6-2.3 1.2-.2 2.1-.9 3-1.6.8-.6.7-1.1-.1-1.8-.9-.9-1.9-1.7-3.2-1.9-.6-.1-.9-.7-1.2-1.1-1.1-1.5-2.2-2.8-4.1-3.3-.9-.2-1.7-.3-2.5 0-1.2.5-2.4.3-3.6 0-2-.7-3.9-1.6-5.8-2.5-3.5-1.6-6.9-3.4-9.8-6-.9-.8-1.8-1.5-2.5-2.5-1.1-1.7-2.7-2.9-4.1-4.3-1.4-1.5-2.6-3.1-3.1-5.1-.1-.5-.7-.9-.5-1.5 1.1 0 1.3 1 1.5 1.6 1 2.7 3 4.5 5.1 6.2 1 .8 1.8 1.7 2.5 2.9 1.5 2.5 3.8 4.2 6.4 5.6 3.2 1.8 6.5 3.4 10.1 4.4.5.1 1 .3 1.5.2.9-.1 1-.5.5-1.2-1.3-1.8-3-3.2-4.9-4.5-1.4-1-2.8-1.9-4.1-2.8-1.8-1.2-3.8-2.2-5.8-2.9-1.2-.4-2.1-1.3-3-2.1-.2-.2-.3-.4-.2-.7.2-.3.4-.2.7-.1.8.2 1.5.6 2.1 1 .3.2.5.3.6-.3 0-.5.5-.3.9-.2.8.3 1.5.7 2.1 1.2 2.3 1.8 5 3 7.8 4 1.4.5 2.8.3 4.1.1.3 0 .7-.1.8-.5.1-.4-.2-.6-.4-.8l-.9-.6c-.8-.5-1.7-.9-2.5-1.4-1.1-.7-1.1-.7-1.6.4-.4.3-.7.5-1-.2.3-1.2 0-2.2.6-3.1z"/><path class="st1" d="M275 104.6c1.2 3.3 2.9 6.2 5.8 8.3.9.7 1.4 1.7 2.1 2.5 2.2 2.8 5 4.8 8.1 6.5 2.7 1.5 5.6 2.7 8.4 3.9 1.6.7 3.2 1.1 5.1.5 1.7-.6 3.2.3 4.6 1.2.7.4 1.2 1.1 1.7 1.8.6 1.1 1.4 1.8 2.8 1.9.6 0 1 .3 1.2.9.1.3.4.5.7.7 1.5.7.9 1.8-.1 2.5-1.2 1-2.6 1.4-4.1 1.7-1.8.4-3.2 1.5-4.8 2.3-2.3 1-4.7.5-7 .4-1.1-.1-2.3-.2-3.4-.2-2.6.1-5.1-.4-7.6-.9-3.3-.6-6.6-1.4-9.6-2.9-2-1-3.9-2-5.9-3.1-.5-.3-.8-.8-1.1-1.3-1.9-2.2-4.3-3.8-6.4-5.8-2.4-2.3-4.7-4.7-6.2-7.7.4.2.6.6.8.9 1.9 2.3 3.9 4.6 6.1 6.7 2.6 2.4 5.4 4.5 8.2 6.6 3.9 2.9 8.3 4.6 12.9 5.6 2.8.6 5.6 1.3 8.6 1.3 1.9 0 3.8.1 5.7.3 2 .2 4.2.1 5.8-1.6.3-.3.7-.5 1.2-.5 1 0 1.9-.5 2.7-.8 1-.4.8-1.4.9-2.1.1-.7-.4-1.2-1.1-1.3-1.5-.3-2.4-1.2-3-2.6-.5-1.2-1.9-1.6-3.1-1.8-2.8-.5-5.3-1.6-7.8-2.8-4.7-2.3-9.5-4.5-13.3-8.2-3-2.9-6.1-5.8-8.2-9.5-.6-1-.8-2.3-1.2-3.4.1-.1.1-.1.2-.1.2-.1.3 0 .3.1z"/><path class="st3" d="M314.5 137c.3 0 .6-.1.9-.2 1.3-.4 2.6-.8 3.8-1.7.3-.2.6-.3.9-.4.9-.4 1.3-1.1 1.8-1.9.7-1.2.9-2-.3-3-.8-.7-.9-1.9-1-3-.1-1.1-.6-1.8-1.5-2.2-.3-.1-.6-.3-.9-.4-1.4-.7-1.4-.7-.9-2.2.5-1.3.9-1.5 2.2-.9.3.1.6.3 1 .4 1.6.1 2.5 1.1 2.2 2.6-.2 1.2.3 2.4.2 3.6 0 .3.1.6.4.7.3.1.4-.2.6-.3.8-.7 1.2-1.5.8-2.7-.3-.9-.2-2-.6-2.9-.4-1.7-.9-3.4-2.1-4.8-.1-.1-.3-.3-.1-.5.1-.1.3-.1.4 0 1.4.7 2.9.6 4.4.6.5 0 1 .1 1.5 0 .6-.1.9.2 1.1.7-.4.5-.8 0-1.3 0-.6-.1-.6.2-.4.6.1.3.4.5.6.7l1.1 1.1c.3.5-.1.5-.5.6-.4-.1-.6-.4-.9-.6-1.1-1.1-2.5-1.8-4.4-2.2.5.5.8.8 1 1.1l.9.9c.6.5 1.2.9 1.6 1.6.3 1.3 1.2 2.3 1.6 3.6.2.8.6 1.6.4 2.5-.1.8 0 1.1.8.8.1 0 .3 0 .4.1.1.7-.4.9-.9 1.1-.7.2-1.2.6-1.7 1-2 1.5-4.3 2.7-6.5 4-1.3.8-2.4 1.9-4 2.1-1.4.2-2.6.8-3.8 1.4-1.1.5-2.3.6-3.5.9-.2.1-.4 0-.6-.2 1.2-1 2.8-1.3 4.2-1.9.5-.4.8-.4 1.1-.7z"/><path d="M317.3 137c2.2-.6 3.7-2.2 5.6-3.2 1.9-1 3.8-2.1 5.5-3.5.6-.5 1.7-.2 2-1.2 0 0 0-.1.1-.1.6-.6 1.1-1.3 1.7-2 .3-.3.5-.6 1-.3.1.1.1.1.1.2v.1c-.5 1-1.5 1.6-2.2 2.5-1.8 1.4-3.6 3-5.6 4.3-3.2 2.2-6.7 3.7-10.3 5.2-2.5.8-5 1.7-7.7 2-1.2.1-2.3.2-3.5.3-.4 0-.8-.1-1.1.2h-.4c-.6.2-1.1.1-1.8.1.1-.7.6-.8 1-1 1-.4 2.1-.4 3.2-.5 2.6-.2 5.1-.7 7.6-1.3 1-.2 2-.7 2.9-1.2.7-.2 1.3-.4 1.9-.6z" fill="#bcbbbb"/><path class="st23" d="M317.3 137c-3.1 1.9-6.5 2.5-10.1 3-2 .3-4 .1-5.8 1-.2.1-.4.1-.4.4h1.6c-.7.4-1.5.2-2.2.2-2.4-.2-4.7-.5-7.1-.8-.4 0-.7-.2-1.1-.4 1.3-.5 2.6-.6 4-.4 2.5.3 5 .2 7.5.1 1.7-.1 3.4-.4 5.1-.6.2 0 .5 0 .7-.2 2.2-.2 4.2-1.1 6.2-1.9.4-.2.9-.5 1.6-.4z"/><path class="st34" d="M304.2 110c-2.1-.5-3.9-1.5-5.8-2.3-.2-.5.1-.6.5-.8.4-.1.7-.1 1.1 0 2.6.8 5.4 1.1 8 2 .8.3 1.7.4 2.5.5.1-.5-.3-.5-.5-.7-3.2-2.3-6.5-4.5-9.6-6.7l-.3-.3c-.7-.6-1.9-1-1.6-2.2.4-2 1.6-3 3.2-3.1.9-.1 1.7-.5 2.4-1 3.3-2.4 6.4-4.9 10.1-6.7 1.2-.6 2.4-1.2 3.6-1.9.8-.5 1.7-.9 2.6-1.2.6-.2 1.2-.3 1.1.7-1 .1-1.8.5-2.7 1-2.7 1.6-5.3 3.4-8.1 4.8-1.2.6-1.8 1.7-2.1 2.9 0 .1 0 .3-.1.4-1.1 3 .1 5.4 1.8 7.8 1.7 2.3 4 4 6 5.9.4.3.7.7 1 1.1.3.4.7.8.4 1.2-.3.4-.8.3-1.2.2-2.1-.4-4.2-.7-6.3-1.3-1.5-.4-3.1-.7-4.6-.9-.5.2-1 .2-1.4.6z"/><path d="M331.9 63c.1-.4.3-.9.4-1.3.4 0 .4.3.4.6.1 2.1-.5 4.1-1.7 5.8-.8 1.1-1.4 1.4-2.6.8-.8-.4-1.5-.3-2.2.1-.6.3-1.1.8-1.7 1.1.1.1.2.1.3.1.3 0 .7 0 .8.4.1.5-.3.6-.7.7-.9.2-1.9.5-2.8.5-.3 0-.7-.1-1.1.2.4.2.8.2 1.3.2.3 0 .7-.1.8.3 0 .4-.3.6-.7.6-.9.1-1.7.2-2.6-.1-.6-.2-1.1-.3-1.4.4-.2.4-.7.4-1 .5-.6.1-1.2.2-1.7.6-.3.3-.8.3-.4 1 .3.5-.3.9-.8.7-1.3-.4-2.3.1-3.2.9 0 0-.1 0-.1.1-.5.4-1.4.2-1.7.8-.4.6.4 1.1.5 1.8.1.6-.3 1-.9 1-.3 0-.5-.2-.8-.2-.3-.1-.7-.4-1 0-.3.3.1.6.2.9.4.8.1 1.2-.8 1.2-.5 0-1-.2-1.4-.4-1.5-.7-2-.5-3 .6-.5.5-1.1.6-1.7.8-2.1.7-4 1.9-6 3-.2.1-.3.3-.5.4-.5.5-.3.7.3.9 1 .3 2 .3 3 .2.4 0 1-.2 1 .4 0 .5-.4.7-.9.7-1.4.1-2.8.1-4.1-.5-1.2-.6-1.2-.6-2.5.4 1.3.4 2.5.7 3.8.6.7-.1 1.4-.2 2.1-.2.4 0 .7.1.8.5.1.4-.2.6-.5.7-1.1.3-2.2.7-3.4.4-1.4-.3-2.8-.3-4.1-.9-.3-.1-.6-.2-1 .1.8.2 1.4.6 2.1.8.3.1.8.2.6.8-.4.2-.8.2-1.2.1-1-.2-2.1-.2-3.1-.5-.6-.2-1.2.2-1.7.6-2 .9-3.8 2-5.8 3-.2.1-.4.2-.6.1-.2.1-.4.3-.7.4-.7.5-1.1 1.4-2 1.8-.2.1-.4.3-.6.4-.4.2-.8.3-1.1-.1-.3-.4.1-.7.3-.9.3-.3.6-.6.8-.9 1-1 2.2-1.7 3.4-2.5 1.1-.4 2.1-1.1 3.1-1.7 5.9-3.5 11.6-7.2 17.5-10.8 3.4-2 6.9-3.9 10.4-5.7.6-.3 1.1-.8 1.7-1.2 2.2-1.5 4.6-2.9 7.1-3.8.9-.3 1.6-.9 2.4-1.3.5-.2 1-.5 1.5-.5.3 0 .6-.1.9-.4 1.2-1.3 2.8-1.6 4.4-1.6 1.5 0 2.4-.6 3.1-1.9.1-.1.1-.2.2-.3.2 0 .5-.6.6-1.3z" fill="#232222"/><path d="M321.3 86.4c-.1-.6-.3-.7-.9-.5-1.7.6-3.3 1.6-4.9 2.4-1 .5-2 1.1-3 1.6-2.8 1.1-4.8 3.6-7.5 4.9-.5.2-.8.9-1.3 1.2-.7.5-1.5.9-2.4.8-1.1-.1-1.7.5-2.1 1.5-.1.2-.1.5-.3.7-1.1 1-.2 1.7.5 2.2 2.8 2 5.7 3.9 8.6 6 .8.6 1.6 1.2 2.4 1.7.3.2.7.4.5.8-.2.3-.6.2-.9.1-2.1-.3-4.2-1.2-6.3-1.5-1.3-.2-2.6-.6-3.9-1-.6-.2-1.2-.3-1.5.5-2.3-.7-4.2-2.3-6.4-3.3-1.2-.6-2.5-1-3.6-1.9.3-.7.8-.3 1.2-.1.6.2 1.2.6 1.8.6 1.4 0 2.4-.4 3-1.8.4-1 .9-1.9 1-3 0-.6.5-1 1-1.4 1.6-1.3 3.5-2 5.5-2.5 2.3-.6 4.3-1.6 6.2-2.9 3.5-2.4 7.2-4.5 11.1-6.3.8-.4 1.5-.5 2.2.2.7.7.7 1.5.3 2.3-.1 0-.2 0-.3-.1-.2-.6-.3-.9 0-1.2z" fill="#c3b3b5"/><path d="M321.3 86.4v1.1c.4.5.3 1 .2 1.5-.1.2-.3.3-.4.2-.5-.7-1.1-.3-1.6 0-1.3.6-2.4 1.7-3.7 2.3-1.2.5-2.4 1-3.6 1.6-1.5.7-2.2 1.7-2.1 3.4.1 1.4.3 2.7 1.5 3.7.1.1.3.3.3.4.5 2.1 2.3 3.3 3.5 4.9.3.4.7.7 1 1.1.4.5.8.9 1.5.5.5-.3.7.1.9.5.6 2 2 3.6 3.2 5.3.7.9 1.6 1 2.5.4.7-.4 1.3-1.1 2-1.6 1.2.6 2 1.7 3 2.5.4.3.3.6-.2.7-.4.1-.8.1-1.3.1-2.8 0-5.6 0-8.4-.5-1.3-.2-2.6-.3-3.8-.7-.8-.4-1.7-.4-2.6-.6-3.1-.6-6.1-1.7-9-3 0-1 .8-.6 1.3-.6 2.3.1 4.4.9 6.7 1.3l4.8.9c.2 0 .5.1.7-.1.1-.3-.1-.5-.2-.7-.4-.5-.8-1-1.4-1.4-1.5-1.1-2.6-2.5-4-3.6-1.5-1.3-2.9-3-3.6-4.9-.6-1.6-1.3-3.4-.3-5.1.3-.4.1-1 .3-1.5.5-1.4 1.7-2.2 2.9-2.8 2.6-1.3 5-3.1 7.6-4.5.7-.7 1.4-1.4 2.3-.8z" fill="#d7d2d3"/><path d="M321.5 87.4v-1.2c-.1-1.1-1-1.7-2.1-1.2-4 1.8-7.7 4-11.4 6.4-1.9 1.2-3.9 2.3-6.2 2.9-2.1.5-4 1.4-5.7 2.7-.9.7-.6 1.7-.8 2.5-.5 2.4-2 3.7-4.3 3.5-.6 0-1.1-.4-1.6-.6-.4-.2-.7-.5-1.2-.1-.7-.3-1.4-.7-2-1.2 0-.5.4-.4.7-.4.4 0 .8.2 1.2.3.7.3 1.3.1 1.8-.6 1.2-1.6 1.5-1.7 3.5-1.4-1.9-.5-2-.6-1.4-1.6 3-2 6.3-3.4 9.7-4.6 2.9-1.1 5.8-2.4 7.9-4.9 1-1.2 2.5-1.8 3.9-2.6.8-.5 1.7-.9 2.6-1.3.7.1 1.2 0 1.7-.7s1.5-1 2.4-1.2c.4-.1.7 0 .9.3.5.7 1 1.3.9 2.2-.1.9-.2 1.9-.1 2.8 0 .3 0 .6.4.6.1.1.2.3.2.4v.5c-.1.6-.2 1.4-1.2.9-.1-.1-.1-.2-.1-.3.4-.6.2-1.4.3-2.1z" fill="#ada4a4"/><path class="st3" d="M324.1 122.4c.7 1.2.6 2.7 1 4 .1.4-1.2 2.3-1.6 2.4-.6.1-1-.3-.9-.8.2-1.4-.7-2.7-.2-4.2.4-1.1-.9-2.2-2.2-2.1-.7.1-1-.6-1.6-.7-.7-.1-1 .1-1.2.7-.1.4 0 .8-.4 1.2-.4.3.2.5.4.6.8.5 1.6.9 2.3 1.3.5.3.8.7.8 1.3 0 .9.3 1.6.5 2.4.2.8.4 1.4 1.2 1.8.8.4.9 1 .3 1.7-.8.9-.8 2.4-2.2 2.9-1.1.3-2 1.1-3.1 1.5-.6.2-1.2.4-1.9.4 1.4-.8 3-1.2 4.2-2.3.7-.6.8-1.8.1-2.4-.6-.5-1.1-1.2-1.8-1.6-.9-.6-.7-1.7-.6-2.4.1-1.3-.5-2.1-1.2-2.8-1.4-1.4-2.3-2.9-2.3-4.9 0-1.1.2-1.2 1.3-.9.3.5.6 1 .9 1.6.1.2.2.6.6.5.3-.1.5-.4.4-.8-.3-.9-.1-1.8-.1-2.7.5-.2.9.2 1.2.5.4.5.9.6 1.4.3.4.3.6.7.8 1.1.2.4.4.8.8.6.5-.2.3-.6.2-1-.1-.2-.2-.4-.2-.7 1.1 1 1.6 2.2 1.8 3.6.3 1.5.5 3.1.5 4.7 0 .3-.1.7.3.8.4 0 .5-.3.5-.7.2-1.8.3-3.3 0-4.9z"/><path d="M281.2 98c-.8-.2-1.5-.6-2.1-1.1 0-.5.4-.5.7-.7 1.5-.9 3.2-.8 4.8-.9 3.1-.2 5.9-1.3 8.5-3 .6-.4 1.2-.7 1.8-.8 2.9-.6 5.3-2.1 7.8-3.6.5-.3 1-.6 1.6-.8 2-.5 3.9-1.3 5.7-2.4.3-.2.6-.4 1-.3.7 1.3.6 1.7-.6 2.4-.3.2-.6.3-.9.4-1.8.8-3.3 2-5 2.8-1.6.7-3.2 1.5-4.9 2-.6.2-1.4.4-1.8.8-1.6 1.6-3.7 2.1-5.6 3.2-1.4.8-3.1 1.1-4.7 1.1-1.4-.3-2.9.1-4.3 0-.8.2-1.3.7-2 .9z" fill="#847577"/><path d="M295 91.7c-2.1.9-4 2.4-6.2 3.1-1.8.5-3.6.9-5.5.8-1.5 0-2.9.5-4.2 1.2-1.2-.1-.6-.8-.4-1.3 2-1.1 4-2.4 6.2-3.2.8-.6 1.7-.8 2.6-.3.8.4 1.6-.1 2.4.1h1.3c.2-.4.5-.6.9-.6.9-.1 1.9-.1 2.9.2z" fill="#554a4b"/><path d="M281.2 98c.6-.9 1.5-1 2.4-.8.5.1.9.3 1.3-.2.2-.2.5-.1.7 0 .6.2 1.2.2 1.8.2 1.4-.1 2.6.7 4 .4.3-.1.6 0 .9.3-.5.5-.6.8.2.9.6.1 1.2.3 2 .6-.7.4-1.3.2-1.8.2-.9-.1-1.6-.1-2.2.8-1 1.6-1.1 1.5-2.9 1.1-.4-.1-.9-.6-1.4 0-1.5-1.4-3.3-2.5-5-3.5z" fill="#b08c8e"/><path d="M315.8 113.6c2 .4 4.1.5 6.1.8 2.5.5 5.1.3 7.9 0-1.5-1-2.6-1.9-3.6-3-1.2-1-1.7-2.4-2.4-3.7-.2-1.3-.9-2.4-1.1-3.7-.1-.4-.2-.8-.2-1.3 0-.3 0-.8.5-.8.4 0 .4.4.5.7.8 2.5 1.8 5 3.5 7.1.7.9 1.6 1.7 2.4 2.5.3.3.6.5 1 .5.5-.1 1 .1 1.4.4.4.2.7.3 1.1 0 .4-.2.7-.5 1.1-.7.4-.1.5-.5.8-.7.2-.1.4-.3.6-.1.2.2.1.4 0 .6-.3.5-.6 1-1 1.3 0 .1 0 .1-.1.2-.3.2-.1.6-.2.8-.3.1-.7.2-1 .2-3.2 0-6.4.5-9.6.2-2.5-.2-5.2-.5-7.7-1.3z" fill="#586a73"/><path class="st43" d="M275.7 96.4c-.3.4-.7.7-1 1.1-.1.1-.3.3-.2.4.1.2.4.2.6.1.7-.3 1.3-.8 1.9-1.3.3-.3.6-.8 1.1-.8-.5.6-.5.9.3 1.3 2.9 1.3 5.6 3 8 5 .3.2.6.4.6 1-1.3-.6-2.6-1.1-3.9-1.7-.7-.3-1.3-.8-2-.8-.7.2-1.1-.5-1.6-.7-.6-.4-1.1-.9-1.7-1.4-.7-.6-1.3-.6-2 0-.4.3-.8.7-1.2.9-.6.4-1.2.4-1.6-.2-.4-.6 0-1 .4-1.4.5-.4.9-.8 1.3-1.2.2-.2.5-.6 1-.3z"/><path d="M284 103.5c1.6-.2 2.5 1.1 3.6 1.9.2.1.3.2.6.2 1.4-.3 2.3.2 2.7 1.7.1.3.1.7.5.7s.3-.4.4-.6c.3-.8.6-.3.9 0-.2.3-.4.7-.5 1.1-.1.1-.2.3-.3.4-.2.2-.5.3-.7.2-.8-1.6-2.4-2-3.8-2.8-2.1-1.1-4.1-2.3-5.8-4-.2-.2-.3-.4-.2-.7.4-.2.7.1 1.1.3.5.4 1.3.7 1.5 1.6z" fill="#6a6a6a"/><path class="st45" d="M292 108.4c0-.5 0-1 .7-1 .4 1 1.3 1.7 1.5 2.7.1.5.3.5.6.2.1-.1.1-.2.2-.2.5-.2 0-1.3.9-1.1 1 .2 1.7 1.2 1.8 2.2v3c-.7-.2-.4-.8-.5-1.2-.2-.8.3-1.6-.4-2.3-.7-.5-1.3-.4-1.8.3-.2.3-.4.6-.9.5-.4-.1-.4-.6-.4-.9 0-.6-.4-1-.8-1.4-.4-.3-.8-.4-.9-.8z"/><path class="st3" d="M319.2 118.7c-.4.8-.8.7-1.3.1-.3-.4-.7-.7-1.2-.9-.3-.5-.6-1-.9-1.7 1.1.2 2.1 0 2.4 1.3.1.5.7.8 1 1.2z"/><path class="st46" d="M282.3 101.8c-.4 0-.7-.3-1.1-.2-.1.1-.3.1-.4.1-.6-.6-1.5-.8-1.7-1.7.1-.2.3-.3.5-.1l1.5.9c.3.4.9.5 1.2 1zm1.7 1.7c-.4-.7-1.3-1-1.7-1.7 1 .1 1.7.6 1.7 1.7z"/><path d="M323.3 66.2c-1.8-.2-3.7.5-5.5 0-.2-.1-.6.1-.8.2-1.3.7-2.7.6-4 1-.5.1-1 .1-1.1-.7 0-.4-.4-.6-.8-.7-1.6-.5-2.2-1.7-1.8-3.2.1-.4.2-.7-.1-1-.3-.2-.7-.2-1 0l-1.8.9c-.4.2-.9.5-1.2.2-.3-.3.3-.6.4-1-.1-.3.2-.4.4-.6.6-.3 1.1-.7 1.7-.9l1.2-.6c.8-.6 1.4-1.4 2.2-2-2 .7-4.1.8-6 1.8-2.7 1.4-5.6 2.5-8.2 4.1-1.8 1.1-3.4 2.4-5.2 3.4-2.3 1.3-4.5 2.8-7.1 3.5-1.8.5-3.6.2-4.7-1.2-1.6-2.1-3-4.4-2.9-7.1 0-2.9.4-5.8 1.5-8.6.6-1.5 1-3 1.4-4.5.2-.6.1-1.3 0-1.9-.2-.8-.6-1.1-1.4-1.2-1.1 0-2.1.2-3 .7-.4.2-.9.5-1.4.6h-.2c-.7-.4.1-.6.2-.7 1.4-.8 2.8-1.7 4.3-2.1.3.6.9.4 1.4.4 1.8-.1 3 .8 2.6 2.6-.4 2.1-1.2 4.2-2.1 6.1-1.9 4.1-2.2 8.1 0 12.1 1.2 2.3 3.4 3.5 6.3 2.8 2.4-.6 4.3-2 6.3-3.3 3.8-2.5 7.8-4.7 11.9-6.7 1.1-.5 2.3-.9 3.4-1.2 1.8-.4 3.6-1.1 5.3-1.8.6-.2 1.1-.4 1.8-.4.3 0 .7 0 .7.3.1.3-.2.6-.5.8-1 .5-1.9 1-2.9 1.6-.4.2-.8.5-1.2.7-1 .7-1 .7 0 1.2.5.3.4.7.2 1.1-.8 2.2-.6 2.8 1.5 3.7.2.1.5.2.6.4.3.3.4.9 1 .8 1.5-.2 3.1.5 4.5-.4.9-.3 1.9-.4 2.8-.5 2.3-.3 4.6-.8 6.9-1.3.6-.1 1 .3 1.3.7.2.3.3.6.8.6.1.1.1.2 0 .3-1.1.5-2.2.6-3.4 1-.3 0-.6.1-.8-.1-.8-.8-1.7-.4-2.5-.1-.3.2-.7.4-1 .2z" fill="#aaa9a9"/><path class="st43" d="M331 65.1v-.2h.2c-.1.8-.4 1.2-1.1 1.7-1 .8-1.9.6-2.9.7-1.3.1-2.7.3-3.6 1.6-.1.2-.3.3-.5.3-1.5 0-2.7.8-3.8 1.7-.5.4-1.1.2-1.6.5-2.3 1.3-4.8 2.5-6.9 4.2-1.3 1.1-3 1.7-4.6 2.4-2.3 1-4.4 2.5-6.6 3.7-3.7 2.1-7.3 4.4-10.9 6.7-2.6 1.6-5.3 3.2-7.9 4.9-.6.4-1.1.7-1.8.9-.1-.6.4-.8.7-1.1 5.2-4.2 10.9-7.5 16.7-10.5 1.2-.6 2-1.5 3.1-2.2 3.1-1.9 6.2-3.8 9.6-5.2 1.5-.6 3-1.3 4.3-2.4.5-.5 1.2-.8 1.9-1 1-.4 1.7-1 2.3-1.8 1-.8 2.3-1 3.4-1.8 2.1-1 4.3-1.7 6.6-2 1.2 0 2.4-.2 3.4-1.1z"/><path class="st43" d="M295 91.7c-1.3 0-2.6-.2-3.9.4-.9-.5-1.8-.9-2.8-1.1-.2 0-.5.1-.5-.2 0-.2.2-.4.4-.4.3-.1.6-.4 1-.2 1.4.7 2.9.7 4.3 1 1.1.3 2.1-.1 3.2-.4.3-.1.6-.1.6-.5-.1-.4-.4-.4-.8-.3-1.8.4-3.6.4-5.4-.1-.3-.1-.8-.1-.9-.4-.1-.4.5-.4.8-.6.2-.2.5-.3.7-.5.3-.4.6-.3 1 0 1.4 1.1 3.1.9 4.8.9.3 0 .6-.2.5-.5-.1-.3-.4-.2-.6-.1-1.3.2-2.6 0-3.8-.4-.6-.2-.6-.4-.2-.9 1-1.2 2.5-1.6 3.8-2.3 1.4-.8 2.8-1.5 4.3-1.9.2 0 .3-.2.4-.3 1.1-1.4 1.9-1.6 3.5-.7.2.1.4.3.7.3.4 0 .9.2 1.2-.1.3-.4-.3-.7-.4-1-.1-.3-.5-.5-.2-.8.3-.3.7-.4 1.1-.2.1 0 .2.1.3.1.5.1.9.8 1.4.2.6-.6-.2-1.1-.4-1.6-.4-.8-.4-1.2.6-1.4.7-.2 1.3-.5 1.9-.9.7-.6 1.6-1.1 2.6-.5.3.2.7.2.8-.2.1-.6-.5-.4-.8-.7.9-.8 2-1.4 3.2-1.5.4 0 .6 0 .7-.6.1-.6.7-.6 1.2-.4 1 .5 2 .2 3.1.2.2 0 .4-.1.4-.5-.7.2-1.4 0-2-.1-.2 0-.5-.1-.5-.3 0-.2.3-.3.4-.4.4-.2.8-.1 1.3-.1 1.2-.1 2.3-.3 3.7-.8-.7-.4-1.1-.3-1.6-.1-.2.1-.4.1-.4-.2 0-.1.1-.3.2-.3.8-.3 1.4-1 2.2-1.4.8-.4 1.6-.6 2.5 0 .8.5 1.5.3 1.9-.4 1.2-1.8 2.3-3.7 2-6 0-.2 0-.4-.2-.6v-.5c0-.1 0-.3.2-.4.8 1.4-.2 3 .6 4.5.9-.7 1.4-1.7 1.6-2.8.1-.3-.1-.6.2-.8.5-.6.4-1.3.5-2 .1-.3-.2-.9.5-.7.1 1 .1 2 .1 2.9-.2.7-.4 1.4-.3 2.2.2 1-.3 1.8-.7 2.6-.8 1.6-1.8 3.1-2.7 4.6-.1.2-.2.4-.6.4 0-1.2 1.1-2 1.1-3.4-1.2 1.3-1.8 2.7-2.7 4-1 1.4-1.8 3-3.1 4.2-.7.6-1.5 1-2.3 1.6-.2.2-.4.2-.6 0-.2-.2-.1-.4 0-.6.3-.6.8-.9 1.2-1.4.1-.1.3-.3.1-.4-.2-.2-.4-.1-.5 0-.9.9-1.8 1.7-2.7 2.6-.6.9-1.7 1-2.5 1.5-1.7.7-3.3 1.7-5 2 .1 0 .3-.1.5-.1.4 0 .9-.2 1.1.3.2.4-.2.7-.5 1-.1.1-.2.1-.3.2-.9.4-1.8.4-2.8.6-.6.2-1 .8-1.7.9-2.3 1.4-4.9 2.2-7.4 3.2-1.8.7-3.5 1.9-5.2 2.8-1.1.3-2.2.7-3.4.8z"/><path d="M337.6 70.2c.1.2.2.4.4.5.5.4.3.6-.1.8.4 1.8 1.2 3.6 1.7 5.4.1.2.1.3 0 .4-.2.1-.3-.1-.4-.2-.4-1.1-.6-2.3-1.4-3.3-.2.4.1.8.1 1.1.2.9.4 1.8.7 2.7.1.3.3.6-.1.8-.3.1-.5-.2-.7-.4-.1-.2-.3-.3-.4-.5l-.3-.6c-.2-.6-.6-1.1-.8-1.6-.1-.2-.3-.5-.5-.6-1.2-.8-2 .5-3 .7-.7.1-.4.8-.3 1.4.6 2 2 3.5 2.7 5.5.1.4.3.8.3 1.2.1 1.5.7 2.9 1 4.4.2.3.2.6.3 1 0 .5.1 1.1-.2 1.6-.4.1-.7.2-.7.7 0 .8-.2 1.6-.2 2.4 0 .4.1.9-.5 1-.5-1-.3-2.1-.2-3.1.2-2-.1-4-1-5.8-.7-1.3-1.8-1.4-2.7-.3-.8.9-1.1 2.1-1.3 3.2-.4 2.4-.2 4.8 0 7.1.2 1.4.9 2.6 1.6 3.8-.3.6-.6.2-.8 0-.4-.3-.7-.7-1.1-1-.3-.3-.5-.7-.5-1.1-.4-1.9-.3-3.8-.3-5.7 0-2.9.1-5.8 2.6-7.9.2-.1.2-.4.3-.6.3-.7.7-1.3.2-2.1 1.1-.9.4-2 .1-3-.1-.6-.4-1.1-.5-1.7.1-.5-.1-.9 0-1.4.3-1.3 1.5-1 2.3-1.6.6-.5 1.5-.5 2.2 0 .4.3.6 0 .9-.4.7-.9 1-1.7.2-2.7-.5.1.1 0 .4-.1z" fill="#80969f"/><path d="M311.1 84.6c.4-.5.9-.9 1.5-1.1 1-.2 2.1 0 3-.6 1.3-.6 2.6-1.4 3.7-2.3.2-.1.5 0 .6-.4.2-1 1.2-1.1 1.9-1.3.5-.2 1.1.1.9.7-.6 1.6-.2 3.2-.5 4.8v.2c-.1.1-.1.1-.2 0-.1-.8-.5-1.4-.9-2-.1-.2-.3-.3-.5-.3-.6-.1-2.6 1.1-2.8 1.7-.1.4-.3.6-.8.4-.3-.1-.5-.1-.8-.2-1.3.1-2.3.6-3.2 1.5-.7.7-1.7 1-2.5 1.6-.3.2-.6.2-.9-.1.2-.1.4-.3.6-.4.9-.4 1.5-.8.8-1.9-.1 0 0-.2.1-.3z" fill="#8b8889"/><path d="M331.4 76.7c.6 1.1 1.1 2.2 1.3 3.4.1.7 0 1.2-.8 1.3-2.2.6-4.3 1.4-6.4 2.5-.1.1-.3.1-.4.1-1.3.3-1.3.2-1.3-1.1-.2 0-.3.3-.6.2-.1-.2-.1-.3 0-.4.1-1.1.6-2 1.1-3 .1-.2.2-.4.5-.3.2.1.1.4.1.6-.1.7-.8 1.5-.2 2 .6.4 1.2-.4 1.7-.7 1.2-.7 2.5-1 3.9-.8.5 0 .7-.1.8-.7.4-1.1.3-2.1.3-3.1z" fill="#527c87"/><path class="st51" d="M322.2 84.4c.1-1.5-.3-3.1.4-4.6.1-.1 0-.4-.1-.5-.3-.3-.6-.2-.8 0-.5.4-1.7.3-1.4 1 .4 1.3-.3.6-.7.6h-.3c-.1-.5.1-.9.4-1.3.8-.4 1.7-.9 2.5-1.3.7 0 1.1.4.8 1-.6 1.6-.6 3.2-.6 4.9l-.2.2zm-.2.2h.2c.1.5-.1 1.1-.2 1.6.5 0 .3-.4.6-.5l.1.1c.2.8.1 1.5-.3 2.2-.1.2-.3.4-.5.7-.3-1.4-.1-2.7.1-4.1z"/><path class="st51" d="M323.3 82.7v.4c.2 1 .2 1.9-.6 2.6h-.1c.1-1 .2-2 .7-3z"/><path d="M291.3 68.1c-.7.3-1.3.8-1.9 1.3-1.9 1.2-3.6 2.7-5.5 3.9-1.2.7-2.4 1.5-3.6 2-1.6.7-2.6.4-3.6-1.1-1-1.7-1.9-3.5-2.9-5.1-1.4-2.2-1.4-4.5-.8-6.9.7-2.8 1.7-5.5 2.4-8.2.3-1.2.6-2.4.4-3.7-.1-1.2-.6-1.7-1.8-1.5-.8.1-1.6.4-2.2 1-.1.1-.2.1-.3.2-.4.2-.8.4-1.3.4s-.9-.2-.6-.9c.1-.3.4-.5.6-.6h.4c.1.2.3.5.6.2.7-.7 1.9-.8 2.5-1.7.4-.2.9-.3 1.3-.3 1.6-.2 2.8.7 2.8 2.3 0 1.8-.5 3.5-.9 5.3-.7 2.4-1.4 4.9-1.9 7.4-.3 1.8-.2 3.5.7 5.2 1 1.8 1.8 3.7 3.1 5.3.7.9 1.2 1.1 2.3.8 2.1-.6 3.9-2 5.7-3.1 1.6-1 3.1-2.1 4.8-3 .2 0 .3 0 .5.1.2.4-.6.4-.8.7z" fill="#898989"/><path class="st31" d="M267.7 51.4c.2-.6.7-1.1 1.3-1.3.2.4.3.8.9.5.5-.3 1.1-.5 1.7-.9.6-.5 1.3-.8 2.2-.6 1.3.3 2.1 1.5 1.8 3.1-.4 2.3-1 4.5-1.8 6.7-.9 2.2-1.6 4.5-1.5 7 .1 1.6.6 3 1.4 4.3 1 1.5 2 3 2.8 4.7.6 1.4 1.4 1.6 2.8 1 1.9-.8 3.6-1.9 5.3-3.1.3-.2.6-.7 1.2-.5.1.5-.4.8-.7 1-2.1 1.4-4.1 3-6.4 4.3-1.2.7-1.8.6-2.8-.4-.4-.4-.8-.8-1-1.4-.7-1.5-1.5-2.9-2.5-4.2-2.1-2.8-2-6-1.3-9.2.3-1.3.7-2.5 1.3-3.7.7-1.6 1.1-3.2 1.5-4.9.1-.5.1-1.1 0-1.6-.2-1.1-.9-1.5-2-1.2-1.1.3-2.2.8-3.3 1.3-.7.1-.9-.1-.9-.9z"/><path class="st24" d="M267.7 51.4c0 .9.5.7 1 .5 1-.5 1.9-1 3-1.4 1.3-.4 2.3.1 2.4 1.5.2 1.7-.4 3.3-.9 4.9-.6 1.9-1.6 3.7-2 5.6-.5 2.9-.9 5.8 1 8.2 1.5 2 2.3 4.6 4.1 6.4.5.5 1.1.6 1.7.3 2.5-1.3 4.8-3 7.1-4.6.2-.1.3-.4.5-.6.5-.6 1-1.2 1.9-1.3h.4c-1.4 1.3-3 2.4-4.5 3.5-1.9 1.4-3.9 2.6-5.8 3.9-1.2.8-2 .8-2.5-.5-1.1-2.8-3.3-5-4.5-7.8-1.1-2.4-.8-5-.2-7.5.6-2.7 1.9-5.2 2.5-7.9v-.1c.2-1 .3-2-.6-2.6-.9-.6-1.8-.4-2.8 0-.5.2-.9.5-1.4.6-.3.1-.8.2-1-.1-.1-.5.3-.8.6-1z"/><path class="st53" d="M271.6 49.7c-.4.6-1 .8-1.6 1.1-.3.1-.6.5-1 .3-.4-.3.1-.6 0-1 .1-.3.4-.5.6-.6 0 .7.4.7.9.6.4-.1.7-.3 1.1-.4z"/><path d="M337.2 76.9c.1.1.2.3.2.4 1.9 2.8 2.5 5.9 2.7 9.2 0 .9.5 1.9-.1 2.8 0 1.5.6 2.9.8 4.4.1.5.1.9-.6 1-1.2.4-1.5.3-1.8-1-.4-1.7-1.3-3.2-1.4-5 0-.5-.2-1-.7-1.4-.7-.7-.7-1.7-.9-2.6-.3-1.6-.5-3.2-.8-4.8-.2-1.1.2-2 .8-2.9.6-.7 1.2-.7 1.8-.1z" fill="#f5f5f6"/><path d="M336.6 87.2c.7.6.7 1.5.8 2.3.3 1.8 1.2 3.3 1.6 5 .1.2.4.5.5.1.3-1.1.5 0 .7 0 .4 1.1-.2 2.2-.3 3.3-.2 1.7-.7 3.3-1.3 4.9-.1.3-.2.5.1.8.3.3.2.7 0 1-.3.6-.5 1.3-.8 2-.2.4-.3.8-.8.4-.2-1.1.3-2.1.6-3.1s.7-2.1 1.1-3c-.5.8-.3 1.9-1.3 2.5-.7-.1-.6-.6-.5-1.1.2-1.2.2-2.5.4-3.7.3-1.5.3-2.9-.8-4.2-.8-.9-.4-2.3-.2-3.4.1-.7.2-1.3 0-2-.1-.3-.2-.6-.2-.9-.3-.5 0-.7.4-.9z" fill="#b9d8e4"/><path d="M339.1 77.2c.2.1.5.1.5-.2 2.1 3.2 3.6 8.8 3.4 12.6-.6-2.3-1.3-4.4-1.6-6.6-.4.5-.2 1.1-.3 1.7-.5-2.7-1.5-5-2-7.5z" fill="#cfcdce"/><path d="M340 89.4c-.1-3.3-.4-6.5-1.5-9.6-.3-.8-1-1.5-1.1-2.4.4.2.4.8 1 1-.2-1.2-.8-2.2-.6-3.3 0 0 .1 0 .1.1 1.2 4.6 2.8 9.1 2.7 14 0 .4 0 .8-.6.2z" fill="#add1df"/><path class="st58" d="M337.2 107c.1.1.3.2.3 0l1.2-3.3c.7-1.5 1.2-3.2 1.8-4.8 0 1.4-.2 2.8-.7 4.1-.5 1.3-1 2.5-1.5 3.8-.1.2-.4.6.3.5.3.4-.1.8-.2.8-.9 0-1.1.8-1.5 1.3-.2.2-.4.5-.7.2-.1-1 0-2 1-2.6z"/><path class="st22" d="M336.2 109.7c.3-.1.4-.5.6-.7.4-.4.3-1.3 1.3-.9.2.1.5-.4.5-.7.4 0 .4.2.2.4-.9 2-2.6 3.5-3.7 5.3-.1.2-.4.2-.5.3.3-.6.7-1.2 1.1-1.8-.7.2-.7 1-1.3.9-.2-.4.1-.7.3-.9.4-.6.9-1.3 1.5-1.9z"/><path class="st58" d="M338.7 107.8c0-.2 0-.3-.2-.4 1-2 2.3-3.9 3-6.1-.4 2.4-1.6 4.4-2.8 6.5z"/><path d="M333.2 126.9v-.2c-.4-.3-.6-.1-.8.2-.7.7-1.1 1.6-1.9 2.1-.2.1-.5.1-.7.2-.3.1-.6.3-.9 0-.4-.3-.1-.5 0-.8.2-1.5-.4-2.9-1-4.3-.3-.7-1.1-1.3-.9-2.2.5-.1.6.3.9.6.9 1.2 1 2.6 1.4 3.9.1.3 0 .7.5 1.1.3-1.9-.1-3.6-.7-5.3-.1-.4-.5-.7-.3-1.2.3 0 .6 0 .6-.4 1.8 1.7 3.3 3.7 4.1 6.2-.2.1-.2.1-.3.1z" fill="#5b5a5a"/><path class="st12" d="M328.2 119.6c-.5-.1-.7-.4-.8-.8 0-.2-.3-.5 0-.6.2-.1.5-.1.7.1-.3.2-.5.3-.2.6.2.2.3.4.3.7z"/><path d="M334 124.2c-.1-.7.2-1 .8-1 .3 0 .8 0 .6.5-.2.6-.4 1.4-1.1 1.5-.4.1-.2-.7-.3-1z" fill="#bfbebe"/><path d="M255.5 75.8v-.2c.4-1 .7-2 1-3 0-.7.2-1.3.6-1.8.6-1.2 1.3-2.5 2.1-3.6.4-.5.8-.9 1.4-.7.7.2.7.8.7 1.3.3 2 1 4 .8 6 0 .4.1.7.3 1 .1.2.3.4.3.7 0 1.9 1.2 3.3 1.6 5.1.1.4.1.7.4 1 1 .9 1.5 2.3 2.5 3.2.5.5.8 1.2.9 1.9.7 2.6.4 5.2.2 7.8-.1.7-.1 1.3.2 1.9.7 1.5 1.3 3.1 2.3 4.4.6.7.9 1.4 1.1 2.3.6 2.5 1.8 4.7 2.7 7.1.6 1.4 1.8 2.5 2.9 3.6 2.1 2 4.3 4 6.4 6.1 1.7 1.8 3.7 3.2 5.6 4.8.4.3.8.5 1.2.7.5.3 1.3.4.6 1.2-.1.1 0 .2.1.3 1.1.5.9 1.8 1.6 2.6.1.1.2.3.2.4-.5 1 .1 2.1-.4 3.1-.3.6-.5 1.2-.4 1.8 0 1.1-.4 1.5-1.5 1.6-2.1.4-4.1-.1-6-1-.8-.4-1.7-.6-2.7-.8-2.6-.5-4.9-1.8-7.2-3.2-3.5-2.1-6.5-4.9-9.3-7.8-1.6-1.6-3.2-3.2-4.6-5-.6-.8-1.2-1.6-1.6-2.5-1.1-2.2-2.3-4.4-3.4-6.5-1.3-2.5-2.1-5.3-2.4-8.1-.4-3.5-.9-6.9-.9-10.4 0-1.6.3-3 .5-4.5.5-3.8 1.1-7.3 2.2-10.8z" fill="#4c4b4b"/><path class="st46" d="M255.5 75.8c-.2 1.5-.7 3-1 4.5-.4 2.2-.6 4.5-1 6.7-.4 2.1-.5 4.1-.3 6.2.4 4.5.5 9 1.9 13.3.5 1.3 1.2 2.6 1.9 3.8 1.3 2.3 2.4 4.7 3.8 7 .8 1.3 1.8 2.4 2.8 3.5 2.9 3.1 5.8 6.3 9.4 8.7 3.1 2.1 6.2 4 10 4.7 1 .2 1.9.5 2.8 1 1.9 1 3.9 1 5.9.7.7-.1.8-.8.7-1.3-.1-.5-.1-.9.1-1.3.4-.7 1-1.4.2-2.2-.1-.1 0-.3 0-.3 1-.8.2-1.4-.2-2-.4-.6-.2-1.6-1.2-1.8-.3 0-.4-.3-.4-.6.1-.6.6 0 .8-.3-.1-.7-.8-.4-1.2-.7-1.6-1.3-3.4-2.4-4.8-3.8-2.7-2.6-5.4-5.2-8.2-7.8-1.7-1.6-3-3.5-3.7-5.7-.6-2-1.7-3.8-2.1-5.9-.1-.4-.3-.6-.5-.9-1.3-1.5-2.1-3.3-2.7-5.2-.5-1.5.1-3.2 0-4.7-.1-2.6.3-5.3-2.1-7.2-.3-1.5-2-2.2-2.2-3.8-.1-.7-.4-1.3-.8-2-.4-.6-.7-1.3-.6-2.1v-.4c-1.3-1.5-.5-3.4-1-5-.3-1.2-.5-2.3-.7-3.5 0-.3-.1-.6-.5-.6-.4-.1-.7.1-.9.4-.7.9-1.3 1.8-1.8 2.8-.2.4-.3.8-.6 1.1-.3-.5.1-.8.2-1.2.4-1.2.9-2.4 1.6-3.5.3-.5.6-.9 1.1-1.2 1-.6 2-.1 2 1.1 0 .7.2 1.4.4 2 .5 1.5.6 3.1.6 4.7s.6 3 1.2 4.4c.4.9 1 1.8 1.4 2.8.1.1 0 0 0 .1 1.4 1.3 2 3.2 2.9 4.8.3.6.6 1.1.7 1.8.2 2.1.5 4.3-.1 6.4-.5 2 0 3.8 1.1 5.5.3.4.5.8 1.1.5h.1c1.4 1.3 2.8 1 4.2-.1.4-.3 1-.6 1.4.2h-.1c-1.4.2-4.2 3.2-3.6 4.8 1 2.7 1.6 5.5 3.3 7.9 1 1.3 2.2 2.3 3.4 3.3l4.2 3.6c2 1.8 4.2 3.3 6.5 4.6 2.6 1.4 5.3 2.6 7.7 4.4 2.2 1.6 2.2 3.1 1.1 5-.2.4-.6.7-1 .9-1.3.7-1.3 1.5-.1 2.3.3.2.8.4 1.2.5.3.1.5.3.5.6 0 .4-.2.5-.5.6-.8.2-1.6.5-2.4.5-6 .1-11.7-1.4-17.1-3.8-3.3-1.4-6.4-3.3-9.2-5.5-1.5-1.2-2.9-2.6-4.2-3.9-2.2-2.2-4.5-4.3-6.3-6.8-1.9-2.5-3.1-5.4-4.5-8.2-1.2-2.4-1.8-4.9-2.4-7.5-.1-.6.2-1.3-.3-1.9-.3-3.3-.5-6.6-.8-10-.1-1.5.5-2.9.7-4.4.3-2.6.9-5.2 1.5-7.8 0-1.1.1-2 .7-2.8z"/><path d="M271.6 99c-.2.5-.6 1-1 .3-.9-1.6-2.1-3.2-1.7-5.3.2-1.1.3-2.2.5-3.3.3-1.6.1-3.2-.4-4.4-.7-1.9-1.2-3.9-2.9-5.4-.7-.6-1-1.6-1.4-2.5-1.3-2.4-2-4.9-1.8-7.7.1-1.2-.6-2.3-.8-3.5-.1-.3-.2-.5-.1-.9.1-.5.1-1-.4-1.2-.5-.2-1-.2-1.5.2-.7.7-1.1 1.6-1.6 2.4-.5 1-1 1.9-1.2 3.1-.5.5-.6 1.1-.6 1.7-.1.1-.1.1-.2 0 .1-1.6.9-3 1.4-4.5 1-2.4 2.1-4.8 4.1-6.7.4-.4 1-1.1 1 .2 0 .1 0 .2.1.3.3.1.9-.2.8.2-.3 1.2.4 2.3.3 3.5-.2 3.4-.6 6.9 1 10.1.8 1.6 1.6 3.2 2.8 4.5.8.8 1.3 1.7 1.7 2.8 1.3 3.6 1.1 7.3.2 10.9-.3 1.2-.2 2.3.4 3.4.5.9 1.6 1 2.2.1 1.1-1.7 2.8-2.8 4.4-4 2.8-2.1 5.7-3.9 8.2-6.2 2.8-2.6 6-4.3 9.5-5.8 4-1.8 7.6-4.3 11.5-6.2 2.3-1.1 4.5-2.6 7-3.3 0 .6-.6.7-.9.9-2.9 1.4-5.6 3.3-8.4 4.9-1.9 1.1-3.9 2.2-5.7 3.6-1.7 1.3-3.7 2.1-5.7 3-3.7 1.7-6.8 4.2-10.2 6.5-2.3 1.6-4.5 3.2-6.7 4.9-1.4 1.2-2.4 2.6-3.9 3.4z" fill="#505050"/><path class="st63" d="M321 68.4c-1 .8-2.3.9-3.3 1.7-.3.2-.5.4-.8.2-.7-.1-1.3.1-1.9.4-.7.4-1.5.3-2.2.6-3.9 1.9-8 3.5-11.8 5.5-3.9 2-7.8 4-11.8 5.8-1.4.6-2.7 1.6-4 2.5-1.6 1-3.3 1.9-4.9 2.9-1.6 1-3.6 1.8-4.5 3.8-.5 1.3-1.7 2.1-2.7 3-.3.3-.7.6-1 .3-.3-.2-.1-.7 0-1 .4-1.2 1.2-2.3 2-3.3 1.3-1.6 2.5-3.2 3.9-4.6.3 1.2-.8 1.8-1 2.7 2.4-2.7 5.4-5.1 7.7-8 .6-.7 1.2-1.4 1.9-1.9 1.1-.7 2-1.5 2.9-2.3l.4-.4c.2-.2.5-.3.8-.1.2.2.1.5 0 .8-.1.2-.3.5-.6.7-.4.4-.8.9-1.1 1.4-.2.3-.5.6-.3 1 .3.4.7.1 1.1 0 3.1-.6 6-1.8 8.8-3.5 1.8-1.1 3.7-1.7 5.6-2.4 2.5-1.1 5-2.3 7.6-3.2 2.4-.9 4.8-1.9 7.4-2.4.4 0 1-.9 1.8-.2z"/><path class="st64" d="M316.9 70.3c.3-.2.5-.3.8-.2-.6.9-1.3 1.5-2.4 1.9-1.7.5-2.7 2-4.3 2.7-.6.2-1.1.6-1.7.8-3.3 1.2-6.3 2.9-9.1 4.8-2.3 1.5-4.6 3.1-7 4.4-3.1 1.6-6.1 3.4-9 5.4-1.8 1.3-3.7 2.5-5.3 4.1-1.1.8-2.3 1.4-3.2 2.4-1.1.4-1.6 1.5-2.5 2.1-.2.1-.4.5-.1.7.3.3.7.5 1.1.2.6-.5 1.2-.9 1.8-1.4.5-.4.9-.4 1.3-.1.7.6 1.5 1.2 2.2 1.8-.2 0-.3.1-.4.2-.4.1-.8-.1-1.1-.3-.2-.2-.5-.3-.6-.6l-.2-.2c-.6-.5-1.1-.2-1.5.2-.5.5-1.1.6-1.7.8-1.2.3-1.8-.2-2.3-1 0-.2.1-.4.3-.6 3.1-2.6 6.3-5 9.5-7.3l7.8-5.4c1.4-1 3-1.7 4.5-2.3 2.1-.9 3.9-2.2 5.8-3.4 3.7-2.3 7.3-4.8 11.2-6.7.8-.4 1.5-.8 2.2-1.3 1.3-.6 2.6-1 3.9-1.7z"/><path class="st65" d="M284.5 81c-1 1.4-1.9 2.9-3.3 4-1 .8-2 1.7-2.8 2.8-.6.8-1.5 1.3-2.3 1.9.5-1.2 1.4-2.1 1.7-3.4.6-1.3 1.8-2 2.7-3.1.6-.7 1-1.5 1.8-2-.1.7-.8 1.1-.7 1.9 1.3-.3 1.8-1.5 2.9-2.1z"/><path class="st46" d="M256.4 72.6h.2c-.2 1.1-.5 2.1-1.1 3 .2-1 .4-2 .9-3z"/><path class="st65" d="M286.4 76.7c-.4 1-1.2 1.5-1.9 2.1.3-.9 1.2-1.5 1.9-2.1zm-1.9 2.2c-.4 1-1.2 1.5-1.9 2.1.3-1 1.1-1.5 1.9-2.1z"/><path d="M277.4 99.2c.3 0 .5.2.6.4-1.1.6-1 1.9-1.7 2.7-.1.2 0 .4.1.6.4.4.5.9.6 1.5.3 1 1.1 1.6 2.2 1.5 1-.1 1.8.1 2.7.6.5.3 1.1.7 1.7.9.3.1.5.3.8.5 1.2 1.3 2.5 2.6 4.3 3.2.9.5 1.8.9 2.8 1.1.8.2 1.6.5 2.2 1 1.9 1.3 4.1 2 6.2 2.7 1.8.6 1.8.6 2.5-1.1.5.3 1.1.6 1.5 1.2.3.6.3 1-.5 1.2-2.1.4-4.2.3-6.2-.6-2.3-1-4.6-2-6.5-3.6-.7-.6-1.6-1-2.5-1.3-.2.5.3.6.3 1-1.4-.1-2.4-1.3-4.1-1.4 1.2 1.1 2.2 2 3.6 2.6 2.2.9 4.3 1.9 6.3 3.3 1.5 1.1 3.1 2.1 4.6 3.2 1.6 1.1 2.9 2.5 4.1 4 .2.2.3.5.2.8-.2.4-.5.6-1 .7-1.2.2-2.3-.3-3.3-.7-4.6-1.8-9.2-3.7-13-7.1-.9-.8-1.7-1.8-2.3-2.9-.4-.8-.9-1.5-1.7-2-2-1.3-3.5-3.1-5-5-.6-.8-.5-1.9-1.2-2.7-.3-.3-.4-.7-.8-.9l-.2-.2c-.3-.2-.5-.4-.4-.7.4-1.1.1-2.5 1.5-3.2.1-.1.1-.2.2-.4.2-.8.8-.9 1.4-.9z" fill="#6a6969"/><path class="st32" d="M276.1 100.1c.1.2.3.4-.1.7-.8.5-1.5 2.6-1.2 3.6h-.2c-.7-1-.4-2.9.6-3.7l.9-.6z"/><path class="st24" d="M295.4 71.1c2.4-1.8 4.7-3.9 7.5-5.1.7-.3 1-.4.8.6-.1.6.3 1.2.7 1.6.1.2.4.3.4.5.2 1 .9 1 1.6.9.5 0 1-.1.8.8-.1.7.5.4.8.3 2.9-1.2 6-1.9 8.9-3.2.9-.4 1.7-.7 2.8-.5.7.1 1.5-.1 2.2-.2-.1.8-.8.8-1.4 1-2.9 1-5.8 2.2-8.7 3.1-2.6.9-5.1 2.3-7.7 3.2-1.3.4-2.7.5-3.9 1.2-1.1.7-2.3 1.3-3.5 1.8-.3.1-.7.3-1 .3-.6.1-1-.2-1-.8 0-.7-.1-1.3-.2-2-.1-.6.2-1.2.5-1.7.4-.6.7-1.1.4-1.8z"/><path class="st65" d="M295.4 71.1c.4 0 .7.1.5.6-.1.1-.1.3-.2.4-1.3 1.3-.8 2.9-.8 4.4 0 .7.4.8.9.6 1.1-.4 2.2-.8 3.2-1.4 1.3-.8 2.6-1.5 4.2-1.6 1.5-.1 2.9-.9 4.3-1.6 3.1-1.5 6.5-2.3 9.6-3.7 1.6-.7 3.3-.9 4.7-1.9.4-.3 1-.2 1.3-.6.5-.2.9-.4 1.4-.6.7-.3 1.5-.6 2.1.2.2.3.5.1.8.2.1 0 .1.1.1.1s0 .1-.1.1c-2.2.6-4.5 1.2-6.6 2.1-1.1-.1-2 .5-2.9.8-4.2 1.3-8.3 2.8-12.2 4.7-2.2 1-4.5 1.7-6.7 2.8-1.2.6-2.2 1.5-3.5 1.9-2.2.8-4.3 1.8-6.6 2.2-.3.1-.6 0-.8-.2-.3-.3-.1-.5 0-.8.4-1 1.1-1.8 1.9-2.6.2-.2.6-.5.3-.8-.3-.2-.5.2-.7.3-1 .9-1.9 1.9-3.3 2.3 1.2-1.1 2.4-2.3 3.6-3.4.3-.3.7-.5.9-.9 1.5-1.2 3-2.4 4.6-3.6z"/><path class="st31" d="M305.9 61.5c-.2.1-.3.3-.5.4-.6 0-.9.6-1.5.6.1-.3.5-.7-.2-.8.3-.5 1.5-1.1 2-.9.5.2.6.4.2.7z"/><path class="st53" d="M287.7 70.9c-.6.4-1.3.9-1.9 1.3-1.5.7-2.7 1.9-4.2 2.7-.8.4-1.6.9-2.4 1.3-1.1.5-2.2.2-2.7-.9-.8-1.9-1.9-3.5-3.1-5.2-1.5-2.4-1.7-5-1-7.7s2-5.2 2.5-7.9c.2-1.1.7-2.2.4-3.4-.3-1.4-1.3-2-2.6-1.6-.3.1-.7.2-1 .3.9-1.3 2.2-1.4 3.5-1.2.7.1.9.8 1 1.6.3 2-.5 3.8-.9 5.6-.5 2.1-1.3 4.1-1.8 6.2-.7 2.8-.6 5.3 1.1 7.7 1 1.5 1.7 3.1 2.7 4.6.8 1.2 1.6 1.6 2.9 1 1.2-.5 2.3-1.1 3.4-1.8 1.7-1.2 3.5-2.3 5.2-3.5.3-.2.5-.3.9-.4-.9.3-1.5.8-2 1.3zm18.2-9.4c.1-.2.2-.7-.3-.5-.6.2-1.4.1-1.9.7-.4.1-.7.3-1.1.4-2.2.4-4 1.5-5.9 2.6-1.9 1.1-3.5 2.5-5.5 3.4.1-.4.6-.5.9-.9.1-.5.5-.7.8-.9 3.7-2.7 7.7-4.8 12.1-6.2.5-.2 1.1-.4 1.7-.4.5 0 1.1.1.8.9-.5.2-.9.8-1.6.9z"/><path d="M302.5 114.9c.3 1.8-1 1.9-2.2 1.5-2.6-.9-5-1.9-7.4-3.2-1.1-.6-2.3-.9-3.5-1.4-.3-.1-.6-.4-.9-.5.6-.6 1.3-.6 2.1-.2l1.8.9c1.5.3 2.7 1.2 3.9 2 .9.5 1.9 1.1 2.9 1.4.3.1.8.4.9-.1.1-.4-.4-.5-.7-.6-.4-.1-.9-.1-1.1-.5.4-1.5.4-1.5 1.6-.6.8.4 1.7.8 2.6 1.3z" fill="#828383"/><path class="st68" d="M298.2 114c.5.1 1 .1 1.4.2.5.1 1 .5.8 1-.2.6-.7.4-1.1.3-1.1-.4-2.1-1-3.1-1.6.9-.7.5-1.7.5-2.6 0-.4-.2-.7-.1-1 .7 0 .6.5.7 1 .1 1-.2 1.9.2 2.9.3.2.5 0 .7-.2z"/><path d="M328.7 121.1c1 1.6 1.3 3.4 1.4 5.2.1.6.1 1.7-.5 1.7-.7.1-.5-.9-.6-1.5-.5-1.6-.6-3.3-2-4.6-1.1-1-2.3-2-3.3-3.1-.1-.2-.5-.3-.3-.6.2-.2.4-.1.7-.1 1.7.6 3.4 1.4 4.6 3z" fill="#353434"/><path class="st18" d="M330.4 129.1c.7-.8 1.3-1.6 2-2.4.2-.3.6-.5.8.1-.9 0-1.1.9-1.6 1.4-.4.2-.7.7-1.2.9z"/><path class="st43" d="M289.8 92.1c-1.1.6-2.2.4-3.2-.1-.7-.3-1.1.3-1.7.3.7-.7 1.4-1 2.4-.7.8.4 1.7.1 2.5.5z"/><path class="st34" d="M321.5 87.4v2.3c-.5-.1-.4-.3-.2-.6v-1.7h.2z"/><path d="M321.3 89.2c0 .2 0 .5.2.6.6.5 1.5.5 2 1.2.3.4.8.6.6 1.2-.6.1-.9-.4-1.4-.7-.7-.5-1.4-.6-2.2-.2-1.1.6-1.9 1.3-2.8 2.2-.7.7-.6 1.6-.2 2.5.5 1 1.3 1.5 2.3 1.6.9 0 1.7-.1 2-1.2.1-.5.5-.9 1.1-.5.1.8-.6 1.3-.7 2.1-.2 1.2-.1 2.5.1 3.7 0 .1.1.2.1.3 0 1.6.6 3.1 1.1 4.6.1.4.2.9.4 1.3l2.1 3.6c-.2.7-1.6 2.1-2.4 2.2-1 .1-1.8-.1-2.3-1.1-.8-1.3-1.9-2.3-2.5-3.7-.2-.5-.5-.9-.5-1.4-.1-.5-.3-.7-.7-.3-.5.5-.9.2-1.3-.2l-3.9-4.5c-.4-.5-.9-.9-.8-1.6 0-.3-.3-.6-.5-.8-1.3-1.3-1.9-3.8-1.2-5.5.4-1 1.2-1.5 2.1-1.9 1.1-.4 2.1-1 3.2-1.4 1.6-.6 2.9-1.8 4.4-2.6 1-.5 1.4-.4 1.7.5z" fill="#ede6e6"/><path d="M309.6 87.2c1.2-.2 2.3-.6 3.1-1.5.7-.7 1.4-1.3 2.4-1.6.4-.1.8-.3 1.2.1-1.1 1-2.7 1.5-4 2.3-1 .6-2 1.3-2.7 2.2-1.6 1.9-3.8 3-6.1 3.9-3.1 1.2-6.1 2.4-9.1 4-.7.4-1.3.8-2 1.2-.7 0-1.3 0-2 .2-.4.1-1 .4-1.2-.4-.1-.3-.4-.1-.6-.2-.4-.1-.8.1-1.1-.2 1.9-.1 3.7-.5 5.4-1.5.8-.5 1.6-1.1 2.6-1.1.2 0 .4-.2.5-.3 1.3-1.5 3.1-2.1 4.9-2.6 2.2-.7 4.1-1.9 6.1-3 .9-.6 1.6-1.2 2.6-1.5z" fill="#978b8c"/><path d="M322.5 88.9v-.4c.1-.2 0-.5.1-.7.1-.1.1-.3.2-.4 1.1-1.4 1.4-1.5 2.8-.2l1 1c.8.9.9.9 1.5-.2.3-.5.5-1 .9-1.3.3-.2.4-.2.5.2-.8 2.5-.7 5-.5 7.5.1.9 0 1.9.2 2.8-.2.6-.6.3-1 .3-1.2-.2-2 .2-2.6 1.2l-.6.9c-.5 1.1-1.4 1.5-2.5 1.1-.3-.7-.2-1.2.3-1.7 1.3-1.5 2.1-3.2 2.6-5.1.5-1.9-.4-3.4-1.5-4.8-.5-.8-1-.1-1.4-.2z" fill="#84c5d6"/><path class="st73" d="M322.5 88.9c1.1-1 1.2-.9 2.1.4 1.8 2.6 1.2 5.1-.2 7.5-.5.9-1 1.8-1.7 2.4-.4.3-.3.8-.2 1.2.2.2.2.5.2.8 0 .2-.1.3-.2.5-.6-2.1-.6-4.1.6-6 0-.1.1-.3.2-.4 1.1-.9 1.2-2 .9-3.3-.3-1-1.2-1.4-2-1.8-.2-.1-.6-.1-.5-.5.7.4.6-.3.8-.8z"/><path d="M322.7 87.9c0 .2 0 .5-.2.7v-.5c.1-.8.2-1.5.3-2.3.4-.8.4-1.7.6-2.6.3-.2.2-.8.6-1 .2 0 .2.2.2.4.1.5-.5 1.1 0 1.3.5.2 1.1-.1 1.7-.3.5-.2 1.1-.4 1.5-.8 1.4-1 3-1.1 4.5-1.4 1.3.7.3 1.3 0 1.9-.9 0-1.3.9-2.1 1.1-1.2.1-2.3.3-3.5.3-1 0-1.7.6-2.4 1.3-.5.6-.9 1.2-1.2 1.9z" fill="#5e9fb0"/><path class="st3" d="M315.1 122.5c-.5-.3-.7-.6-.5-1 0-.1.2-.1.3-.1.4.2.2.6.2 1.1z"/><path d="M322.4 101.8c0-.2.1-.3.1-.5.2-.8.6-.5.9-.1.4.6.7 1.3 1.1 1.9.2.3.4.6.7.5.4-.1.5-.5.4-.9-.2-1 .4-1.6.9-2.3.2-.3.6-.6 1-.4.5.1.5.6.5 1s-.1.9.4 1.1c1.4.6 1.5 1.7 1.3 3 0 .2-.1.4 0 .7.4-.2.4-.6.5-.9.2-.4.4-.8.9-.8s.7.5.7.9c.1.6.3 1.2.5 1.7v.3c-.2 1-.5 2.1-.7 3.1 0 .2-.1.3-.2.5.3-.4.7-.5 1.1-.6.5-.1.7.2.8.7.2.9.1 1.7-.4 2.4-.1.2-.4.5-.6.4-1.1-.8-2.5-.4-3.6-1.4-2.8-2.7-4.6-5.9-5.7-9.6 0-.2 0-.5-.3-.4-.1 0-.1.3-.2.5-.2-.1.2-.6-.1-.8z" fill="#288bb1"/><path d="M333.2 113.2c-.1-.1-.2-.3-.2-.3.8-.6.1-1.5.2-2.2.2-.7-.6-.3-1-.2-.3 0-.8.7-.8-.3.5-1 .7-2.1.9-3.2v-.2c-.2-.6-.4-1.3-.2-2 .5-.1.6-.1.6.5.1.9.3 1.8.4 2.7.7-.8 1.3-1.6 1-2.9-.3-1-.5-2.1.2-3.1.3-.5.5-1.1 1.3-1 .8.2 1.4.9 1.4 1.7 0 .5-.2 1.1.7.6l1.2-3.3c.1 0 .2.1.3.1-.3 2.4-1.7 4.5-1.9 6.9-.6.9-.9 1.8-1.1 2.8-.1.8-.7 1.2-1.2 1.7-.3.3-.5.6-.7 1-.4.2-.7.7-1.1.7z" fill="#5ea9c7"/><path class="st73" d="M322.4 101.8c.3.2.1.6.4.8.2 1.3.6 2.6 1.1 3.8.2.4.3.9.3 1.3-1-1.8-1.5-3.8-1.8-5.9z"/><path d="M296.7 110.4c.8 1 .4 2.2.4 3.3 0 .5-.5.3-.8.4-1.3-.6-2.4-1.6-3.9-1.9-1.3-1.2-3.1-1.2-4.6-1.9-.3-.1-.7-.1-.9-.4-.7-.9-1.8-1.3-2.7-1.9-.2-.1-.4-.3-.6-.4-1.8-1.3-3.9-2-5.7-3.2-1.1-.8-1.2-1.6-.2-2.6.1-.1.3-.2.3-.4.4-1.1.7-1.2 1.7-.6.4.2.7.6 1.1.8h.4c1.4 1.1 2.7 2.3 4.3 3.2 1.4.8 2.9 1.5 4.3 2.2.8.4 1 1.1 1.3 1.9.3.1.3.4.2.7.1-.4.3-.7.4-1 .1-.1.1-.2.2-.2 1.1.4 2 1 1.9 2.4 0 .2 0 .5.2.5.2.1.3-.2.5-.4.6-.7 1.2-1.3 2.2-.5z" fill="#a8a8a8"/><path class="st45" d="M291.8 108.7c0 .5-.3 1 0 1.7-.9-.4-.5-1-.7-1.5.2-.1.4-.2.7-.2z"/><path d="M280.8 101.6c-.7-.1-1-.8-1.7-.9-.5 0-1.1-.2-.8.7.1.4-.1.5-.4.6-.5.1-.7.4-.7.9-.1.5.2.9.6 1.1 1.7.8 3 2.2 4.8 2.6.4.1.7.5 1 1-.9-.1-1.5-.7-2.2-1.1-.7-.4-1.4-.5-2.2-.4-1.3.1-2.4-.7-2.5-1.9 0-.5-.2-.8-.5-1.1-.3-.3-.4-.5-.2-.9.3-.7 1-1.2.9-2.1 0-.4.6-.4 1.1-.4.4.1.7.3 1.1.4.6.5 1.3.8 1.7 1.5z" fill="#8e8e8e"/><path class="st21" d="M291.8 67.3c-3 1.8-5.9 3.9-9.1 5.6-.3.2-.7.3-1.1.4-1.8.6-2 .4-3.2-1.1-1.4-1.6-2.1-3.5-3.1-5.3-.9-1.5-.9-3.3-.6-4.9.6-2.9 1.5-5.8 2.3-8.7.3-1.3.6-2.6.6-4s-1-2.2-2.4-2.1c-.5.1-1 .1-1.5.1 1.5-1 3-1.7 4.9-1.5.6.1 1.1.3 1.2.9.2.9.4 1.8.1 2.8-.7 2.7-2 5.3-2.5 8.1-.4 2.9-.9 5.8.6 8.5.9 1.8 1.9 3.6 3.9 4.4.6.3 1.2.2 1.9 0 2.6-.7 5-2.1 7.3-3.5 2.5-1.6 4.9-3.5 7.5-4.8 3.7-1.8 7.2-3.8 11.4-4.5.5-.1 1-.5 1.9-.3-1.1.9-1.9 2-3.1 2.6-.3-.7-.7-.7-1.4-.6-1.8.4-3.5 1.3-5.3 1.9-3.4 1.3-6.4 3.4-9.4 5.4-.3.2-.7.4-.9.6z"/><path class="st29" d="M291.8 67.3c1.6-1.3 3.4-2.4 5.1-3.5 3.4-2.1 7-3.7 10.8-4.7.9-.3 1.2 0 1 .9-.3.3-.7.4-1.1.6-.1-.7-.6-.7-1.1-.6-2.5.8-5 1.6-7.3 2.8-2.5 1.3-4.7 2.8-7 4.4-.2.1-.3.1-.4.1z"/><path class="st63" d="M327.6 66.2V66c1.1-.3 2.3-.6 3.4-.9-.8 1.4-2.1 1.4-3.4 1.1z"/><path class="st79" d="M319.6 79.5c.1.5-.2.9-.4 1.3-.9 1.2-2.1 1.9-3.6 2.2 0-.4.7-.5.5-1-.2-.3-.7-.1-1-.1-.2 0-.5 0-.8-.1 1.8-.8 3.5-1.6 5.3-2.3z"/><path d="M320.8 73.3h.7c.2 0 .3.1.3.3 0 .1-.1.3-.1.3-1.8.2-2.9 1.8-4.7 2-.1 0-.3.1-.4 0-.1 0-.3-.1-.3-.2-.1-.2.1-.3.3-.4 1.1-.5 2.2-1.1 3.2-1.8.2-.3.6-.2 1-.2z" fill="#5d5c5c"/><path d="M310.7 83.5c-1.7.7-3.1 1.2-4.7 1.4-.3 0-.9.2-1-.2 0-.4.2-1 .9-1 1.5-.2 3-.5 4.8-.2z" fill="#595657"/><path class="st79" d="M315.6 83c-.9.9-2 .5-3 .6l3-.6z"/><path d="M331.4 99.9c-2.4-2.6-2-5.9-2-9.1 0-1.2.1-2.5.6-3.7.4-1.2.9-2.3 2.4-2.6.7-.2 1.2.1 1.5.7 1.1 2 1.6 4.2 1.3 6.5-.1 1-.2 2.1-.1 3.1.3.3.1.7.1 1-.3 1.3-.7 2.5-1.2 3.6-.4.8-.9 1.4-1.9 1.2-.4-.2-.6-.4-.7-.7z" fill="#414041"/><path class="st83" d="M332.3 104.6v2.2c-.5-.5-.7-1.1-.7-1.7 0-.3-.1-.7-.5-.8-.5-.1-.6.3-.7.6-.1.3-.2.5-.3.8-.1.3-.2.8-.6.7-.4-.1-.3-.6-.2-.9.4-2.1.4-2.1-1.4-3.2-.5-.3-.3-.6-.2-1 .1-.3.3-.9-.2-1-.4-.1-.7.2-.9.6-.4.7-1 1.3-.6 2.2.2.4-.3.8-.7 1-.4.2-.7 0-.9-.4-.4-.7-.9-1.5-1.2-2.2-.3-.5-.5-.4-.8-.1v-.8c1.5.3 2.2-.8 2.8-1.8.9-1.7 1.9-1.8 3.9-1.4.2.1.1.3.2.4 0 .3.2.6.4.9.2.4.5.7.7 1.1.3 1.1 1.2 1.4 2.2 1.6 1 .2 1.1.3.7 1.3-.3.6-.5 1.3-1 1.9z"/><path d="M332.3 104.6c0-.9.6-1.5.8-2.3.2-.6.1-.7-.5-.8-1.5-.1-2.1-.6-2.5-1.9.7 0 1.2.5 1.9.8.8.2 1.3-.3 1.6-.8.5-.8.9-1.6 1.1-2.5.2-.8.6-1 1.3-.3.1-1.6 0-3.2.1-4.7 0-.5-.1-1 .3-1.4V89c.4 1.2.1 2.5.2 3.8 0 .7 0 1.4.7 2 1 1 .8 2.3.5 3.5-.3 1.5-.3 3-.6 4.4-.1.4.1.6.5.6-.2.3-.2.8-.6.7-.4-.1-.2-.6-.2-.9 0-.5.1-1-.4-1.3-.4-.3-.9-.9-1.4-.5-.6.5-1.1 1.3-1 2.1.1.7 0 1.4.4 2.1.3.6-.3 1.3-.6 2-.1.2-.4.4-.5.7-.1.2-.1.5-.5.4-.3-.1-.2-.4-.2-.6-.1-1-.1-1.9-.2-2.9 0-.2 0-.4-.2-.5z" fill="#7dbed5"/><path d="M336.6 87.2c-.1.3-.4.5-.4.8-.2-.1-.3-.4-.3-.5.1-1.5-.9-2.7-.9-4.2 0-1.1-.6-2.2-1.3-3.1-.8-1.1-1.3-2.4-1.7-3.6-.3-.7-.1-1.2.7-1.4.7-.2 1.3-.5 1.9-.8.5-.3 1-.3 1.4.3.5.7 1 1.5 1.3 2.3-.6-.4-1.2-.4-1.6.2-.5.8-1 1.6-.8 2.6.5 2.1.6 4.3 1.1 6.5 0 .3.4.5.6.9z" fill="#cacdcf"/><path d="M336.4 90.7c0 2.2.2 4.5-.1 6.7-.4-.1-.4-.3-.5-.5-.1-.1-.2-.3-.4-.3-.3 0-.3.3-.3.5-.2 1.1-.7 2-1.4 2.9-.4.5-.9 1.2-1.8.7-.1-.1-.1-.2 0-.3 1 .3 1.5-.3 1.8-1 .7-1.4 1.1-3 1.4-4.5.3-1.2.2-2.4.4-3.6.1-1 .3-1.1.9-.6z" fill="#3da1be"/><path d="M329.3 97.7c-.2-.1-.2-.3-.2-.4-.4-2.6-.6-5.1-.3-7.7.1-1 .3-2 .5-3-.5-1 0-1.7.6-2.4.6-.3.9-1.4 1.9-.9.2.3.1.5-.2.8-1.9 1.5-2.6 3.5-2.6 5.9 0 2.6.1 5.2.3 7.7zm2.6 2.6v.3c-.6-.3-1.1-.6-1.7-.9-.1-.4-.3-.7-.4-1.1.7.3.9 1.2 1.7 1.3l.4.4z" fill="#8bafb9"/><path class="st64" d="M282.2 131.6c-2-.2-3.8-1-5.5-1.9-1.6-.9-3.3-1.7-4.7-2.7-2-1.5-4.2-2.8-5.8-4.8-1.1-1.4-2.5-2.5-3.5-4-3.1-4.7-5.8-9.4-7.2-14.9-.8-3.2-1.4-6.4-1.2-9.7.1-2.8-.2-5.5.2-8.3.4-3.1.8-6.1 2-9 .3-.8 1-1.3 1.4-2 .1-.2.3-.4.5-.2s.2.4.1.6c-.5.6-.2 1.1.2 1.5.7.7 1.2 1.5 1.2 2.5.1 1.6 1.4 2.6 1.8 4 .2.5.4 1 .5 1.6.1.7.1 1.7 1.1 2 .1 0 .1.2.1.3.1 2 1.4 3.6 1.7 5.7.3 2.6 1.4 5.1 2.1 7.6.6 2.2 1.6 4.3 2.4 6.4.5 1.4 1.4 2.8 1.8 4.3.6 2 2.2 3.4 3 5.3.4 1 1.1 2 2.4 2.3.6 1.7 3 1.8 3.3 3.9.2 1.3 1.5 2.2 2.4 3.2.6.7.8 1.6 1.5 2.2.1.1.1.4 0 .5-.4.5-.1.7.2 1.1.6.6.6 1.3-.2 1.7-.7.3-1 1-1.8.8z"/><path d="M283.5 112.4c.7.3 1.1.3 1.4.6 2.2 1.8 4.9 2.7 7.1 4.5 1.5 1.2 3.1 2.4 4.7 3.5.6.4 1.3.7 1.9 1.1.4.3.8.7.6 1.2-.2.6-.9.4-1.3.3-3.3-1-6.4-2.6-9.2-4.6-.6-.5-1.1-1.1-1.4-1.9-.5-1.4-1.3-2.5-2.6-3.3-.5-.3-.8-.6-1.2-1.4z" fill="#767676"/><path class="st68" d="M284.2 108c1.1.1 1.8.7 2.7 1.4.9.8 2.2 1.1 3.3 1.3.9.2 1.7.5 2.2 1.3-.3-.1-.7-.2-1-.4-.9-.6-1.8-.8-2.9-.5-1.8-.4-3.1-1.6-4.3-3.1z"/><path d="M324.1 92.1c.9 1.4.6 2.3-1.1 3.7-.4.1-.8.2-.9.6-.1 1.5-1.3 1.4-2.2 1.4-1.9.2-3.7-2.6-2.6-4.2.9-1.4 2.3-2.5 4-3 .8-.3 1.4.5 2.1.9.3.3.5.5.7.6z" fill="#f8f6f6"/><path d="M329.9 84.2c-.2.8-.7 1.5-.6 2.4-.5.5-.8 1.2-1.2 1.9-.5 1-.9 1-1.6.1-.5-.7-1.1-1.3-1.8-1.8-.6-.4-1-.5-1.3.3-.1.3-.5.5-.7.7.5-1.6 1.9-3.7 4-3.4 1.1.1 2.1-.3 3.2-.2z" fill="#66b4c7"/><path class="st83" d="M332.3 106.9c.1 1.2-.1 2.3-.9 3.2.3-1 .4-2.1.9-3.2z"/><path d="M108.8 170.1h10.8c5.6 0 9.3 3.1 9.3 8.1 0 5.7-4.3 8.3-9.4 8.3h-5v9.7h-5.7v-26.1zm5.6 11.9h4.3c2.6 0 4.5-1 4.5-3.7s-2-3.7-4.4-3.7h-4.4v7.4zm26.7 6.6c.6 2.6 2.5 3.8 5.5 3.8s4.3-1.2 4.3-3.1c0-2.2-1.3-3.1-5.7-4.1-7.1-1.7-8.9-4.3-8.9-7.8 0-4.6 3.4-7.6 9.6-7.6 7 0 9.7 3.7 10.1 7.5h-5.7c-.3-1.6-1.2-3.4-4.6-3.4-2.3 0-3.7 1-3.7 2.8 0 1.8 1.1 2.6 5.4 3.5 7.6 1.8 9.3 4.6 9.3 8.4 0 4.7-3.6 8-10.5 8-6.7 0-10.2-3.3-10.8-8h5.7zm29.3 7.7V187c0-.3 0-.5-.2-.8l-9-16.1h6.4l6 12c1.1-2.7 4-8.3 6-12h5.9l-9.1 16c-.1.2-.2.3-.2.8v9.3l-5.8.1zm42.7-8.1c-1 4.9-4.7 8.4-11.3 8.4-8.3 0-12.2-5.9-12.2-13.3 0-7.2 4-13.6 12.5-13.6 7 0 10.4 4 11 8.4h-5.7c-.6-2-2-4-5.5-4-4.7 0-6.4 4.2-6.4 9 0 4.4 1.6 9 6.6 9 3.7 0 4.9-2.5 5.4-4h5.6zm8.1-18.1h5.7v10.2h10.5v-10.2h5.7v26.1h-5.7v-11.3h-10.5v11.3h-5.7v-26.1zm56 13c0 7.3-4.4 13.5-12.8 13.5-8.2 0-12.5-6-12.5-13.4 0-7.6 4.7-13.4 12.8-13.4 7.6 0 12.5 5.3 12.5 13.3zm-19.6 0c0 5.1 2.2 9 6.9 9 5 0 6.8-4.2 6.8-8.9 0-5-2-8.8-6.9-8.8-4.7-.1-6.8 3.6-6.8 8.7zm28.3 13.2v-26.1h7c3.3 5.8 9.3 16.4 10.5 19.3h.1c-.3-2.7-.3-7.3-.3-11.6v-7.8h5.1v26.1h-6.7c-2.8-5.1-9.5-17.3-10.8-20.3h-.1c.2 2.3.3 7.7.3 12.3v8l-5.1.1zm37.3-6.1l-2 6h-5.6l8.9-26.1h7.1l9.3 26.1h-6l-2.2-6h-9.5zm8.3-4.6c-1.9-5.5-3-9-3.7-11.4-.7 2.6-1.9 6.7-3.4 11.4h7.1zm21.2-15.5v15.5c0 5 2.6 6.5 5.4 6.5 3.2 0 5.2-1.7 5.2-6.5v-15.5h5.7v15.3c0 9-5.2 11.2-11 11.2-5.9 0-11-2.4-11-11.1v-15.4h5.7zm31.8 4.7h-8v-4.7H398v4.6h-7.9v21.5h-5.7v-21.4zm25.6 21.5l-7.1-26.4h3.7c2 8.7 4.9 19.6 5.4 22.6.7-3.4 4.3-15.8 6-22.6h3.4c1.6 5.9 5.2 19.3 5.7 22.5.9-4.6 4.6-17 6-22.5h3.4l-7.7 26.4h-3.7c-1.6-6-5-18.7-5.6-21.8-.8 4-4.2 15.8-5.9 21.8h-3.6zm38.4-26.4v26.4H445v-26.4h3.5zm10.9 0h3.4v13c2-2 8.7-8.7 12.8-13h4.4L468.7 181l11.9 15.2h-4.3l-10.1-13-3.4 3.1v9.9h-3.4v-26.3zm31.9 0v26.4h-3.5v-26.4h3.5zM78.8 254.4H70l-.1-.9 3.2-.3V237h-4l-1.2 3.4h-1v-4.7h15.4v4.7h-1l-1.2-3.4h-4v16.2l3.1.3-.4.9zm9.1-1.2l1.5.3-.1.9h-5.6l-.1-.9 1.9-.3v-16.1h-1.9l-.1-.9 3.2-.8 1.3-.1v8.7l3.9-2.5c.9 0 1.5.1 2.1.3.5.2.9.4 1.2.8s.5.9.6 1.4.1 1.3.1 2.2v7.1l2 .3-.1.9h-5.6l-.1-.9 1.3-.3v-7.7c0-.7-.2-1.2-.5-1.5-.3-.3-.7-.5-1.3-.5-.4 0-.9.1-1.4.4-.5.2-1 .5-1.5.8l-.8.5v7.9zm13.4-5.7c0 .8.1 1.5.3 2.1s.5 1.2.9 1.6c.4.5.9.8 1.4 1.1.6.3 1.2.4 1.9.4.5 0 1.1-.1 1.7-.3.6-.2 1.1-.5 1.6-.8l.4 1c-.6.4-1.4.8-2.2 1.2-.8.4-1.6.7-2.5.9-.8 0-1.6-.1-2.3-.4-.7-.3-1.4-.7-2-1.2-.6-.5-1-1.2-1.4-2-.3-.8-.5-1.7-.5-2.8 0-1 .1-1.9.4-2.6s.7-1.4 1.2-2c.5-.6 1.2-1 1.9-1.4s1.6-.7 2.5-.9c.9 0 1.6.1 2.2.4s1.1.6 1.5 1.1.6 1 .8 1.6c.2.6.2 1.3.2 2v1.1h-8zm5.4-1.2c0-.5 0-1-.1-1.5-.1-.4-.2-.8-.4-1.1-.2-.3-.4-.6-.7-.7-.3-.2-.7-.3-1.3-.3-.8 0-1.5.3-2 1s-.8 1.5-.9 2.6h5.4zm17.7-4.9c.9 0 1.7.2 2.4.5s1.4.8 1.9 1.4c.5.6.9 1.2 1.2 2 .3.8.4 1.6.4 2.5 0 2-.6 3.6-1.7 4.7-1.2 1.2-2.8 1.9-4.9 2.2-.9 0-1.7-.2-2.4-.5s-1.4-.8-1.9-1.4c-.5-.6-.9-1.3-1.2-2-.3-.8-.4-1.6-.4-2.5 0-2 .6-3.6 1.7-4.7 1.2-1.1 2.9-1.9 4.9-2.2zm-3.9 6.4c0 .8.1 1.5.3 2.2s.5 1.3.8 1.8c.3.5.8.9 1.3 1.2.5.3 1 .5 1.6.5.5 0 1-.1 1.4-.4s.7-.6 1-1.1.5-1 .6-1.6c.1-.6.2-1.3.2-2 0-.9-.1-1.6-.3-2.3-.2-.7-.5-1.3-.8-1.8-.3-.5-.8-.9-1.2-1.2-.5-.3-1-.4-1.6-.4-.5 0-1 .1-1.4.4-.4.3-.8.6-1 1.1-.3.5-.5 1-.6 1.6s-.3 1.3-.3 2zm17.5 7c-.4 0-.7 0-1.1-.1-.4-.1-.7-.2-1-.4v5.2l2.8.3-.1.9h-7l-.1-.9 1.9-.3v-16l-1.9.2-.1-.9 3.2-.8h1.2l.1 2.2 3.4-2.6c1.7 0 3.1.6 4 1.7s1.4 2.6 1.4 4.6c0 1.1-.2 2.1-.5 3-.3.8-.8 1.5-1.4 2.1-.6.6-1.3 1-2.1 1.4-.8 0-1.7.3-2.7.4zm4.1-6.3c0-1.6-.3-2.8-.8-3.7-.5-.9-1.2-1.4-2-1.4-.4 0-.7.1-1.2.3s-.9.5-1.4.9l-.8.6v6.7c.3.5.7.8 1.2 1.1.5.3 1.1.4 1.7.4 1 0 1.7-.4 2.3-1.3s1-2.1 1-3.6zm7-1c0 .8.1 1.5.3 2.1s.5 1.2.9 1.6c.4.5.9.8 1.4 1.1.6.3 1.2.4 1.9.4.5 0 1.1-.1 1.7-.3.6-.2 1.1-.5 1.6-.8l.4 1c-.6.4-1.4.8-2.2 1.2-.8.4-1.6.7-2.5.9-.8 0-1.6-.1-2.3-.4-.7-.3-1.4-.7-2-1.2-.6-.5-1-1.2-1.4-2-.3-.8-.5-1.7-.5-2.8 0-1 .1-1.9.4-2.6s.7-1.4 1.2-2c.5-.6 1.2-1 1.9-1.4s1.6-.7 2.5-.9c.9 0 1.6.1 2.2.4s1.1.6 1.5 1.1.6 1 .8 1.6c.2.6.2 1.3.2 2v1.1h-8zm5.4-1.2c0-.5 0-1-.1-1.5-.1-.4-.2-.8-.4-1.1-.2-.3-.4-.6-.7-.7-.3-.2-.7-.3-1.3-.3-.8 0-1.5.3-2 1s-.8 1.5-.9 2.6h5.4zm7.5 8h-3.1l-.1-.9 1.9-.3v-9.8l-1.9.2-.1-1 3.2-.8h1.2l.1 2.2 4-2.6c.9 0 1.5.1 2.1.2.5.2.9.4 1.2.8s.5.8.6 1.4c.1.6.1 1.2.1 2v7.5l2 .3-.1.9h-5.7l-.1-.9 1.3-.3v-7.7c0-.7-.2-1.2-.5-1.5-.3-.3-.7-.5-1.3-.5-.5 0-.9.1-1.4.4-.5.3-.9.5-1.4.8l-.8.5v7.9l1.5.3-.1.9H162zm21.6-6.8c0 .8.1 1.5.3 2.1s.5 1.2.9 1.6c.4.5.9.8 1.4 1.1.6.3 1.2.4 1.9.4.5 0 1.1-.1 1.7-.3.6-.2 1.1-.5 1.6-.8l.4 1c-.6.4-1.4.8-2.2 1.2-.8.4-1.6.7-2.5.9-.8 0-1.6-.1-2.3-.4-.7-.3-1.4-.7-2-1.2-.6-.5-1-1.2-1.4-2-.3-.8-.5-1.7-.5-2.8 0-1 .1-1.9.4-2.6s.7-1.4 1.2-2c.5-.6 1.2-1 1.9-1.4s1.6-.7 2.5-.9c.9 0 1.6.1 2.2.4s1.1.6 1.5 1.1.6 1 .8 1.6c.2.6.2 1.3.2 2v1.1h-8zm5.4-1.2c0-.5 0-1-.1-1.5-.1-.4-.2-.8-.4-1.1-.2-.3-.4-.6-.7-.7-.3-.2-.7-.3-1.3-.3-.8 0-1.5.3-2 1s-.8 1.5-.9 2.6h5.4zm7.5 8h-3.1l-.1-.9 1.9-.3v-9.8l-1.9.2-.1-1 3.2-.8h1.2l.1 2.2 4-2.6c.9 0 1.5.1 2.1.2.5.2.9.4 1.2.8s.5.8.6 1.4c.1.6.1 1.2.1 2v7.5l2 .3-.1.9h-5.7l-.1-.9 1.3-.3v-7.7c0-.7-.2-1.2-.5-1.5-.3-.3-.7-.5-1.3-.5-.5 0-.9.1-1.4.4-.5.3-.9.5-1.4.8l-.8.5v7.9l1.5.3-.1.9h-2.6zm19.6-11.1c-.2-.2-.4-.3-.7-.3-.2-.1-.5-.1-.9-.1-.5 0-.9.1-1.3.4s-.7.6-1 1c-.3.4-.5 1-.7 1.6-.2.6-.2 1.3-.2 2s.1 1.4.3 2c.2.6.5 1.1.8 1.6.4.4.8.8 1.3 1 .5.2 1.1.4 1.8.4.5 0 1-.1 1.6-.3.5-.2 1-.5 1.5-.8l.4 1c-.6.4-1.3.8-2 1.2s-1.5.7-2.4.9c-.9 0-1.7-.1-2.4-.4-.7-.3-1.4-.7-1.9-1.2s-.9-1.2-1.2-2c-.3-.8-.5-1.7-.5-2.7 0-1.1.2-2 .5-2.8.4-.8.8-1.5 1.4-2s1.3-1 2-1.4c.8-.4 1.6-.6 2.4-.8.3 0 .6 0 1 .1s.7.2 1 .3c.3.1.7.3 1 .4.3.2.5.3.7.5v2.7h-2l-.5-2.3zm5.8 17.4V258h2.3l2.7-4-1.1.3-4.4-11.3-1.7-.3.1-.9h5.9l.1.9-1.8.3 2.8 7.8.2 1.8 3.2-9.7-1.2-.3.1-.9h4.6l.1.9-1.7.3-4.2 11-3 6.7h-3zm19.7-17.4c-.2-.2-.4-.3-.7-.3-.2-.1-.5-.1-.9-.1-.5 0-.9.1-1.3.4s-.7.6-1 1c-.3.4-.5 1-.7 1.6-.2.6-.2 1.3-.2 2s.1 1.4.3 2c.2.6.5 1.1.8 1.6.4.4.8.8 1.3 1 .5.2 1.1.4 1.8.4.5 0 1-.1 1.6-.3.5-.2 1-.5 1.5-.8l.4 1c-.6.4-1.3.8-2 1.2s-1.5.7-2.4.9c-.9 0-1.7-.1-2.4-.4-.7-.3-1.4-.7-1.9-1.2s-.9-1.2-1.2-2c-.3-.8-.5-1.7-.5-2.7 0-1.1.2-2 .5-2.8.4-.8.8-1.5 1.4-2s1.3-1 2-1.4c.8-.4 1.6-.6 2.4-.8.3 0 .6 0 1 .1s.7.2 1 .3c.3.1.7.3 1 .4.3.2.5.3.7.5v2.7h-2l-.5-2.3zm7.5 11.1H246l-.1-.9 1.9-.3V237h-1.9l-.1-.9 3.2-.8 1.3-.1v17.9l2 .3-.1.9h-3.1zm10.9-12.9c.9 0 1.7.2 2.4.5s1.4.8 1.9 1.4c.5.6.9 1.2 1.2 2 .3.8.4 1.6.4 2.5 0 2-.6 3.6-1.7 4.7-1.2 1.2-2.8 1.9-4.9 2.2-.9 0-1.7-.2-2.4-.5s-1.4-.8-1.9-1.4c-.5-.6-.9-1.3-1.2-2-.3-.8-.4-1.6-.4-2.5 0-2 .6-3.6 1.7-4.7 1.2-1.1 2.8-1.9 4.9-2.2zm-3.9 6.4c0 .8.1 1.5.3 2.2s.5 1.3.8 1.8c.3.5.8.9 1.3 1.2.5.3 1 .5 1.6.5.5 0 1-.1 1.4-.4s.7-.6 1-1.1.5-1 .6-1.6c.1-.6.2-1.3.2-2 0-.9-.1-1.6-.3-2.3-.2-.7-.5-1.3-.8-1.8-.3-.5-.8-.9-1.2-1.2-.5-.3-1-.4-1.6-.4-.5 0-1 .1-1.4.4-.4.3-.8.6-1 1.1-.3.5-.5 1-.6 1.6s-.3 1.3-.3 2zm17.5 7c-.4 0-.7 0-1.1-.1-.4-.1-.7-.2-1-.4v5.2l2.8.3-.1.9h-7l-.1-.9 1.9-.3v-16l-1.9.2-.1-.9 3.2-.8h1.2l.1 2.2 3.4-2.6c1.7 0 3.1.6 4 1.7s1.4 2.6 1.4 4.6c0 1.1-.2 2.1-.5 3-.3.8-.8 1.5-1.4 2.1-.6.6-1.3 1-2.1 1.4-.8 0-1.7.3-2.7.4zm4-6.3c0-1.6-.3-2.8-.8-3.7-.5-.9-1.2-1.4-2-1.4-.4 0-.7.1-1.2.3s-.9.5-1.4.9l-.8.6v6.7c.3.5.7.8 1.2 1.1.5.3 1.1.4 1.7.4 1 0 1.7-.4 2.3-1.3s1-2.1 1-3.6zm7.1-1c0 .8.1 1.5.3 2.1s.5 1.2.9 1.6c.4.5.9.8 1.4 1.1.6.3 1.2.4 1.9.4.5 0 1.1-.1 1.7-.3.6-.2 1.1-.5 1.6-.8l.4 1c-.6.4-1.4.8-2.2 1.2-.8.4-1.6.7-2.5.9-.8 0-1.6-.1-2.3-.4-.7-.3-1.4-.7-2-1.2-.6-.5-1-1.2-1.4-2-.3-.8-.5-1.7-.5-2.8 0-1 .1-1.9.4-2.6s.7-1.4 1.2-2c.5-.6 1.2-1 1.9-1.4s1.6-.7 2.5-.9c.9 0 1.6.1 2.2.4s1.1.6 1.5 1.1.6 1 .8 1.6c.2.6.2 1.3.2 2v1.1h-8zm5.4-1.2c0-.5 0-1-.1-1.5-.1-.4-.2-.8-.4-1.1-.2-.3-.4-.6-.7-.7-.3-.2-.7-.3-1.3-.3-.8 0-1.5.3-2 1s-.8 1.5-.9 2.6h5.4zm15.9 4.6c0 .5 0 .9.1 1.2.1.3.2.5.3.7h1.5l.1 1-3.6.7-.8-2.1-3.5 2.3c-.9 0-1.6-.2-2.3-.5-.7-.3-1.3-.7-1.8-1.3-.5-.5-.9-1.2-1.1-2s-.4-1.6-.4-2.5c0-1.1.2-2 .5-2.9.3-.8.8-1.5 1.3-2.1.6-.6 1.3-1.1 2.1-1.4.8-.3 1.7-.6 2.7-.7.1 0 .3 0 .5.1.2 0 .4.1.6.2s.4.2.6.2c.2.1.4.2.5.2v-5h-1.9l-.1-.9 3.2-.8 1.3-.1v15.7zm-5.9 1.7c.4 0 .8-.1 1.2-.3.4-.2.9-.5 1.4-.8l.8-.6v-7.1c-.3-.3-.7-.6-1.1-.8-.4-.2-1-.3-1.5-.3-1.1 0-1.9.5-2.6 1.4-.6.9-1 2.2-1 3.8 0 1.5.3 2.7.8 3.5.5.8 1.2 1.2 2 1.2zm12.7 1.7h-3.1l-.1-.9 1.9-.3v-9.8l-1.9.2-.1-.9 3.2-.8 1.3-.1v11.5l2 .3-.1.9h-3.1zm-1.4-18.5h1.9l.8.1.1 1.4-.3 1.3-1.9.2-.7-.2-.2-1.5.3-1.3zm11.2 5.6c.8 0 1.5.1 2.1.2.5.1 1 .3 1.3.7s.5.8.7 1.3.2 1.2.2 2.1v5.2c0 .6 0 1 .1 1.3.1.3.2.5.3.7h1.3l.1.9-3.5.7-.8-2.1-3.2 2.3c-1.2 0-2.1-.3-2.8-.9-.7-.6-1.1-1.4-1.1-2.5 0-.5.1-.9.2-1.3s.4-.8.7-1.2l6-2V244.4c0-.3-.1-.6-.2-.8-.1-.2-.3-.4-.5-.5-.2-.1-.5-.2-.9-.2s-.7 0-1.1.1c-.4.1-.8.2-1.1.3l-.5 2.1h-2.3v-2l5-2zm1.7 6.5l-3.9 1.6c-.2.2-.3.4-.4.7-.1.3-.1.5-.1.8 0 .7.2 1.2.5 1.4.3.3.7.4 1.1.4.4 0 .7-.1 1-.3.3-.2.5-.3.7-.4l1.1-.8v-3.4zm18.5-6.5c.9 0 1.7.2 2.4.5s1.4.8 1.9 1.4c.5.6.9 1.2 1.2 2 .3.8.4 1.6.4 2.5 0 2-.6 3.6-1.7 4.7-1.2 1.2-2.8 1.9-4.9 2.2-.9 0-1.7-.2-2.4-.5s-1.4-.8-1.9-1.4c-.5-.6-.9-1.3-1.2-2-.3-.8-.4-1.6-.4-2.5 0-2 .6-3.6 1.7-4.7 1.2-1.1 2.8-1.9 4.9-2.2zm-3.9 6.4c0 .8.1 1.5.3 2.2s.5 1.3.8 1.8c.3.5.8.9 1.3 1.2.5.3 1 .5 1.6.5.5 0 1-.1 1.4-.4s.7-.6 1-1.1.5-1 .6-1.6c.1-.6.2-1.3.2-2 0-.9-.1-1.6-.3-2.3-.2-.7-.5-1.3-.8-1.8-.3-.5-.8-.9-1.2-1.2-.5-.3-1-.4-1.6-.4-.5 0-1 .1-1.4.4-.4.3-.8.6-1 1.1-.3.5-.5 1-.6 1.6s-.3 1.3-.3 2zm15.9-5.8h3.3v1.3h-3.3v10h3.1l-.1 1.1h-7.3l-.1-.9 1.9-.3v-9.9h-2.4v-.5l.8-.9h1.6v-.3c0-.8.1-1.5.4-2.1.2-.6.6-1.1 1.1-1.7l2.2-2.5h3.4v2.1h-3.5l-.5.7c-.2.2-.3.6-.4 1s-.1 1.1-.1 2v.9zm17.4 12.8c-.4 0-.7 0-1.1-.1-.4-.1-.7-.2-1-.4v5.2l2.8.3-.1.9h-7l-.1-.9 1.9-.3v-16l-1.9.2-.1-.9 3.2-.8h1.2l.1 2.2 3.4-2.6c1.7 0 3.1.6 4 1.7s1.4 2.6 1.4 4.6c0 1.1-.2 2.1-.5 3-.3.8-.8 1.5-1.4 2.1-.6.6-1.3 1-2.1 1.4-.8 0-1.7.3-2.7.4zm4-6.3c0-1.6-.3-2.8-.8-3.7-.5-.9-1.2-1.4-2-1.4-.4 0-.7.1-1.2.3s-.9.5-1.4.9l-.8.6v6.7c.3.5.7.8 1.2 1.1s1.1.4 1.7.4c1 0 1.7-.4 2.3-1.3.7-.9 1-2.1 1-3.6zm11.7-5.2c-.1-.1-.4-.2-.8-.4s-.8-.2-1.3-.2-1 .1-1.4.4c-.4.3-.6.7-.6 1.2 0 .4.2.8.5 1.1.3.3.8.6 1.4.9l2.1 1c.9.5 1.6 1 1.9 1.5.4.5.6 1.2.6 2 0 .6-.1 1.1-.3 1.6-.2.4-.6.8-1 1.1-.4.3-1 .6-1.6.8-.6.2-1.3.4-2.1.6-.4 0-.8 0-1.2-.1l-1.2-.3c-.4-.1-.7-.3-1-.4-.3-.1-.5-.3-.7-.4l-.5-3h1.7l.9 2.2c.3.2.6.4 1 .5.4.1.8.2 1.2.2.7 0 1.2-.2 1.6-.6.4-.4.5-.9.5-1.4 0-.5-.2-.9-.5-1.2-.3-.3-.8-.6-1.5-1l-2.1-1.1c-.3-.1-.6-.3-.8-.5s-.5-.4-.7-.7c-.2-.3-.4-.5-.5-.9-.1-.3-.2-.7-.2-1 0-.9.4-1.7 1.2-2.2.8-.6 2-1 3.6-1.3.7 0 1.4.1 2.1.4s1.2.5 1.6.8v2.7h-1.4l-.5-2.3zm5.1 17.3V258h2.3l2.7-4-1.1.3-4.4-11.3-1.7-.3.1-.9h5.9l.1.9-1.8.3 2.8 7.8.2 1.8 3.2-9.7-1.2-.3.1-.9h4.6l.1.9-1.7.3-4.2 11-3 6.7h-3zm19.7-17.4c-.2-.2-.4-.3-.7-.3-.2-.1-.5-.1-.9-.1-.5 0-.9.1-1.3.4s-.7.6-1 1-.5 1-.7 1.6c-.2.6-.2 1.3-.2 2s.1 1.4.3 2c.2.6.5 1.1.8 1.6s.8.8 1.3 1c.5.2 1.1.4 1.8.4.5 0 1-.1 1.6-.3.5-.2 1-.5 1.5-.8l.4 1c-.6.4-1.3.8-2 1.2s-1.5.7-2.4.9c-.9 0-1.7-.1-2.4-.4-.7-.3-1.4-.7-1.9-1.2s-.9-1.2-1.2-2c-.3-.8-.5-1.7-.5-2.7 0-1.1.2-2 .5-2.8.4-.8.8-1.5 1.4-2 .6-.6 1.3-1 2-1.4s1.6-.6 2.4-.8c.3 0 .6 0 1 .1.3.1.7.2 1 .3.3.1.7.3 1 .4.3.2.5.3.7.5v2.7h-2l-.5-2.3zm8.6 10l1.5.3-.1.9h-5.6l-.1-.9 1.9-.3v-16.1H417l-.1-.9 3.2-.8 1.3-.1v8.7l3.9-2.5c.9 0 1.5.1 2.1.3.5.2.9.4 1.2.8.3.4.5.9.6 1.4.1.6.1 1.3.1 2.2v7.1l2 .3-.1.9h-5.7l-.1-.9 1.3-.3v-7.7c0-.7-.2-1.2-.5-1.5-.3-.3-.7-.5-1.3-.5-.4 0-.9.1-1.4.4-.5.2-1 .5-1.5.8l-.8.5v7.9zm17.4-11.8c.9 0 1.7.2 2.4.5s1.4.8 1.9 1.4c.5.6.9 1.2 1.2 2 .3.8.4 1.6.4 2.5 0 2-.6 3.6-1.7 4.7-1.2 1.2-2.8 1.9-4.9 2.2-.9 0-1.7-.2-2.4-.5s-1.4-.8-1.9-1.4c-.5-.6-.9-1.3-1.2-2-.3-.8-.4-1.6-.4-2.5 0-2 .6-3.6 1.7-4.7s2.8-1.9 4.9-2.2zm-3.9 6.4c0 .8.1 1.5.3 2.2s.5 1.3.8 1.8c.3.5.8.9 1.3 1.2s1 .5 1.6.5c.5 0 1-.1 1.4-.4s.7-.6 1-1.1.5-1 .6-1.6c.1-.6.2-1.3.2-2 0-.9-.1-1.6-.3-2.3s-.5-1.3-.8-1.8c-.3-.5-.8-.9-1.2-1.2-.5-.3-1-.4-1.6-.4-.5 0-1 .1-1.4.4s-.8.6-1 1.1c-.3.5-.5 1-.6 1.6s-.3 1.3-.3 2zm14.6 6.5h-3.1l-.1-.9 1.9-.3v-9.8l-1.9.2-.1-1 3.2-.8h1.2l.1 2.2 4-2.6c.9 0 1.5.1 2.1.2.5.2.9.4 1.2.8.3.3.5.8.6 1.4.1.6.1 1.2.1 2v7.5l2 .3-.1.9h-5.7l-.1-.9 1.3-.3v-7.7c0-.7-.2-1.2-.5-1.5-.3-.3-.7-.5-1.3-.5-.5 0-.9.1-1.4.4-.5.3-.9.5-1.4.8l-.8.5v7.9l1.5.3-.1.9h-2.6zm17.6-12.9c.8 0 1.5.1 2.1.2.5.1 1 .3 1.3.7s.5.8.7 1.3c.1.5.2 1.2.2 2.1v5.2c0 .6 0 1 .1 1.3.1.3.2.5.3.7h1.3l.1.9-3.5.7-.8-2.1-3.2 2.3c-1.2 0-2.1-.3-2.8-.9-.7-.6-1.1-1.4-1.1-2.5 0-.5.1-.9.2-1.3.2-.4.4-.8.7-1.2l6-2V244.4c0-.3-.1-.6-.2-.8-.1-.2-.3-.4-.5-.5-.2-.1-.5-.2-.9-.2s-.7 0-1.1.1c-.4.1-.8.2-1.1.3l-.5 2.1H462v-2l5-2zm1.7 6.5l-3.9 1.6c-.2.2-.3.4-.4.7-.1.3-.1.5-.1.8 0 .7.2 1.2.5 1.4s.7.4 1.1.4c.4 0 .7-.1 1-.3.3-.2.5-.3.7-.4l1.1-.8v-3.4zm17.3 3c0 .6 0 1 .1 1.3.1.3.1.5.2.7h1.3l.1.9-3.5.7-.8-2.2-3.9 2.4c-.9 0-1.6-.1-2.1-.2-.5-.2-1-.4-1.2-.8-.3-.4-.5-.8-.6-1.4-.1-.5-.1-1.2-.1-2v-7l-1.9.1-.1-1 3.2-.7 1.3-.1v8.9c0 .7.2 1.2.5 1.5.3.3.8.5 1.4.5.4 0 .9-.1 1.4-.4l1.5-.9.5-.3v-7.5l-1.6.1-.1-1 2.9-.7 1.3-.1v9.2zm2.5-7.6v-.5l.9-.9h1.7v-1.7l1.7-1.7h.7v3.7h4v1.2h-4v7.8c0 .2 0 .4.1.6s.1.4.2.5c.1.2.2.3.4.4.2.1.4.1.7.1.4 0 .8-.1 1.1-.2.3-.1.7-.3 1-.5l.5.9-3.1 1.7c-.8 0-1.3-.1-1.8-.2s-.8-.3-1-.6c-.2-.3-.4-.6-.5-1.1s-.1-1-.1-1.6v-8h-2.5zm13.5 11h-3.1l-.1-.9 1.9-.3v-9.8l-1.9.2-.1-.9 3.2-.8 1.3-.1v11.5l2 .3-.1.9H502zm-1.4-18.5h1.9l.8.1.1 1.4-.3 1.3-1.9.2-.7-.2-.2-1.5.3-1.3zm13.3 7.4c-.2-.2-.4-.3-.7-.3-.2-.1-.5-.1-.9-.1-.5 0-.9.1-1.3.4s-.7.6-1 1-.5 1-.7 1.6c-.2.6-.2 1.3-.2 2s.1 1.4.3 2c.2.6.5 1.1.8 1.6s.8.8 1.3 1 1.1.4 1.8.4c.5 0 1-.1 1.6-.3.5-.2 1-.5 1.5-.8l.4 1c-.6.4-1.3.8-2 1.2s-1.5.7-2.4.9c-.9 0-1.7-.1-2.4-.4-.7-.3-1.4-.7-1.9-1.2s-.9-1.2-1.2-2c-.3-.8-.5-1.7-.5-2.7 0-1.1.2-2 .5-2.8.4-.8.8-1.5 1.4-2s1.3-1 2-1.4 1.6-.6 2.4-.8c.3 0 .6 0 1 .1.3.1.7.2 1 .3.3.1.7.3 1 .4.3.2.5.3.7.5v2.7h-2l-.5-2.3zm11.5.1c-.1-.1-.4-.2-.8-.4s-.8-.2-1.3-.2-1 .1-1.4.4c-.4.3-.6.7-.6 1.2 0 .4.2.8.5 1.1.3.3.8.6 1.4.9l2.1 1c.9.5 1.6 1 1.9 1.5.4.5.6 1.2.6 2 0 .6-.1 1.1-.3 1.6-.2.4-.6.8-1 1.1-.4.3-1 .6-1.6.8-.6.2-1.3.4-2.1.6-.4 0-.8 0-1.2-.1l-1.2-.3c-.4-.1-.7-.3-1-.4-.3-.1-.5-.3-.7-.4l-.5-3h1.7l.9 2.2c.3.2.6.4 1 .5.4.1.8.2 1.2.2.7 0 1.2-.2 1.6-.6.4-.4.5-.9.5-1.4 0-.5-.2-.9-.5-1.2s-.8-.6-1.5-1l-2.1-1.1c-.3-.1-.6-.3-.8-.5-.3-.2-.5-.4-.7-.7s-.4-.5-.5-.9-.2-.7-.2-1c0-.9.4-1.7 1.2-2.2.8-.6 2-1 3.6-1.3.7 0 1.4.1 2.1.4s1.2.5 1.6.8v2.7H526l-.6-2.3zm4.9 8.2h2l.8.1.1 1.4-.1 1.4h-2l-.8-.1-.1-1.5.1-1.3z"/></svg>