<svg viewBox="0 0 112.1 109.2" xmlns="http://www.w3.org/2000/svg"><path d="m84.3 10.5v-.2c-.1-.1 0-.2.1-.3 1.3 1.1 2.9 1.3 4.5 1.2.4 0 .8.2 1.1.5 2.3 2.1 4.6 4.3 6 7.2.2.4.4.8.4 1.3-.4 1.2-1.4 1.5-2.4.7-.2-.3-.2-.6-.3-1-.5 1 .1 2.1-.6 3-.3.4-.5.8-.8 1.2s-.5 1-1.1.8c-.5-.2-.4-.8-.4-1.2 0-.8 0-1.5-.4-2.2-.1-.1-.2-.3-.5-.2-.2.1-.3.3-.3.5-.6 2.1-2.2 2.4-4.1 2.6-1.8.2-3.6.1-5.3.5-.9.2-1.7.1-2.3-.8-.3-.5-.8-.7-1.4-.6-.8 0-1.7-.2-2.5-.3-1.2-.2-1.6-1-1.1-2.1.6-1.3 1.6-2.3 2.8-3.1.8-.6 1.5-1.1 2.3-1.7.3-.3.7-.5.6-1s-.6-.6-1.1-.7c-2.8-.4-5.7-.5-8.5.2-2.9.8-5.8 1.6-8.8 1.9-1.3.1-2.4.9-3.8 0-.6-.4-1.6.5-2.5.9-1.3.6-2.4 1.6-3.9 1.7-.4 0-.7.4-1 .7-1.3 1.4-3.1 1.7-4.9 2-1 .2-1.9-.9-1.8-2 .1-2.5.3-5.1 1.6-7.4.9-1.6 1.4-3.4 1.5-5.3.1-2.1-1.7-4.4-3.8-4.8-.6-.1-1.2-.1-1.6-.8 1.6-.7 3.3-.9 5-1.1 2.8.1 5.3 1.2 7.8 2.3 4.6 2 9.3 3.5 14.1 5.1 1.4.4 2.7 1 3.9 1.7 1.9 1.3 4.1 1.6 6.3 1.6 1.1 0 2.2.1 3.3.4.9.2 1.8.2 2.7 0 1-.2 1.4-.4 1.2-1.2z" fill="#d3d2ca"/><path d="m16.9 15c1.5-1.6 3.2-3 5-4.3.4.6 0 1-.3 1.4-1 1.4-2.2 2.5-3.4 3.7-.4.4-.8.8-1.2 1.3 1.2-.7 2.4-1.3 3.7-1.9.8-.4 1.6-.5 2.2.3.2.3.6.5.9.7.6.6.7 1.2.5 2.1-.8 4-2.4 7.8-2 12 .2 2.4.7 4.5 2.3 6.4 1.6 2 3.2 3.9 3.8 6.5.2.9.9 1.1 1.8.8.4-.2.8-.4 1.2-.7 4.3-3.9 9-7.3 13.8-10.6 2.8-1.9 5.7-3.8 8.6-5.6.7-.4 1.4-.9 2.1-1.4.3-.2.7-.5 1.1-.5.9.1.9.6.4 1.2-2 2.1-4.5 3.7-6.7 5.5-.4.3-.7.6-1.1.9-.4.2-.6.5-1 .8-.3.2-.6.6-1 .1.3-1.1 1.3-1.6 1.8-2.1-3.6 2.1-7.2 4.9-10.7 7.7-2.5 2-4.8 4.3-7.1 6.5-1 .9-1.9 1.8-3 2.7-1 .8-1.9.6-2.5-.6 0-.1-.1-.2-.1-.3-.7-3.7-2.9-6.7-4.8-9.9-1.2-2.1-2-4.4-1.7-6.9.1-.7.1-1.5 0-2.2-.3-1.9.1-3.8.1-5.7 0-1-.1-2-.5-3-.3-.9-.8-1-1.4-.4-1.4 1.2-2.6 2.5-3.6 4.1-3 4.8-4.4 10.3-6 15.7-1.2 4-1.7 8.2-2.7 12.2-.1.3-.1.7-.1 1 .3 3.9.1 7.8 1 11.6.2.7 0 1.4.3 2.1.4 4.1 2 7.7 3.8 11.3.7 1.5 1.5 3 2.3 4.4.2.3.3.6 0 .9-.6 0-.8-.4-1-.8-2.5-4-4.6-8.5-5.9-13.4-.4-1.5-.4-3-.6-4.5-.4-3.7-.8-7.5-.9-11.2-.1-2.1.4-4.1.5-6.2.3-4.4 1.7-8.6 2.7-12.8.2-1 .3-2.1.6-3.1-1.2 1.7-1.7 3.7-2.4 5.6-1.9 5.7-3 11.5-3.3 17.5-.2 3.7.5 7.4 1.2 11.1 1.1 5.8 3.4 11.2 6.2 16.4 1.3 2.4 2.8 4.6 4.5 6.7.3.4.8.8.6 1.4-.6.2-.8-.2-1.1-.5-3.3-3.9-6.2-8.1-8.1-12.9-1.8-4.7-3.3-9.6-3.7-14.7-.1-2-.5-4.1-.4-6.1.1-6.1 1-12.1 2.7-17.9 1.3-4.4 3.3-8.5 5.3-12.6 1.2-2.3 2.9-4.3 4.7-6.3.9-1.1 1.9-2.2 2.6-3.5z" fill="#454040"/><path d="m40.3 1.8c.4.2.8.4 1.3.4 2.9.6 4.5 2.8 4.2 5.8-.1 1.8-.7 3.3-1.4 4.8-.8 1.7-1.5 3.5-1.4 5.4 0 .6-.2 1.1-.2 1.7 0 1.3.9 2 2.2 1.8 1.8-.3 3.4-.8 4.6-2.4.1-.1.3-.3.4-.3 2.4.1 4-1.9 6.1-2.6.4-.2.7-.2 1 .2.3.7.9.6 1.5.5 4.3-.9 8.6-2 12.9-2.8 2.1-.4 4.4-.1 6.5.3.5.1 1.1.3 1.2.9s-.4.9-.8 1.2c-1.3 1.1-2.9 1.9-4 3.2-.7.8-1.6 1.5-1.3 2.6s1.4.5 2.2.8c.4.1.8.2 1.2.1.8-.1 1.5.1 1.8 1 .3.7 1 .7 1.7.6 1.8-.5 3.7-.4 5.6-.6 2.4-.2 3-.5 3.8-2.7.1-.4.3-.6.7-.5.2 0 .8-.1.5.5-.4.8-.6 1.7-.8 2.5-.9 1.8-.9 1.8-2.8 1.4-.4-.1-.8-.2-1.2-.1-1.2.5-2.5.3-3.7.4-.9 0-1.6.2-2.4.5-1 .5-2.1.8-3.3 1-1.1.2-2-.2-2.5-1.1-.3-.6-.8-.8-1.4-1-2-.4-2.6-1.9-1.4-3.6s2.5-3.2 4.2-4.5c.4-.3 1.2-.7.9-1.4s-1.1-.4-1.6-.4c-1.4 0-2.8.2-4.1.7-3.1 1.2-6.4 2.2-9.5 3.5-3.7 1.5-7.1 3.6-10.7 5.4-1.5.8-3.1 1.5-4.5 2.4-1.7 1-3.7 1.1-5.5.6s-2.7-2.2-3-4c-.7-3.2.5-6.1 1.9-8.9 1.1-2.1 2.2-4.2 2.7-6.5s-.1-4.6-2.9-5.3c-.3-.1-.8 0-.8-.5.6-.7 1.3-.9 2.1-1z" fill="#c4c1b8"/><path d="m14.8 89.6c-1.3-1.9-2.5-3.8-3.8-5.7-3-4.6-5.3-9.5-6.7-14.8-1.1-3.8-1.8-7.8-2.1-11.8-.2-3.1.2-6.1.5-9.1.2-3 1-5.9 1.7-8.8s1.7-5.8 3.1-8.5c.3-.6.4-.6 1.2-.9-.6 2.7-1.1 5.3-1.8 7.9-1.1 4.1-1.7 8.2-2 12.4-.3 4.1.1 8.1.6 12.1.2 1.7.3 3.4.5 5.1.3 1.9.9 3.7 1.5 5.4 1.3 3.2 2.8 6.4 4.6 9.4.2.3.4.6.7.8.1 0 .1.1.2.1 1.5 2.1 3.1 4.1 4.8 6 1.3 1.5 2.8 2.8 4.3 4 1.7 1.4 3.2 2.9 4.6 4.5.5.6 1.1 1 1.8 1.4 2.4 1.2 4.8 2.5 7.2 3.6 2.1.9 4.3 1.4 6.6 1.9 4.9 1.2 9.8 1.2 14.8 1.5 2 .1 3.9.1 5.8-.5 1.3-.1 2.5-.4 3.6-1 1.1-.5 2.2-.9 3.4-1.2.4-.1.9-.2 1.3 0 .2.7-.5.6-.8.8-1.5.7-3.2 1.1-4.6 2.1-1.5.4-3.1.5-4.6.6-3.5.4-7 .4-10.4 0-.7-.1-1.4 0-2.2.2 3.3.2 6.5 1 9.8.8.2-.1.4-.1.6-.1.5 0 1.1-.2 1.4.4-.2.3-.5.2-.7.3-8.5.8-16.8 0-24.8-3.1-2.7-1.1-5.3-2.6-7.8-4-.1 0-.1-.2-.2-.3-.8-1.3-2.1-2-3.3-2.8-3.4-2.3-6-5.4-8.6-8.5-.2.2-.3 0-.2-.2z" fill="#5d5957"/><path d="m93.4 79.8c.4.3.8.6 1.1.9.5.3.9.7.5 1.3-.3.5-.9.4-1.3.1-1.3-.7-2.6-.1-3.9-.1-.6 0-1.3.2-1.9.1-1.3-.1-2.5.3-3.4 1.1-1.5.5-3.1.1-4.8-.3 1.2 1.7 1.9 3.4 2.2 5.3.3 1.3.2 2.6 0 3.9-.1.4-.1.9-.3 1.3-.2.3-.4.6-.8.5-.4 0-.5-.4-.6-.7-.1-1-.1-2-.2-2.9-.2-1.8-.5-3.6-1.4-5.2.1.4.2.9-.4 1.1-.5.2-.9-.1-1.1-.5s-.5-.8-.7-1.1c-.5-.7-1.2-1.2-1.6-2-.3-.5-.8-.6-1.3-.5.1.5.5.9.5 1.5.1.9 0 1.7.1 2.6.1.5-.1 1-.7 1.2-.5.2-.7-.3-.9-.6-.3-.5-.5-1-.8-1.5-.7-1.5-1.8-2.8-3-4 .9 1.2 1.4 2.5 1.4 4 0 .4.1 1-.5 1.1s-.8-.3-1-.8c-1-1.9-2.2-3.7-3.5-5.5-.6-.8-1.3-1.2-2.3-1.6.2 1 .8 1.7 1 2.5.1.7.9 1.6-.1 2-.8.4-1.1-.7-1.4-1.3-.9-1.5-1.6-3-3.1-4-.3.5-.1 1.3-.9 1.3-.7 0-.9-.7-1.2-1.3-.2-.3-.2-.7-.2-1-.2-.8-.8-1-1.5-1s-.6.6-.7 1.1c0 .3 0 .5-.1.8s-.3.5-.6.4c-.3 0-.4-.3-.5-.6-.1-.4-.1-.8-.2-1.1-.1-.5-.1-.9-.6-1.3-.9-.7-1.1-.7-1.8.2-.2.3-.5.6-.9.5s-.3-.5-.5-.8c-.5-.8-1.1-1.6-1.5-2.5-.1-.1-.3-.2-.4 0-.9.9-1.2.9-1.6-.4-.2-.8-.7-1.2-1.4-1.5-.1-.1-.3-.2-.4-.1-1.5.5-2.3-.6-3.2-1.4-.6-.6-1.5-.3-2-.8-.3-.8-.7-1.5-1.7-1.7-.1 0-.2-.1-.3-.2-.3-.5-1.3-.4-1.2-1.3.5-.3.9 0 1.3.2 1.4.8 2.8 1.4 4.4 2-1.2-1.4-2.7-2.1-4-3-1.5-1-3-1.9-4.6-2.6-1-.5-1.1-.6-.4-1.7.2-.2.5-.4.9-.4.4.3-.2 1.1.6 1.3.7.4 1.5.8 2.3 1.1 1.8 1.2 3.7 2.2 5.5 3.4.7.5 1.5.9 2.2 1.4 3.6 1.8 6.9 3.9 10.6 5.5 2 .9 4 1.9 6.2 2.5 3.7 1.4 7.3 2.8 11.2 3.4.4.1.9.2 1.3.4 1.8.6 3.7.7 5.5 1 2.4.4 4.8.4 7.2.2 2.1-.1 4.3-.1 6.4-.4.2.2.7.1 1 .5z" fill="#201c1e"/><path d="m84.3 10.5c.8.6.5 1.1-.3 1.4-1 .4-2 .5-3 .2-2.1-.6-4.4-.3-6.5-.6-.4-.1-.8 0-1.2-.3-4.1-2.6-8.8-3.7-13.3-5.2-3.7-1.3-7.2-3-10.9-4.2-1.2-.4-2.5-.4-3.7-1 1.3-.6 2.7-.6 4-.6 2.5-.1 5.1-.2 7.6.1 1.6.2 3.2.2 4.8.5 3.2.6 6.2 1.5 9.2 2.8 3 1.2 6 2.6 8.6 4.6 1 .8 2 1.5 2.9 2.3.7.6 1.2.6 1.8 0z" fill="#e1e0d9"/><path d="m38.1 2.5c.8.3 1.7.5 2.5 1 .7.5 1.1 1 1.3 1.7.7 2 .1 3.8-.7 5.6-1 2.4-2.4 4.7-3.3 7.2-.6 2-.8 4-.5 6 .3 1.9 2.3 3.5 4.2 3.6s3.6-.6 5.3-1.4c6.4-3.2 12.4-7.1 19.4-9.1 2.2-.7 4.3-1.8 6.7-2.1 1-.1 2-.1 2.9-.1.8 0 1.1.8.6 1.4-.4.5-.9 1-1.5 1.4-1.5 1.1-2.7 2.6-3.7 4.1-1 1.4-.4 2.6 1.2 3 .8.2 1.5.3 1.8 1.3s1.9 1.2 3.5.5c2.2-.9 4.3-1.2 6.7-1.3 1.3-.1 2.6-.3 4 .1.4.1.7-.3.8-.6.2-.3.1-.8.6-.9.4.4.3.8.3 1.3-.1.8-.2 1.6-.9 2.2-.1.1-.2.1-.4.1s-.4 0-.5-.2c-.8-1.2-1.9-1-3.2-.8-2.9.6-5.8 1-8.7 1.4-1.6.5-3-.1-4.2-1.1-.5-.4-1-.5-1.6-.7-1.6-.5-2.3-2-1.5-3.5.4-.8.8-1.5 1-2.4.1-.7.7-1 1.2-1.4.6-.4 1.2-.7 1.6-1.2.2-.2.3-.5.2-.8s-.4-.2-.7-.2c-1.4.1-2.7.2-4 .8-2.8 1.3-5.9 2.1-8.7 3.4s-5.5 2.8-8.2 4.4c-2.4 1.4-4.8 2.8-7.2 4.1-4.1 2.1-8.2.2-9.4-4.4-1-3.7-.1-7 1.6-10.3 1.1-2.1 2.2-4.2 2.5-6.7.2-1.6-.4-2.5-1.9-2.7-1.6-.2-1.6-.2-1.5-1.9.8-.4 1.6-.7 2.4-.8z" fill="#b2afa7"/><path d="m14.8 89.6c2.8 3.4 5.7 6.8 9.4 9.3l1.8 1.2c.6.3.9.8.9 1.5-2-.9-3.7-2.2-5.4-3.5-2.3-1.7-4.4-3.6-6.3-5.6-3.3-3.5-6.1-7.3-8.4-11.5-2.7-4.8-4.4-9.9-5.6-15-.6-2.3-.9-4.7-1-7.2-.1-1.2-.2-2.4-.2-3.6-.1-6.7 1.1-13.1 3.3-19.4 1.9-5.3 4.6-10.2 8.1-14.7 1.7-2.2 3.4-4.3 5.5-6.1-.1 1.5-1.3 2.4-2.1 3.4-3.5 3.8-5.8 8.2-7.9 12.9-1.3 2.9-2.2 5.9-3 9-1.1 3.8-1.6 7.8-1.9 11.7-.4 5.4.2 10.8 1.5 16 1.5 6 3.8 11.7 7.5 16.7 1.3 1.7 2.3 3.5 3.8 4.9z" fill="#2a2527"/><path d="m106.9 20.3c.4-.5.7-1 .9-1.6.6.2.3.6.2 1-.1.6-.5 1-.6 1.5.4-.8.8-1.8 1.5-2.5.8-1.3 1-2.8 1.7-4.1 0 2.3-.5 4.5-1.5 6.6-.1-.1-.2-.1-.3 0-1.3 2.5-3.4 4.4-5.4 6.4-.3.3-.7.5-.7 1v.1c-.1.1-.1.2 0 .1 1.1-.7 2.3-1.2 3.3-1.9.9-.7 1.7-1.5 2.6-2.2.4.5 0 1-.3 1.3-1.1 1.3-2.2 2.5-3.9 3.1-2.3.8-4.3 2.2-6.7 2.8-.5.1-.8.5-1.1.8-.2.2-.5.2-.7.4-.6.3-.2.7 0 1.1.6 1.2-.5 1.7-.9 2.4-.3.6-.9.3-1.4.1-.4-.2-.9-.2-1.3 0-.7.3-1.4.6-2 .9-.9.4-.7 1.4-.6 2.2 0 1 0 2-.2 2.9-.2.8-.6 1.2-1.3 1.1-1.7-.2-3.2.5-4.6 1.3-.5.3-.9.7-1.5.3-.5-.4-.2-1-.1-1.5 0-.2.1-.3.1-.8-.6 1.1-.9 2-1.1 2.9-.4 1-.5 2.1-.7 3.2-.2.3-.2.8-.7.7s-.4-.6-.3-1c0-.3 0-.5.1-.8 0-.1 0-.2.1-.4.2-.7.1-1.4.1-2.1 0-1 .2-1.9.5-2.9.2-.6.1-1-.3-1.4-.3-.5.1-.8.3-1.1.7-.6 1.4-1.2 2-1.8.3-.3.7-.6 1.1-.2s-.1.8-.3 1.1c-.3.4-.7.7-1 1.3 2.1-.9 3.5-2.3 4.6-4s2.1-3.3 3.1-5c.3-.5.6-1.2 1.2-.8.5.3.1 1-.2 1.4-.2.4-.4.8-.5 1.2.9-1.9 2.3-3.6 3.1-5.6.3-.7.5-1.3.3-2.1-.1-.6.1-1.1.2-1.7.1-.2.2-.4.5-.2.2.4.2.9.2 1.3s.2.8.6 1c.3 1.1-.3 2.1-.7 3.1-.6 1.2-1.3 2.4-1.9 3.7 2.8-2.7 4.6-5.8 6.3-9.1.3-.5.3-1.2 1.1-1.2v1.9c.7-.2.9-.7 1.4-1 .3.4.1.7-.2.9-1.4 1.3-2.1 2.9-3.1 4.5-.3.5-.6.9-1.1 1.5 1.2-.6 2.4-.7 3.4-1.3 1.5-.9 2.7-1.8 3.2-3.6.3-1.1 1.5-1.6 2.1-2.5-.4.2-.5 1-1.2.7-.2-.5.2-.8.5-1 .6-.7 1.3-1.6 2.1-2.4z" fill="#383c40"/><path d="m56.1 26c-1 1.1-2.4 1.7-3.6 2.5-2.6 1.8-5.3 3.5-7.9 5.2-4.1 2.8-8.1 5.9-12 9.1-.7.6-1.3 1.4-2.3 1.7-1.1.4-2 0-2.2-1.1-.4-2.4-1.9-4.2-3.4-6-1.7-2-2.4-4.3-2.6-7-.2-3.4.6-6.6 1.5-9.8.3-1 .2-2 .8-2.9.2-.3-.1-.6-.3-.8-.6-.6-1.2-1.2-1.8-1.7-.2-.2-.5-.1-.8 0-1.3.7-2.7 1.2-3.9 2.1-.3.2-.6.8-1 .3-.3-.4.2-.7.5-1l3.6-3.6c.6-.6 1.2-1.3 1.2-2.2 1-.8 2-1.6 3.2-2.1.5.7-.1 1-.4 1.4l-.8.8c-.3.2-.5.5-.8.7-.6.4-1 .9-1.4 1.4-.2.3-.2.6.3.6.4 0 .8-.2 1.2-.4.7-.4 1.5-.5 2.3-.5 1.3.1 2 .8 2.1 2s-.2 2.3-.6 3.4c-.7 1.8-1.3 3.6-1.9 5.5-.7 2.1-.8 4.3-.7 6.4.1 1.8.9 3.4 2 4.8 1.3 1.6 2.3 3.4 3.1 5.3.8 1.7 1.4 1.8 2.9.8 3.7-2.4 7.2-4.9 10.6-7.6 1.6-1.4 3.4-2.4 5.2-3.5 1.6-1.1 3.2-2.2 5-3.2.9-.3 1.8-1 2.9-.6z" fill="#585351"/><path d="m103 47.9c.3.8.5 1.6.5 2.5 0 2.5.1 4.9 0 7.4-.2 2.9-.7 5.7-1.8 8.3-.4 0-.3.3-.4.6-1.1 3-2.4 5.8-4.1 8.4-1 1.5-2.2 3-3.6 4.2-.7.6-.9.6-1.2-.3 0-.1.1-.2.1-.3 1.6-1.9 3.2-3.8 4.5-6 1.1-1.9 2.2-3.8 2.9-6-.6 2-1.7 3.8-2.8 5.7-.1.1-.2.1-.3.2-.9-.1-.5-.7-.3-1.1.5-1.2.9-2.4 1.4-3.6.6-1.4.7-2.8 1-3.7-.2 1.1-.6 2.6-1.4 4.1-.1.1-.2.2-.4.2-.6-.4-.3-.9-.1-1.4.9-2.7 1.4-5.5 1.7-8.2.3-.5.4-.9.3-1.5l-.6-3c-.1-.4-.1-.8.1-1.2.5-.3.5-.7.5-1.2 0-2.2-.3-4.4-.9-6.5-.7-2.5-1-5.1-2-7.6-.1-.5-.6-1.1.1-1.4.5-.2.7.6.9 1 .4.8.6 1.7.8 2.6.6 2.4 1.6 4.7 1.7 7.3.1-.2-.1-.4-.1-.5 0-.3-.1-.7.3-.8s.6.3.7.6c.2 2 1 3.8 1.1 5.1-.5-3.7-1.3-8-3.7-11.8-.5-1.9-1.7-3.7-1.7-5.8.7-.5 1 .1 1.3.6.8 1.3 1.5 2.6 2.1 3.9 1.3 3 2.7 6 3.2 9.3 0 .1.1.2 0 .3.2-.1 0-.3.2-.4z" fill="#e4e2dd"/><path d="m35.8 3.2c.1.2.4.4.4.5-.6 1.4.4 1 1.1 1.1 1.6.1 2.4 1.3 2.2 2.9-.3 2.7-1.5 4.9-2.7 7.2-1.7 3.2-2.4 6.5-1.3 10 1.4 4.5 5.5 5.9 9.4 3.6 4.2-2.4 8.3-4.8 12.5-7.1 3-1.6 6.2-2.5 9.2-3.8.9-.4 1.8-.6 2.6-1.1 1.2-.7 2.5-.2 3.8-.6.2-.1.6.2.6.4.1.4.1.9-.3 1.3-.5.5-1.1.9-1.7 1.3-.7.4-1.2.9-1.3 1.9-.1.8-.7 1.4-1 2.1-.5 1 0 2.5 1 2.7 1 .3 2 .7 2.8 1.4 1 .8 2.1.7 3.2.6 0 .6-.5.7-1 .7-1.2.1-2.6.4-3.7-.1-1.4-.6-3-1.2-3.9-2.7-.5-.7-.3-1.5 0-2.3.3-.6.3-1.1-.5-1.5s-.4-1 .1-1.3c1.2-.9 2.4-1.6 3.7-2.2.4-.2.9-.3 1.2-.9-.6-.3-1.1-.1-1.6.1-2.2.9-4.5 1.7-6.9 2.3-3.6 1-6.8 3-10 4.8-3.2 1.7-6.1 3.9-9.3 5.7-1.3.7-2.7 1.3-4.2 1.3-2.6.1-4.4-1.1-5.6-3.3-2.2-4.1-2.1-8.4-.2-12.6.9-2.1 1.8-4.2 2.3-6.4.5-1.9-.3-3.2-2.6-3-.5 0-1 .1-1.3-.4-.1-.7.8-.9.7-1.6.7-.5 1.5-.8 2.3-1z" fill="#a6a29a"/><path d="m84.3 83.2c.7-.9 1.6-1.4 2.8-1.4 1.8.1 3.5-.1 5.3-.4.4-.1.8-.1 1.2.3s.9.6 1.3.2-.1-.8-.3-1.2c.6 0 1 .5 1.2 1 .4 1.1 1.3 1.4 2.3 1.7.1 0 .2.1.3.1 1.9-1.1 3.2.1 4.6 1.1.2.1.7.4.4.8-.2.3-.5-.1-.8-.2-.1 0-.3-.1-.4-.2-.4-.1-.8-.2-1.2-.4.3.2.7.3.9.6.7.6 1.7 1.3 1.2 2.1-.3.5-1.5-.4-2.2-.9 1 1.2 2.4 2.2 1.8 4.1-.7-.8-1.1-2.1-2.6-1.7.4 1.1 1.1 2.2.6 3.6-1.3-1.3-1.2-3.5-3.1-4.5.5 1.2 1.4 2.1 1 3.5-.7-.9-1.4-1.7-2.1-2.5-.4-.5-.6-.6-1 0-.2.1-.3.1-.4-.1-.9-1.1-1.9-2-3.1-2.8-.2-.2-.5-.5-.3-.8s.6-.1.8.1c.7.4 1.3.9 1.9 1.2-.6-.9-1.5-1.6-2.4-2.3-.4-.3-1.1-1.2-1.6.1-.2.4-.9 0-1.2-.2-.7-.4-1.5-.5-2.3-.2-.4-.3-.9-.4-1.4-.4-.4 0-.9 0-1.2-.3z" fill="#342f31"/><path d="m96.6 32.6c.2-.9 1-.9 1.6-1.1 3.3-1.4 6.9-2.3 9.5-5.1.5-.5 1-1 1-1.7 1.3-1.9 2.2-4 3.4-6.1.4 1.9-1.2 5.9-3.2 8.5-1.9 2.5-4.6 3.9-7.3 5.3 1.8.2 5.7-1.2 8.6-3.9-.5 1.3-1.4 2.2-2.4 3s-2.2 1.3-3.4 1.8c-2.3 1-4.5.6-6.7-.1-.5 0-1.2.2-1.1-.6z" fill="#252223"/><path d="m87 83.9c.3-.8.9-.4 1.4-.3.6.2 1.2.5 1.9.8-.3-1-.1-1.3.8-.9 1.7.8 2.8 2.1 4 3.7-1.4-.4-2.3-1.3-3.4-1.8 1.3 1.1 2.6 2.2 3.7 3.5.9 1.2 1.8 2.4 1.8 4.1-.8-.4-1-1.3-1.5-1.8-.4-1.1-1.4-1.7-2.3-2.1-1.4-.7-2.4-1.8-3.6-2.7.4.6.8 1.1 1.3 1.6.9 1.2 1.2 2.7 1.3 4.2 0 .6-.1 1.1-.9.9-.7-.8-.9-1.8-1.4-2.7-.8-1.4-2-2.6-3.1-3.7-.5-.4-.9-.8-1.2-1.3-.1-.5-1.1-1 0-1.6.3-.2.7.2 1.2.1z" fill="#181517"/><path d="m99.8 22.8c-.5.3-.6.9-.9 1.4-1.7 3.2-3.4 6.3-6 8.8-.2.2-.4.6-1 .6 1-2.5 2.7-4.6 3.2-7.2.6-1.4 1-2.9 1.8-4.3.4-1.4.2-2.8.3-4.2.8.5.5 1.6 1.3 2.1.6-1.9.5-3.7.1-5.8 1.2 1.4 1.9 6.4 1.2 8.6z" fill="#221e20"/><path d="m104.1 23.7c.8-.1 1-1 1.9-1.3-.4.5-.7.9-1 1.2-1.1.9-1.5 2.3-2.2 3.4-1 1.7-2.6 2.6-4.5 3.1-.7.2-1.3.5-2.1.7 1.6-1.8 2.3-4.2 4-5.9.4-.4.9-.6.9-1.3 1.2-2.9 2.5-5.9 2.4-9.5.7 1.2.9 2.2.8 3.3.2 2.2.3 4.4-.7 6.4-.2.2 0 .2-.1.1l.1-.1c.1 0 .3-.2.5-.1z" fill="#1e1b1d"/><path d="m91.4 92.9c.8.1.7-.4.6-.9-.2-1.9-.7-3.6-2.2-5-.4-.3-.7-.7-.7-1.2.4-.2.7.2.9.4 1.4 1.7 3.5 2.5 5.1 3.9.3.3.5.6.6 1.1-.3-.1-.4-.3-.5-.6-.3-.4-.5-.4-.8 0-1.1 2-3 3.4-4.5 5.1-.2.2-.5.2-.7.4-.4.3-.5 0-.6-.3.5-1.2 1.6-1.9 2.4-2.8.2-.1.3-.1.4-.1z" fill="#55514f"/><path d="m88.8 95.7c.3.8.7-.4 1.1 0-5.1 4.6-10.9 7.9-17.3 10.3-.3.2-.5.2-.7-.1.1-.5.6-.6.9-.7 4.9-2 9.5-4.4 13.6-7.8.4-.3.8-.7 1.2-1.1s.7-.7 1.2-.6z" fill="#615c59"/><path d="m96.6 32.6c.1.4.6.4.9.7-.5.4 0 .7.1 1 1.8 3.5 3.6 7.1 4.7 10.9.3.9.4 1.8.6 2.7v.9c-.8-3.4-2.1-6.7-3.6-9.8-.7-1.5-1.5-2.9-2.3-4.3-.2-.4-.5-.5-.9-.5-.1-.4.3-.3.4-.4-.4-.2-.8-.4-.7-1 .3-.3.5-.2.8-.2z" fill="#a9a6a0"/><path d="m102.8 28.5c-.3 0-.5-.1-.2-.4l1.6-1.6c1.7-1.6 3.3-3.4 4.5-5.5.1-.1.1-.4.4-.3.1.1.1.3.1.4-.3 1.7-1.4 3.1-2.5 4.4-.8.9-1.5 2-2.6 2.6-.5.2-.8.6-1.3.4z" fill="#231f21"/><path d="m33.5 4.2c.8 1-.4.9-.7 1.3-1.2 1-2.8 1.3-4 2.2-.3.2-.8.4-.7.9-.6 1.1-1.7 1.3-2.6 1.9-.3.2-.6 0-.7-.4.4-.8 1.1-1.3 1.8-1.8s1.4-1 2-1.7c1.4-1.2 3.2-1.7 4.9-2.4z" fill="#89847e"/><path d="m92.5 78.8c.1.6.3.9.8.3 2-2 3.9-4.2 5.1-6.8 1-2.1 2.2-4.1 2.8-6.4 0-.1.1-.4.4-.2.1.1 0 .3.1.4-1 3.2-2.4 6.1-4.2 8.9-1.2 1.7-2.5 3.3-4 4.8h-1.1c-.4-.4-.5-.7.1-1z" fill="#9a9893"/><path d="m72 105.8c.2.3.4.2.7.2-3 1.3-6.2 1.9-9.4 2.5-1.2.2-2.4.5-3.6.4.1-.1.3-.2.6-.4-.5 0-.9 0-1.2-.1.1-.5.5-.5.9-.5 3.8-.2 7.6-.9 11.2-2.2.2-.1.5-.2.8.1z" fill="#7c7772"/><path d="m28.5 6.6c-.1.8-.8 1.3-1.4 1.6-.8.5-1.5 1.2-2.2 1.8-.1.1-.3.1-.5 0 .2-.5.8-.7.7-1.4 1-.8 2.1-1.5 3.4-2z" fill="#605b59"/><path d="m96.8 22.2c-.4 1.5-.8 3-1.8 4.3-.6.1-.9-.1-.9-.8v-1.7c-.5-1-.3-2-.2-3 .1-.1.1-.2.3-.3.8.7 1.7.4 2-.6.5.6.2 1.4.6 2.1z" fill="#625e5c"/><path d="m89.8 25.1v-1.4c.1-.8.1-1.7.9-2.3.8 1 .3 2.3.5 3.5.9-.5.9-1.7 1.8-2.2.2.2.2.5.2.8-.2 1.3-.5 2.5-1.4 3.5-.3.3-.5.6-1 .5-.4-.1-.3-.6-.3-.9-.3-1 0-2 .1-3v-.1c-.2-.1-.1.1-.1.2-.3.6 0 1.2-.7 1.4z" fill="#9f9b94"/><path d="m92.9 23.7v-.9c.2-1.2.3-2.5.5-3.9.5.7.6 1.2.7 1.8l-.1.1c-.4.5-.2 1.2-.4 1.7-.1.5.1 1.1-.7 1.2z" fill="#625e5c"/><path d="m6.4 66.6c-.3-1.9-.6-3.8-.9-5.6-.5-2.5 0-5-.4-7.5-.3-1.8.5-3.4.7-5.1.8-5.5 2.4-10.7 4.1-16 1-3.2 2.2-6.3 4.2-9 1.1-1.5 2.2-3.1 4-4.1.6-.4.8-.3 1.1.4 1.1 2.4.6 4.9.5 7.3-.1 1.1.3 2.3.2 3.4-.4 2.3.3 4.5 1.1 6.6.5 1.3 1.3 2.5 2.2 3.6 1.6 2.1 2.5 4.6 3.1 7.1.4 1.6 1.2 1.8 2.4.7 3.5-3.1 6.7-6.5 10.3-9.4 3.2-2.5 6.5-5 10-7.2.3-.2.6-.3 1-.3-.8.9-1.6 1.7-2.4 2.6.1.3 0 .5-.2.6-2.1 1.6-3.8 3.6-5.7 5.3-.8.6-1.5 1.3-2 2-.1.1-.1.2-.2.2-.6.7-1.4 1.3-1.9 2.1-.1.1-.2.3-.3.4-1.5 1.9-3.3 3.6-4.8 5.5-1.8 2.3-3.9 4.4-5.4 7-.3.5-1 1.4-.5 1.7.6.4 1.1-.5 1.6-.9 1.1-1 1.9-2.3 2.7-3.5.4-.7 1.1-1 1.8-1.5 2-1.3 4.1-2.2 6-3.6 4-2.8 8.4-4.8 12.7-7 3.1-1.6 6.2-3.2 9.3-4.7 2.7-1.3 5.5-2.4 8.2-3.7 1.2-.6 2.6-.6 3.8-1.2.4-.2.9-.2 1.3.2 0 .4-.3.6-.6.7-1.1.5-2.3 1-3.5 1.4-1.4.5-2.7 1.1-4 1.7-4.4 2.2-8.5 4.8-12.9 7-2.6 1.3-5.2 2.4-7.7 3.8-1.9 1-3.5 2.4-5.1 3.8-2.5 2.1-5.3 4-7.9 6-1.9 1.4-3.9 2.8-5.3 4.7-.9 1.1-2.2.9-2.9-.3s-.7-2.5-.4-3.9c.9-3.7 1.1-7.5-.2-11.2-.5-1.2-1.2-2.2-2-3.3-2.4-3.1-4.2-6.6-4.1-10.6 0-1.7.2-3.4.1-5.1-.1-1.3 0-2.7-1.1-3.7-.4-.3-.5-.3-.8 0s-.7.7-1 1.1c-2.2 3.2-3.7 6.7-4.7 10.4-.3 1.1-.7 2.2-.9 3.3 0 .1-.1.2-.1.4-.7 1.9-.9 3.9-1.4 5.8-.6 2.5-.7 5.2-1.4 7.7-.2.8 0 1.6 0 2.5 0 3.4.6 6.7.8 10-.2.3-.1.9-.5 1.4z" fill="#3e3939"/><path d="m6.4 66.6v-1.6c.5 0 .5.4.5.7.3 3.3 1.3 6.5 2.8 9.4 1.1 2.3 2.2 4.6 3.5 6.8.9 1.5 2 2.9 3.2 4.1 4.4 4.6 8.7 9.3 14.3 12.4 4.6 2.6 9.6 4.4 14.8 5.5 2.5.5 5 .7 7.6.7.7 0 1.4-.1 2-.3.3-.1.7-.1.7-.5.1-.4-.3-.5-.6-.6-.3-.2-.7-.3-1-.6-1.1-.9-1.2-1.8.1-2.6.8-.5 1.3-1.2 1.7-2.1.5-1.2.2-2.3-.8-3.2-1.5-1.3-3.1-2.3-4.8-3.2-3.4-1.7-6.8-3.4-9.7-5.9-3-2.5-6-4.9-8.7-7.7-1.9-2-2.9-4.6-3.6-7.3-.1-.3-.1-.7-.3-1-.9-2.2-.5-3.8 1.5-5.3.7-.5 1-1.5 2.1-1.2.2.1.3.2.3.4-.4.4-1.1.5-1.3 1.1-1 .7-1.8 1.6-1.8 3 0 .5 0 .9.3 1.4.9 1.8 1.2 3.8 2.5 5.5.7.9 1.5 1.7 2.2 2.6 2.9 3.5 6.1 6.5 9.8 9.1 1.1.8 2.3 1.4 3.4 2 3 1.6 6.1 3 9.1 4.5 1.5.8 3.2 1 4.8 1.4.9.2 1.7.6 2.5 1 .7.4 1.3.9 1.6 1.7.4 1 1.2 1.7 2.3 2 1 .2 1.8.7 1.8 1.9.1 1.4-.4 2.2-1.8 2.7-.3.1-.6.3-1 .4-1.5.2-2.7.9-3.9 1.7-1.3.9-2.9.9-4.4.8-2.9-.1-5.8-.1-8.7-.4-4.2-.5-8.5-1.2-12.5-2.9-1.5-.7-3.1-1.1-4.6-1.9-3.3-1.8-6.2-4.2-9.2-6.5s-5.5-5-8-7.8c-1-1.1-1.7-2.3-2.6-3.5-.9-1.7-1.8-3.5-2.6-5.2-1.5-3.8-3.3-7.4-3.5-11.5z" fill="#3c3838"/><path d="m49.4 32.8c1.1-1.2 2.6-2.1 3.8-3.1 1.3-1.1 2.6-2.1 3.9-3.2.9-.9 1.8-1.6 2.9-2.1.6-.1 1-.9 1.7-.4 0 .4-.1.8.5.5s1.2-.5 1.7-.8 1.1-.4 1.6 0 .4.9.2 1.5c-.2 1.2.4 2.3 1.4 2.8.5.2 1 .3 1.2.8.4.9 1 .9 1.8.7 1.2-.3 2.4-.8 3.6-.9 2.2-.2 4.4-.6 6.6-.1 0 .9-.8.7-1.3 1-1.1.1-2.2.4-3.3.2-.6-.1-1.2.2-1.7.4-3.1 1.4-6.4 2.2-9.5 3.4-.7.3-1.3.3-1.5-.6-.1-.3-.3-.4-.6-.4-2 0-2.5-1.7-3-3.1-.3-.8-.4-.8-1.1-.5-1.4.6-2.5 1.4-3.7 2.3-1.2 1-2.5 1.8-3.7 2.8-1.7 1.2-3.2 2.8-5.1 3.9-.8-.1-.6-.6-.4-1 .3-.5.7-.9 1.1-1.3 1.3-1 2.1-1.9 2.9-2.8z" fill="#7d7873"/><path d="m49.4 32.8c-.7 1.6-2.3 2.5-3.2 3.8-.2.3-.9.7 0 1 .2.5-.3.7-.6 1-1.4 1.2-2.6 2.6-4.1 3.7-.7.7-1.4 1.4-2.1 2.2-.7.7-1.4 1.3-2.1 1.9-.3.3-.8.5-1.1.2s0-.7.1-1c.2-.4.5-.6.7-1l.2-.2c.6-.8 1.5-1.4 2.1-2.3.6-.8 1.5-1.4 2.1-2.3 2-1.9 4.1-3.8 6.1-5.7.9-.2 1.2-1.2 1.9-1.3z" fill="#6a6562"/><path d="m56.1 26c-1.8.1-3.2 1.2-4.7 2.2-2.2 1.4-4.4 2.9-6.6 4.3-.5.3-1 .7-1.5 1.1-.1.1-.3.1-.5.1-.1-.6.4-.8.7-1.1s.6-.5.9-.7c.6-.6 1.3-1.1 2.2-1.5 2.3-1.4 4.5-3 6.8-4.3 1.3-.7 2.7-1.3 4-1.8.4-.1.8-.3 1.2-.1.2.6-.3.7-.7 1-.3.2-.8.2-1.1.5-.1 0-.4.2-.7.3z" fill="#66625f"/><path d="m57 25.5c.4-.7 1.4-.6 1.8-1.4.2-.5.7-.7 1.2-.7.7.3.7.7.1 1.1l-3 1.8c.3-.2.8-.7-.1-.8z" fill="#585351"/><path d="m53.3 76.3c.3.3.2.7.2 1.1 0 .2 0 .4.3.4.2 0 .3-.2.4-.4v-.8c0-.6 0-1.3.8-1.4.7-.1 1.9.7 1.9 1.4 0 .6.3 1.1.5 1.6.2.3.4.7.8.5.3-.1.3-.5.3-.8s-.3-.6.1-.8.6.3.8.5c1.4 1.2 2.1 2.7 3 4.2.2.4.4 1.2 1 .9s.1-.9 0-1.3c-.2-.9-.6-1.8-1.2-2.6-.1-.2-.4-.4-.2-.6.1-.1.4-.2.6-.1.9.3 1.7.7 2.2 1.4 1.4 1.9 2.7 3.8 3.7 5.9.1.3.3.6.6.5.4-.1.3-.5.3-.7.1-1.6-.5-2.9-1.4-4.2-.1-.2-.4-.3-.2-.7 1.6 1.3 2.9 2.7 3.7 4.6-1 .1-1.2.7-1.1 1.6.2 1.6.9 2.9 2 4s1.9 2.2 1.7 3.9c-.1 1 .2 2.1 1.2 2.6.1.1.2.2.3.2 2.5 2 1.9 3.6-.6 5-1 .5-2 .9-3 1.4-.3.1-.7.3-1 0-1.7.1-3.2.6-4.7 1.3-1.2.6-2.4.9-3.7.9-.1-.3.1-.4.3-.5 1.9-1 3.8-2.2 5.9-2.5 1.3-.2 2.2-.9 3.2-1.7.8-.6.7-1.2-.1-2-1-1-2-1.8-3.4-2-.6-.1-.9-.7-1.3-1.2-1.1-1.6-2.4-2.9-4.4-3.5-.9-.2-1.8-.4-2.7 0-1.3.5-2.5.4-3.8 0-2.1-.7-4.1-1.7-6.2-2.6-3.7-1.7-7.3-3.6-10.4-6.4-.9-.8-1.9-1.6-2.6-2.7-1.2-1.8-2.9-3.1-4.4-4.6-1.5-1.6-2.8-3.3-3.3-5.5-.1-.5-.7-.9-.6-1.6 1.2 0 1.4 1 1.6 1.7 1.1 2.8 3.2 4.7 5.4 6.6 1.1.9 2 1.8 2.7 3 1.6 2.7 4.1 4.5 6.8 5.9 3.4 1.9 6.9 3.6 10.7 4.7.5.1 1 .3 1.6.2.9-.1 1.1-.6.6-1.3-1.4-1.9-3.2-3.4-5.2-4.8-1.5-1-2.9-2-4.4-3-1.9-1.3-4-2.3-6.2-3.1-1.2-.5-2.2-1.3-3.2-2.2-.2-.2-.3-.5-.2-.7.2-.3.5-.2.7-.1.8.2 1.5.6 2.3 1 .3.2.6.4.6-.3 0-.6.6-.4.9-.2.8.3 1.6.7 2.3 1.3 2.5 2 5.3 3.2 8.3 4.3 1.4.5 2.9.4 4.4.2.3 0 .7-.1.8-.5s-.2-.6-.5-.9-.6-.5-.9-.7c-.9-.6-1.8-.9-2.7-1.5-1.1-.7-1.1-.7-1.7.5-.4.3-.8.5-1-.2.6-.6.2-1.6.8-2.6z" fill="#474342"/><path d="m29.4 69.3c1.2 3.5 3.1 6.6 6.2 8.8 1 .7 1.5 1.8 2.2 2.7 2.3 3 5.3 5.1 8.6 6.9 2.9 1.5 5.9 2.9 9 4.1 1.7.7 3.4 1.2 5.4.5 1.8-.7 3.4.3 4.8 1.3.7.5 1.3 1.1 1.8 1.9.7 1.1 1.5 1.9 2.9 2 .6 0 1.1.3 1.3.9.1.3.4.5.7.7 1.6.7.9 1.9-.1 2.7-1.3 1.1-2.8 1.5-4.3 1.8-1.9.4-3.4 1.6-5.1 2.4-2.4 1-5 .5-7.5.4-1.2-.1-2.4-.2-3.6-.2-2.7.1-5.4-.5-8.1-1-3.5-.7-7-1.5-10.2-3.1-2.1-1.1-4.2-2.2-6.2-3.3-.6-.3-.8-.9-1.2-1.3-2.1-2.3-4.6-4.1-6.8-6.2-2.5-2.5-5-5-6.6-8.1.5.2.6.6.9 1 2 2.5 4.1 4.9 6.4 7.1 2.7 2.5 5.7 4.8 8.7 7 4.1 3 8.8 4.8 13.7 5.9 3 .6 6 1.4 9.1 1.4 2 0 4 .1 6.1.3 2.2.2 4.4.1 6.1-1.7.3-.3.8-.5 1.2-.5 1 0 2-.5 2.9-.9 1-.4.8-1.4 1-2.2.1-.8-.5-1.3-1.2-1.4-1.6-.3-2.5-1.2-3.2-2.7-.6-1.3-2.1-1.7-3.3-2-2.9-.5-5.6-1.7-8.3-3-4.7-2.5-9.7-4.8-13.8-8.7-3.2-3.1-6.5-6.1-8.7-10.1-.6-1.1-.9-2.4-1.3-3.6.1-.1.2-.1.3-.1.1.1.2.2.2.3z" fill="#454040"/><path d="m71.3 103.7c.3 0 .6-.1.9-.2 1.4-.4 2.8-.9 4-1.8.3-.2.6-.3.9-.4.9-.4 1.4-1.2 1.9-2 .8-1.3 1-2.1-.3-3.2-.8-.7-1-2.1-1-3.2-.1-1.2-.6-1.9-1.6-2.4-.3-.2-.6-.3-.9-.5-1.5-.8-1.5-.8-.9-2.3.5-1.3 1-1.6 2.3-1 .3.1.7.4 1.1.4 1.7.1 2.6 1.1 2.4 2.8-.2 1.3.3 2.5.2 3.8 0 .3.1.6.4.7s.5-.2.7-.4c.8-.8 1.2-1.6.8-2.8-.3-1-.2-2.1-.6-3.1-.5-1.8-1-3.6-2.3-5.1-.1-.1-.3-.3-.1-.5.1-.1.3-.1.4 0 1.5.7 3.1.6 4.7.6.5 0 1 .1 1.5 0 .6-.1.9.2 1.2.7-.5.5-.9 0-1.3 0-.6-.1-.7.2-.5.6.1.3.5.5.6.8l1.1 1.1c.3.6-.1.6-.5.6-.4-.1-.6-.4-.9-.6-1.2-1.2-2.7-1.9-4.7-2.3.5.5.8.8 1.1 1.2s.6.7 1 .9c.6.5 1.2 1 1.7 1.7.3 1.4 1.3 2.5 1.7 3.8.2.9.6 1.7.5 2.7-.1.8 0 1.2.9.9.1-.1.3 0 .4.1.1.7-.4 1-1 1.2-.7.2-1.3.6-1.9 1.1-2.1 1.6-4.5 2.9-6.9 4.2-1.4.8-2.5 2.1-4.3 2.3-1.4.2-2.7.9-4 1.5-1.2.6-2.5.7-3.7 1-.2.1-.4 0-.6-.2 1.3-1.1 3-1.4 4.5-2.1.4-.3.9-.3 1.1-.6z" fill="#5d5957"/><path d="m74.3 103.7c2.3-.6 3.9-2.3 6-3.4 2.1-1 4-2.3 5.8-3.8.6-.5 1.8-.2 2.2-1.2 0 0 0-.1.1-.1.7-.6 1.2-1.4 1.8-2.1.3-.3.6-.6 1-.4.1.1.1.1.1.2v.1c-.6 1.1-1.6 1.7-2.3 2.7-2 1.5-3.8 3.2-5.9 4.6-3.4 2.3-7.1 4-10.9 5.5-2.7.9-5.3 1.8-8.1 2.1-1.2.1-2.5.2-3.7.4-.4 0-.8-.1-1.2.2h-.4c-.6.2-1.2.1-1.9.1.1-.7.6-.9 1.1-1 1.1-.4 2.2-.4 3.4-.5 2.8-.2 5.5-.7 8.1-1.3 1.1-.3 2.1-.8 3.1-1.3.4-.4 1-.6 1.7-.8z" fill="#aeaba3"/><path d="m74.3 103.7c-3.3 2-7 2.7-10.7 3.2-2.1.3-4.2.2-6.2 1.1-.2.1-.4.1-.5.5h1.6c-.7.5-1.6.3-2.3.2-2.5-.2-5-.6-7.5-.9-.4 0-.8-.2-1.2-.4 1.4-.5 2.8-.6 4.3-.5 2.6.3 5.3.2 7.9.1 1.8-.1 3.6-.4 5.4-.6.3 0 .5 0 .7-.2 2.4-.2 4.5-1.2 6.6-2 .6-.3 1.2-.6 1.9-.5z" fill="#7c7772"/><path d="m60.4 75c-2.2-.5-4.1-1.6-6.2-2.4-.2-.5.1-.7.5-.8s.8-.1 1.1 0c2.8.9 5.7 1.2 8.5 2.1.9.3 1.8.4 2.7.5.1-.5-.3-.6-.6-.8-3.4-2.5-6.9-4.7-10.2-7.2-.1-.1-.3-.2-.4-.3-.7-.7-2-1-1.7-2.3.5-2.1 1.7-3.2 3.4-3.3 1-.1 1.8-.5 2.6-1.1 3.5-2.5 6.8-5.2 10.8-7.1 1.3-.6 2.6-1.2 3.8-2 .9-.5 1.8-1 2.8-1.3.6-.2 1.3-.3 1.1.8-1.1.1-1.9.6-2.8 1.1-2.9 1.7-5.6 3.6-8.6 5.1-1.3.7-1.9 1.8-2.2 3.1 0 .1 0 .3-.1.4-1.2 3.2.1 5.8 2 8.3 1.8 2.4 4.2 4.2 6.4 6.3.4.4.8.7 1.1 1.2.3.4.7.8.4 1.3-.3.4-.8.3-1.3.2-2.2-.4-4.5-.8-6.7-1.3-1.6-.4-3.2-.8-4.9-1-.6.1-1.1.2-1.5.5z" fill="#cfbeba"/><path d="m89.8 25.1c.1-.5.3-1 .4-1.4.5 0 .4.3.4.6.1 2.3-.6 4.3-1.8 6.2-.8 1.2-1.5 1.4-2.8.9-.8-.4-1.6-.3-2.4.1l-1.8 1.2c.1.1.2.1.3.1.3 0 .8 0 .8.4.1.5-.3.7-.7.7-1 .2-2 .5-3 .6-.4 0-.8-.1-1.1.2.5.3.9.3 1.4.3.3 0 .8-.1.8.4s-.4.6-.8.7c-.9.1-1.8.2-2.7-.1-.6-.2-1.2-.3-1.5.4-.2.4-.7.4-1.1.5-.6.1-1.3.2-1.8.7-.4.3-.8.4-.4 1.1.4.6-.3.9-.8.8-1.4-.5-2.4.1-3.4 1 0 0-.1 0-.1.1-.6.4-1.5.2-1.8.8-.4.7.5 1.2.6 1.9s-.3 1.1-1 1.1c-.3 0-.6-.2-.9-.3s-.7-.4-1 0c-.3.3.1.6.2.9.4.9.1 1.3-.9 1.3-.6 0-1-.2-1.5-.4-1.6-.7-2.1-.6-3.2.7-.5.5-1.2.7-1.8.9-2.3.8-4.3 2-6.4 3.2-.2.1-.3.3-.5.5-.5.5-.3.8.3.9 1 .3 2.1.4 3.2.3.4 0 1-.2 1.1.5 0 .5-.5.8-.9.8-1.5.1-3 .1-4.4-.5-1.3-.6-1.3-.6-2.7.4 1.4.4 2.7.8 4.1.6.8-.1 1.5-.2 2.3-.2.4 0 .8.1.8.6.1.4-.2.6-.6.7-1.2.3-2.4.7-3.6.5-1.4-.3-2.9-.3-4.3-.9-.3-.1-.7-.2-1.1.1.8.2 1.5.6 2.2.8.4.1.9.2.7.8-.4.3-.8.2-1.2.1-1.1-.2-2.2-.2-3.3-.5-.7-.2-1.3.2-1.8.6-2.1 1-4.1 2.2-6.1 3.2-.2.1-.4.2-.6.1-.2.1-.5.3-.7.4-.8.6-1.2 1.5-2.1 1.9-.2.1-.4.3-.7.4-.4.2-.8.3-1.1-.1s.1-.7.3-1c.3-.3.6-.6.8-.9 1.1-1.1 2.3-1.9 3.6-2.6 1.2-.4 2.2-1.2 3.3-1.8 6.2-3.8 12.3-7.7 18.6-11.4 3.6-2.2 7.3-4.1 11.1-6 .7-.3 1.2-.8 1.8-1.2 2.4-1.6 4.8-3.1 7.6-4.1.9-.3 1.7-1 2.6-1.4.5-.2 1-.5 1.6-.5.3 0 .7-.1.9-.4 1.3-1.4 2.9-1.7 4.7-1.7 1.6 0 2.6-.7 3.3-2 .1-.1.1-.2.2-.3 0-.9.4-1.5.4-2.3z" fill="#110f11"/><path d="m78.6 49.9c-.1-.6-.4-.7-.9-.5-1.8.6-3.5 1.7-5.2 2.6-1.1.5-2.1 1.2-3.2 1.7-3 1.2-5.1 3.8-8 5.2-.6.3-.9.9-1.4 1.3-.8.5-1.6.9-2.5.8-1.1-.1-1.8.6-2.2 1.6-.2.1-.2.4-.3.6-1.2 1.1-.2 1.8.6 2.3 3 2.1 6.1 4.2 9.1 6.3.9.6 1.7 1.3 2.6 1.8.3.2.7.4.5.9-.2.4-.6.2-.9.1-2.3-.3-4.4-1.2-6.7-1.6-1.4-.2-2.8-.6-4.2-1-.6-.2-1.3-.3-1.6.5-2.5-.8-4.5-2.5-6.8-3.5-1.3-.6-2.7-1.1-3.8-2 .4-.8.9-.3 1.3-.2.6.2 1.2.6 1.9.6 1.5 0 2.5-.5 3.2-1.9.5-1 1-2 1-3.2 0-.7.5-1.1 1-1.4 1.7-1.4 3.7-2.1 5.8-2.7 2.4-.6 4.5-1.7 6.6-3.1 3.8-2.5 7.7-4.8 11.8-6.7.8-.4 1.6-.5 2.3.2s.8 1.6.3 2.5c-.1 0-.2 0-.3-.1-.3-.4-.3-.7 0-1.1z" fill="#b79e9c"/><path d="m78.6 49.9v1.1c.4.5.3 1.1.2 1.6-.1.2-.3.4-.4.2-.6-.7-1.1-.3-1.7 0-1.4.7-2.5 1.8-4 2.4-1.3.6-2.6 1.1-3.9 1.7-1.6.7-2.3 1.8-2.2 3.6.1 1.4.4 2.9 1.6 3.9.1.1.3.3.3.5.6 2.2 2.4 3.5 3.8 5.2.3.4.8.7 1.1 1.2.4.6.8 1 1.6.5.5-.3.8.1.9.5.6 2.2 2.1 3.8 3.4 5.6.7 1 1.7 1.1 2.7.5.8-.5 1.3-1.2 2.1-1.7 1.2.7 2.1 1.8 3.2 2.7.4.3.3.7-.2.8-.4.1-.9.1-1.4.1-3 .1-6 0-8.9-.6-1.4-.3-2.7-.3-4.1-.7-.9-.4-1.8-.5-2.7-.6-3.3-.7-6.5-1.8-9.6-3.2 0-1.1.8-.7 1.3-.6 2.4.1 4.7 1 7.1 1.4 1.7.3 3.4.7 5.1 1 .2 0 .6.1.7-.1.1-.3-.1-.5-.2-.7-.4-.6-.9-1.1-1.5-1.5-1.6-1.1-2.8-2.6-4.2-3.9-1.6-1.4-3.1-3.1-3.8-5.2-.6-1.7-1.4-3.6-.3-5.4.3-.4.1-1 .3-1.5.6-1.5 1.8-2.3 3.1-3 2.8-1.4 5.4-3.3 8.1-4.8.8-.8 1.5-1.6 2.5-1z" fill="#cfc6c0"/><path d="m78.8 51.1v-1.3c-.1-1.2-1.1-1.8-2.2-1.3-4.2 2-8.2 4.2-12.1 6.8-2 1.3-4.1 2.5-6.5 3.1-2.2.5-4.3 1.4-6.1 2.8-1 .7-.7 1.8-.9 2.7-.6 2.6-2.1 3.9-4.6 3.8-.6 0-1.1-.4-1.7-.6-.4-.2-.8-.5-1.3-.1-.8-.3-1.5-.7-2.1-1.3 0-.6.4-.4.7-.4.5 0 .9.2 1.3.3.8.3 1.4.1 1.9-.6 1.3-1.7 1.6-1.8 3.7-1.5-1.9-.5-1.9-.6-1.3-1.7 3.2-2.1 6.7-3.6 10.3-4.9 3.1-1.2 6.2-2.5 8.4-5.2 1.1-1.3 2.7-1.9 4.1-2.7.9-.5 1.8-.9 2.7-1.4.7.1 1.3 0 1.8-.8s1.6-1.1 2.6-1.3c.4-.1.8 0 1 .4.5.7 1.1 1.4.9 2.3-.1 1-.2 2-.1 3 0 .3 0 .6.4.6.1.1.2.3.2.4v.5c-.1.7-.2 1.4-1.2 1-.1-.1-.1-.2-.1-.3.2-.8 0-1.6.2-2.3z" fill="#9d8e89"/><path d="m81.6 88.2c.7 1.3.7 2.8 1.1 4.2.1.4-1.3 2.4-1.7 2.5-.6.1-1-.3-1-.8.2-1.5-.7-2.9-.2-4.4.4-1.2-1-2.4-2.3-2.2-.7.1-1-.6-1.7-.7-.8-.1-1.1.1-1.3.7-.1.4 0 .8-.5 1.2-.4.4.2.5.4.7.8.5 1.7.9 2.5 1.4.5.3.9.8.9 1.4-.1.9.3 1.7.5 2.5s.5 1.5 1.2 1.9c.8.5.9 1.1.3 1.8-.8 1-.9 2.6-2.4 3-1.2.4-2.2 1.2-3.3 1.6-.6.2-1.3.4-2 .4 1.5-.8 3.2-1.2 4.4-2.4.7-.7.9-1.9.1-2.6-.7-.6-1.2-1.2-1.9-1.7-.9-.6-.8-1.8-.7-2.6.2-1.4-.5-2.2-1.3-3-1.4-1.5-2.5-3.1-2.5-5.3 0-1.2.2-1.3 1.4-.9.3.6.6 1.1.9 1.7.1.2.2.7.6.5.3-.1.5-.4.4-.8-.3-1-.1-1.9-.1-2.9.6-.2.9.2 1.2.6.4.5.9.6 1.5.3.4.3.7.7.9 1.2.2.4.4.8.9.6s.3-.7.2-1.1c-.1-.2-.2-.5-.2-.7 1.1 1 1.7 2.3 1.9 3.8.3 1.6.5 3.3.5 4.9 0 .3-.2.8.4.8.4 0 .5-.4.6-.7.4-1.6.5-3.2.3-4.9z" fill="#5d5957"/><path d="m36 62.2c-.8-.2-1.6-.7-2.3-1.2 0-.5.5-.5.8-.7 1.6-.9 3.4-.8 5.1-.9 3.3-.2 6.3-1.3 9-3.2.6-.4 1.2-.7 2-.8 3.1-.6 5.6-2.2 8.3-3.8.6-.3 1.1-.6 1.7-.8 2.1-.6 4.2-1.3 6-2.5.3-.2.6-.4 1-.3.8 1.3.7 1.9-.6 2.5-.3.2-.6.3-.9.5-1.9.8-3.5 2.1-5.3 3-1.7.8-3.4 1.6-5.2 2.2-.7.2-1.5.4-1.9.9-1.7 1.7-4 2.3-6 3.4-1.5.9-3.3 1.2-5 1.2-1.5-.3-3.1.1-4.6 0-.8-.1-1.4.3-2.1.5z" fill="#6c5758"/><path d="m50.6 55.6c-2.3.9-4.2 2.6-6.6 3.3-1.9.6-3.8.9-5.8.9-1.6 0-3.1.5-4.5 1.3-1.3-.1-.6-.8-.4-1.4 2.2-1.2 4.3-2.5 6.6-3.4.8-.6 1.8-.8 2.7-.3.8.5 1.7-.1 2.5.1h1.4c.2-.4.6-.6 1-.6 1-.3 2.1-.2 3.1.1z" fill="#392c2f"/><path d="m36 62.2c.6-1 1.6-1 2.6-.9.5.1 1 .3 1.4-.2.2-.3.5-.1.7 0 .6.3 1.3.2 1.9.2 1.4-.1 2.8.8 4.3.4.3-.1.7 0 .9.3-.5.5-.7.8.3 1 .6.1 1.3.3 2.1.6-.8.4-1.3.2-1.9.2-.9-.1-1.7-.1-2.4.8-1.1 1.7-1.1 1.6-3.1 1.2-.4-.1-1-.6-1.5 0-1.7-1.3-3.5-2.4-5.3-3.6z" fill="#a07073"/><path d="m72.7 78.8c2.2.4 4.4.5 6.5.9 2.7.5 5.4.3 8.4 0-1.6-1.1-2.7-2.1-3.8-3.2-1.2-1.1-1.8-2.5-2.5-3.9-.2-1.3-.9-2.6-1.2-3.9-.1-.4-.3-.9-.2-1.3s0-.8.5-.9c.4 0 .5.4.6.8.8 2.7 1.9 5.3 3.7 7.5.8.9 1.7 1.8 2.5 2.6.3.3.6.6 1.1.5.6-.1 1 .1 1.5.4.4.2.8.3 1.2 0 .4-.2.8-.6 1.2-.8.4-.1.6-.5.8-.7.2-.1.4-.3.6-.1s.1.4 0 .6c-.3.5-.6 1-1.1 1.4 0 .1-.1.1-.1.2-.3.3-.2.6-.2.9-.4.1-.7.2-1.1.2-3.4 0-6.8.5-10.2.2-2.7-.2-5.5-.4-8.2-1.4z" fill="#434d55"/><path d="m30.1 60.6c-.3.4-.7.8-1 1.2-.1.1-.3.3-.2.5s.4.2.6.1c.8-.3 1.4-.9 2-1.4.4-.3.6-.8 1.2-.8-.5.6-.5 1 .3 1.4 3.1 1.4 5.9 3.2 8.5 5.3.3.2.6.4.6 1.1-1.4-.6-2.8-1.2-4.1-1.9-.7-.3-1.3-.9-2.2-.9-.8.2-1.2-.5-1.7-.8-.6-.4-1.2-1-1.8-1.4-.7-.6-1.4-.7-2.1 0-.4.4-.8.7-1.3 1-.6.4-1.3.4-1.7-.2-.5-.6 0-1.1.4-1.5.5-.4.9-.9 1.4-1.3.3-.3.6-.7 1.1-.4z" fill="#181517"/><path d="m39 68.1c1.7-.2 2.7 1.1 3.8 2 .2.2.4.2.6.2 1.5-.3 2.4.2 2.9 1.8.1.3.1.7.5.8.5 0 .3-.4.4-.6.3-.8.6-.3.9 0-.3.4-.5.7-.6 1.2-.1.1-.2.3-.3.4-.2.1-.5.2-.8.1-.8-1.7-2.5-2.1-4-3-2.2-1.2-4.4-2.5-6.2-4.3-.2-.2-.4-.4-.2-.7.5-.2.8.1 1.1.3.8.5 1.6.9 1.9 1.8z" fill="#504b4a"/><path d="m47.4 73.4c0-.5 0-1.1.7-1.1.4 1 1.4 1.8 1.6 2.9.1.5.3.6.6.2.1-.1.1-.2.2-.2.5-.2 0-1.3.9-1.1 1 .2 1.8 1.3 1.9 2.3v3.2c-.8-.2-.4-.8-.5-1.3-.2-.8.3-1.7-.4-2.5-.8-.6-1.4-.4-1.9.3-.2.3-.5.7-.9.5s-.4-.6-.4-1c0-.7-.4-1.1-.9-1.5-.3-.2-.7-.3-.9-.7z" fill="#595452"/><path d="m76.3 84.3c-.4.8-.9.8-1.4.1-.4-.4-.8-.8-1.3-1-.3-.5-.6-1.1-1-1.8 1.1.2 2.2 0 2.6 1.4.2.5.8.9 1.1 1.3z" fill="#5d5957"/><path d="m37.1 66.3c-.4 0-.7-.3-1.2-.2-.1.1-.3.1-.5.1-.6-.6-1.6-.8-1.9-1.8.1-.3.3-.3.5-.1.5.3 1.1.6 1.6.9.6.5 1.2.6 1.5 1.1zm1.9 1.8c-.5-.8-1.4-1-1.8-1.8 1 .2 1.8.6 1.8 1.8z" fill="#353031"/><path d="m80.7 28.5c-1.9-.2-3.9.5-5.9 0-.2-.1-.6.1-.8.3-1.3.7-2.8.7-4.3 1.1-.6.2-1.1.1-1.2-.8 0-.4-.4-.7-.9-.8-1.6-.5-2.4-1.8-1.9-3.4.1-.4.2-.8-.1-1s-.7-.2-1.1 0c-.6.3-1.3.6-1.9.9-.4.2-.9.5-1.3.2-.3-.4.3-.7.4-1.1-.1-.3.2-.4.4-.6.6-.3 1.2-.7 1.8-1 .4-.2.9-.4 1.3-.7.9-.6 1.5-1.5 2.3-2.2-2.1.7-4.4.9-6.4 1.9-2.9 1.4-5.9 2.7-8.7 4.4-1.9 1.1-3.6 2.5-5.5 3.7-2.4 1.4-4.8 3-7.5 3.8-1.9.6-3.8.3-5-1.3-1.7-2.2-3.1-4.7-3.1-7.5 0-3.1.4-6.2 1.6-9.1.6-1.6 1-3.2 1.5-4.8.2-.7.1-1.3-.1-2-.2-.8-.6-1.2-1.5-1.2-1.1 0-2.2.2-3.2.7-.5.3-.9.5-1.5.6h-.2c-.8-.4.1-.6.2-.7 1.5-.8 2.9-1.8 4.6-2.3.4.7 1 .5 1.5.4 1.9-.1 3.2.8 2.8 2.8-.4 2.3-1.3 4.4-2.3 6.5-2 4.3-2.3 8.6-.1 12.9 1.3 2.4 3.6 3.7 6.7 3 2.5-.6 4.6-2.1 6.7-3.5 4.1-2.6 8.3-5 12.6-7.1 1.1-.5 2.4-.9 3.6-1.2 2-.5 3.8-1.2 5.7-2 .6-.3 1.2-.4 1.9-.4.3 0 .7 0 .8.3s-.2.6-.5.8c-1 .6-2.1 1.1-3.1 1.7-.4.2-.8.5-1.3.8-1.1.7-1.1.7 0 1.3.5.3.4.7.3 1.2-.9 2.3-.6 3 1.6 3.9.2.1.5.2.7.4.3.3.4.9 1.1.8 1.6-.2 3.2.5 4.8-.5 1-.4 2-.4 3-.6 2.5-.3 4.9-.8 7.3-1.3.6-.1 1.1.3 1.4.8.2.3.4.7.8.7.1.1.1.2 0 .3-1.1.6-2.4.7-3.6 1.1-.3 0-.7.1-.9-.1-.9-.9-1.8-.4-2.7-.1-.1 0-.5.2-.8 0z" fill="#99958e"/><path d="m88.8 27.3v-.2h.2c-.1.8-.4 1.2-1.1 1.8-1.1.9-2.1.7-3.1.8-1.4.2-2.9.3-3.8 1.7-.1.2-.3.3-.6.3-1.6 0-2.8.9-4.1 1.8-.5.4-1.2.2-1.7.5-2.5 1.4-5.1 2.6-7.4 4.4-1.4 1.1-3.2 1.8-4.9 2.6-2.5 1.1-4.7 2.6-7 4-3.9 2.3-7.8 4.7-11.6 7.1-2.8 1.7-5.6 3.4-8.4 5.2-.6.4-1.2.8-1.9.9-.1-.6.4-.8.8-1.1 5.5-4.4 11.6-7.9 17.8-11.2 1.2-.6 2.2-1.6 3.3-2.4 3.3-2 6.6-4 10.2-5.5 1.6-.6 3.2-1.4 4.5-2.6.6-.5 1.3-.8 2-1.1 1-.4 1.8-1 2.5-1.9 1.1-.9 2.5-1.1 3.6-1.9 2.2-1.1 4.6-1.8 7-2.1 1.4.1 2.7-.1 3.7-1.1z" fill="#181517"/><path d="m50.6 55.6c-1.4 0-2.8-.2-4.1.4-.9-.5-1.9-1-3-1.1-.2 0-.5.1-.6-.2 0-.3.2-.4.4-.5.3-.2.6-.4 1.1-.2 1.4.8 3.1.7 4.6 1.1 1.1.3 2.2-.1 3.3-.4.3-.1.7-.1.6-.5s-.4-.4-.8-.3c-1.9.4-3.8.4-5.7-.1-.3-.1-.9-.1-1-.5-.1-.5.5-.4.8-.6.2-.2.6-.3.8-.5.4-.4.6-.4 1 0 1.5 1.2 3.3 1 5.1 1 .3 0 .6-.2.6-.6-.1-.4-.4-.2-.7-.1-1.4.2-2.7 0-4-.4-.6-.2-.7-.5-.2-1 1.1-1.2 2.6-1.7 4-2.5 1.5-.9 3-1.6 4.6-2 .2 0 .3-.2.5-.3 1.1-1.5 2.1-1.7 3.7-.8.2.1.5.3.7.3.4 0 1 .2 1.3-.2s-.3-.7-.4-1.1c-.1-.3-.5-.5-.2-.9.3-.3.7-.4 1.1-.3.1 0 .2.1.3.1.5.2 1 .8 1.5.2.6-.7-.2-1.2-.4-1.7-.4-.9-.4-1.2.6-1.5.7-.2 1.3-.5 2-1 .7-.6 1.7-1.2 2.8-.5.3.2.8.2.9-.2.2-.6-.6-.4-.9-.8 1-.9 2.1-1.5 3.5-1.6.4 0 .6-.1.7-.6.1-.6.7-.7 1.3-.4 1 .5 2.2.2 3.2.3.2 0 .4-.1.4-.5-.7.2-1.5 0-2.2-.1-.2 0-.5-.1-.5-.3 0-.3.3-.3.5-.4.4-.2.9-.1 1.3-.2 1.2-.1 2.5-.4 3.9-.9-.7-.4-1.2-.3-1.7-.1-.2.1-.4.1-.4-.2 0-.1.1-.3.2-.3.9-.4 1.5-1.1 2.4-1.5s1.7-.7 2.7 0c.8.6 1.6.3 2.1-.4 1.2-1.9 2.4-3.9 2.1-6.4 0-.2 0-.5-.2-.6v-.6c0-.1.1-.3.2-.4.9 1.5-.2 3.2.6 4.8 1-.7 1.5-1.8 1.7-3 .1-.3-.1-.6.2-.8.5-.6.4-1.4.6-2.1.1-.3-.2-.9.5-.8.1 1 .1 2.1.1 3.1-.3.7-.5 1.5-.3 2.3.3 1-.4 1.9-.8 2.8-.9 1.7-1.9 3.3-2.9 4.9-.1.2-.2.4-.6.4 0-1.2 1.2-2.1 1.2-3.6-1.3 1.4-1.9 2.9-2.8 4.2-1 1.5-1.9 3.2-3.3 4.4-.7.7-1.6 1.1-2.4 1.7-.2.2-.4.2-.6 0s-.1-.4 0-.6c.3-.6.9-1 1.3-1.4.1-.1.3-.3.2-.5-.2-.2-.4-.2-.6 0-1 .9-1.9 1.8-2.9 2.7-.6 1-1.8 1.1-2.7 1.6-1.8.7-3.5 1.8-5.3 2.2.1 0 .3-.1.5-.1.4 0 1-.2 1.2.3s-.2.8-.5 1c-.1.1-.2.1-.3.2-.9.5-2 .5-3 .6-.7.2-1.1.8-1.8 1-2.5 1.4-5.2 2.4-7.9 3.4-1.9.7-3.7 2-5.6 3-1.1.7-2.3 1.1-3.6 1.2z" fill="#181517"/><path d="m95.9 32.8c.1.2.2.4.4.5.6.4.3.7-.1.9.4 2 1.3 3.8 1.8 5.7.1.2.1.3 0 .4-.2.1-.3-.1-.4-.2-.6-1.1-.8-2.4-1.6-3.4-.3.5.1.8.1 1.2.2 1 .4 1.9.7 2.8.1.3.3.6-.1.8-.3.1-.5-.2-.7-.4-.1-.2-.3-.4-.4-.5-.1-.2-.3-.4-.4-.6-.2-.6-.6-1.1-.9-1.7-.1-.2-.3-.5-.5-.6-1.3-.8-2.1.6-3.2.8-.7.2-.5.9-.3 1.5.6 2.1 2.1 3.8 2.8 5.8.1.4.3.9.3 1.3.1 1.6.7 3.1 1.1 4.7.2.3.3.7.3 1.1 0 .6.1 1.2-.2 1.7-.4.1-.7.2-.7.8 0 .9-.2 1.7-.2 2.6 0 .4.1.9-.5 1.1-.6-1.1-.3-2.2-.2-3.3.3-2.2-.1-4.2-1.1-6.2-.7-1.6-1.9-1.7-2.9-.6-.9 1-1.2 2.2-1.4 3.4-.4 2.5-.3 5.1 0 7.6.2 1.5 1 2.8 1.7 4-.3.6-.6.2-.9 0-.4-.3-.8-.7-1.2-1.1-.3-.3-.5-.7-.5-1.2-.4-2-.3-4.1-.4-6.1 0-3.1.2-6.2 2.8-8.4.2-.1.3-.4.3-.6.3-.7.8-1.4.2-2.2 1.1-1 .4-2.1.1-3.1-.2-.6-.4-1.2-.5-1.8.1-.5-.1-.9 0-1.4.3-1.4 1.6-1.1 2.4-1.7.7-.6 1.6-.5 2.4 0 .4.3.6 0 .9-.4.7-1 1.1-1.8.2-2.8-.1-.3.5-.3.8-.4z" fill="#6f8083"/><path d="m67.7 48.1c.4-.5.9-.9 1.6-1.1 1.1-.2 2.2 0 3.2-.7 1.4-.7 2.8-1.5 4-2.5.2-.1.5 0 .6-.4.3-1.1 1.2-1.1 2-1.4.5-.2 1.2.1 1 .7-.6 1.7-.2 3.4-.5 5.1v.2c-.1.1-.1.1-.2 0-.1-.8-.6-1.5-1-2.1-.1-.2-.3-.3-.5-.4-.7-.1-2.8 1.2-2.9 1.9-.1.5-.4.6-.8.4-.3-.1-.6-.1-.9-.2-1.3.1-2.5.6-3.4 1.6-.9.8-2 1.2-2.9 1.7-.3.2-.7.2-.9-.1.2-.1.4-.3.6-.4.9-.4 1.6-.9.9-2-.1-.1 0-.2.1-.3z" fill="#756e6b"/><path d="m89.3 39.7c.7 1.1 1.1 2.3 1.3 3.6.1.7 0 1.3-.9 1.4-2.3.7-4.6 1.5-6.8 2.7-.1.1-.3.1-.4.1-1.3.3-1.4.2-1.4-1.1-.2 0-.3.4-.6.2-.1-.2-.1-.3 0-.5.2-1.1.6-2.2 1.1-3.2.1-.2.2-.5.5-.3.3.1.2.4.1.6-.1.7-.8 1.6-.2 2.1.6.4 1.3-.5 1.9-.8 1.3-.7 2.7-1 4.1-.9.5 0 .8-.1.9-.7.5-1.1.4-2.2.4-3.2z" fill="#446269"/><path d="m79.5 47.9c.1-1.6-.3-3.3.4-4.9.1-.1 0-.4-.1-.5-.3-.4-.6-.3-.9 0-.5.4-1.8.3-1.5 1 .5 1.4-.3.6-.7.6h-.3c-.1-.5.2-1 .5-1.4.9-.5 1.8-.9 2.7-1.4.7 0 1.1.4.9 1.1-.6 1.7-.7 3.4-.7 5.2-.1 0-.2.1-.3.3zm-.2.2h.2c.1.6-.1 1.1-.2 1.7.5 0 .4-.5.6-.6l.1.1c.2.8.1 1.6-.4 2.4-.1.2-.3.4-.5.8-.2-1.6 0-3 .2-4.4z" fill="#565656"/><path d="m80.7 46.1v.5c.3 1 .2 2-.7 2.7h-.1c.1-1.2.3-2.2.8-3.2z" fill="#565656"/><path d="m46.7 30.6c-.8.3-1.4.9-2 1.4-2 1.3-3.8 2.9-5.8 4.1-1.3.8-2.5 1.6-3.9 2.2-1.7.8-2.8.4-3.8-1.2-1.1-1.8-2-3.7-3.1-5.4-1.5-2.3-1.5-4.8-.8-7.3.7-3 1.8-5.8 2.5-8.7.3-1.3.6-2.6.5-3.9s-.6-1.8-1.9-1.6c-1-.2-1.8.2-2.4.8-.1.1-.2.1-.3.2-.4.2-.9.5-1.4.4-.6 0-1-.2-.6-.9.1-.3.4-.5.7-.7h.5c.1.3.3.5.6.3.8-.8 2-.9 2.6-1.8.4-.2.9-.3 1.4-.4 1.7-.2 2.9.8 3 2.5 0 1.9-.5 3.7-1 5.6-.7 2.6-1.5 5.2-2 7.8-.4 1.9-.2 3.8.7 5.5 1 1.9 1.9 3.9 3.3 5.6.7.9 1.3 1.2 2.4.9 2.3-.7 4.1-2.1 6.1-3.3 1.7-1 3.3-2.3 5.1-3.2.2 0 .3 0 .5.1.1.6-.6.6-.9 1z" fill="#746f6b"/><path d="m21.7 12.8c.2-.7.7-1.1 1.4-1.4.2.5.3.9 1 .5.6-.3 1.2-.5 1.8-.9.7-.5 1.4-.9 2.3-.7 1.4.3 2.2 1.6 1.9 3.3-.4 2.4-1 4.8-1.9 7.1-.9 2.4-1.7 4.8-1.6 7.4.1 1.7.6 3.2 1.5 4.6 1.1 1.6 2.2 3.2 3 5 .7 1.4 1.5 1.7 2.9 1 2-.9 3.8-2 5.6-3.3.4-.3.7-.8 1.3-.6.1.6-.4.8-.7 1-2.3 1.5-4.4 3.2-6.8 4.5-1.4.8-2 .7-3.1-.3-.4-.4-.9-.9-1.1-1.4-.7-1.6-1.6-3.1-2.6-4.5-2.2-3-2.1-6.4-1.4-9.8.3-1.4.7-2.7 1.3-4 .8-1.7 1.2-3.4 1.6-5.2.1-.6.1-1.1 0-1.7-.2-1.2-.9-1.6-2.1-1.3s-2.3.9-3.5 1.4c-.7.4-.9.2-.8-.7z" fill="#66625f"/><path d="m21.7 12.8c0 .9.6.8 1.1.5 1-.6 2-1.1 3.2-1.5 1.4-.4 2.4.1 2.6 1.6.3 1.8-.5 3.5-1 5.2-.6 2-1.7 3.9-2.1 6-.6 3-.9 6.1 1 8.7 1.6 2.2 2.4 4.9 4.3 6.8.6.6 1.2.7 1.9.3 2.7-1.4 5.1-3.2 7.6-4.9.2-.1.3-.4.5-.6.6-.6 1.1-1.3 2-1.4h.5c-1.5 1.4-3.2 2.5-4.8 3.7-2 1.5-4.1 2.8-6.2 4.2-1.3.9-2.1.8-2.6-.5-1.2-3-3.5-5.3-4.8-8.3-1.2-2.6-.8-5.3-.3-8 .6-2.9 2-5.5 2.6-8.4v-.1c.2-1 .3-2.1-.7-2.8-.9-.6-1.9-.4-2.9-.1-.5.2-1 .5-1.5.6-.3.1-.9.2-1.1-.1-.1-.3.3-.7.7-.9z" fill="#605b59"/><path d="m25.8 11c-.4.6-1.1.9-1.7 1.2-.3.2-.7.5-1 .3-.4-.3.1-.7 0-1 .2-.3.4-.5.7-.7-.1.7.4.8.9.6.3-.1.7-.3 1.1-.4z" fill="#706b67"/><path d="m95.5 39.9c.1.1.2.3.2.4 2 2.9 2.7 6.3 2.8 9.8 0 1 .6 2-.1 3-.1 1.6.7 3.1.8 4.6.1.6.1 1-.6 1.1-1.3.4-1.6.3-1.9-1.1-.4-1.8-1.4-3.4-1.5-5.3 0-.6-.3-1.1-.7-1.5-.7-.8-.7-1.8-.9-2.7-.4-1.7-.5-3.4-.9-5.1-.3-1.2.2-2.2.9-3.1.6-.8 1.2-.8 1.9-.1z" fill="#f4f3f1"/><path d="m94.8 50.8c.8.6.8 1.6.9 2.4.3 1.9 1.2 3.5 1.7 5.3.1.2.4.6.5.2.4-1.2.5 0 .8 0 .5 1.2-.2 2.4-.3 3.5-.2 1.8-.7 3.5-1.3 5.2-.1.3-.3.6.1.8.3.3.2.7 0 1.1-.3.7-.5 1.4-.8 2.1-.2.4-.3.8-.9.4-.2-1.2.3-2.2.6-3.3.4-1.1.8-2.2 1.1-3.2-.5.8-.3 2.1-1.4 2.6-.7-.1-.6-.7-.6-1.2.2-1.3.2-2.6.5-3.9.3-1.6.3-3.1-.8-4.5-.8-1-.4-2.4-.3-3.6.1-.7.2-1.4 0-2.1-.1-.3-.2-.6-.2-1-.3-.4 0-.6.4-.8z" fill="#afd4d2"/><path d="m97.5 40.2c.3.1.5.1.5-.3 2.2 3.3 3.8 9.4 3.6 13.4-.6-2.4-1.4-4.7-1.7-7-.4.6-.2 1.2-.3 1.8-.6-2.8-1.6-5.3-2.1-7.9z" fill="#c6c1ba"/><path d="m98.4 53.1c-.1-3.5-.5-6.9-1.6-10.2-.3-.9-1-1.6-1.1-2.6.5.2.5.9 1.1 1.1-.2-1.2-.9-2.3-.7-3.5 0 0 .1 0 .1.1 1.3 4.9 3 9.7 2.9 14.9 0 .5-.1.9-.7.2z" fill="#a3cdcc"/><path d="m95.5 71.8c.1.1.3.2.4 0 .4-1.1.8-2.3 1.2-3.5.8-1.6 1.2-3.4 1.9-5 0 1.5-.3 3-.8 4.4-.5 1.3-1.1 2.7-1.6 4-.1.2-.5.7.3.5.3.4-.1.8-.3.8-.9.1-1.1.9-1.6 1.4-.2.2-.4.5-.7.2-.1-1.1.1-2.1 1.2-2.8z" fill="#b0b6b1"/><path d="m94.4 74.8c.3-.2.4-.5.6-.8.4-.4.3-1.4 1.3-1 .2.1.5-.4.5-.8.4 0 .4.2.2.5-.9 2.1-2.7 3.7-3.9 5.6-.1.2-.4.2-.6.3.4-.6.7-1.2 1.1-2-.7.2-.7 1-1.4 1-.2-.4.1-.8.3-1 .7-.5 1.2-1.2 1.9-1.8z" fill="#9a9893"/><path d="m97.1 72.7c0-.2 0-.4-.2-.5 1.1-2.2 2.5-4.2 3.2-6.5-.5 2.6-1.8 4.8-3 7z" fill="#b0b6b1"/><path d="m91.2 93v-.2c-.4-.3-.6-.1-.9.2-.7.7-1.2 1.7-2 2.3-.2.1-.5.1-.7.2-.3.1-.6.3-.9 0-.4-.3-.1-.6 0-.9.2-1.6-.5-3.1-1.1-4.5-.3-.8-1.1-1.4-.9-2.3.6-.1.7.3.9.7.9 1.2 1 2.7 1.5 4.1.1.3 0 .8.5 1.1.3-2-.1-3.8-.7-5.6-.2-.4-.5-.8-.3-1.3.3 0 .6 0 .7-.4 2 1.8 3.5 3.9 4.4 6.5-.4.1-.4.1-.5.1z" fill="#403b3c"/><path d="m85.9 85.3c-.5-.1-.8-.4-.9-.9 0-.2-.3-.5 0-.7.2-.1.5-.1.7.1-.3.2-.5.3-.2.7.2.2.4.4.4.8z" fill="#342f31"/><path d="m92 90.2c-.1-.7.2-1.1.9-1.1.3 0 .8 0 .7.5-.2.7-.5 1.5-1.2 1.6-.5.1-.2-.7-.4-1z" fill="#b1aea6"/><path d="m8.7 38.8v-.2c.4-1.1.7-2.1 1-3.2 0-.7.3-1.4.7-1.9.7-1.3 1.3-2.6 2.3-3.8.4-.5.8-1 1.5-.8s.7.8.8 1.4c.3 2.1 1.1 4.2.9 6.4 0 .4.1.7.3 1.1.1.2.4.5.4.7.1 2 1.3 3.5 1.7 5.4.1.4.2.8.4 1 1.1 1 1.6 2.4 2.6 3.4.6.5.8 1.2 1 2 .7 2.7.5 5.5.2 8.2-.1.7-.1 1.4.2 2 .8 1.6 1.4 3.3 2.5 4.7.6.7.9 1.5 1.2 2.4.7 2.6 1.9 5 2.9 7.5.6 1.5 1.9 2.7 3.1 3.8 2.3 2.1 4.6 4.2 6.8 6.4 1.8 1.9 3.9 3.4 6 5.1.4.3.8.6 1.2.8.5.3 1.4.4.6 1.3-.1.1 0 .2.1.3 1.1.6 1 1.9 1.7 2.7.1.1.2.3.2.4-.5 1 .1 2.2-.4 3.3-.3.6-.5 1.2-.5 2 0 1.2-.4 1.6-1.6 1.7-2.3.4-4.4-.1-6.4-1.1-.9-.4-1.9-.6-2.8-.8-2.8-.6-5.3-1.9-7.7-3.4-3.8-2.2-6.9-5.2-9.9-8.3-1.7-1.7-3.4-3.4-4.8-5.3-.7-.8-1.3-1.7-1.7-2.7-1.2-2.3-2.4-4.6-3.6-7-1.4-2.7-2.2-5.6-2.6-8.6-.4-3.7-.9-7.3-1-11.1 0-1.7.3-3.2.5-4.8.4-3.7 1-7.4 2.2-11z" fill="#322d2f"/><path d="m8.7 38.8c-.2 1.6-.8 3.1-1.1 4.7-.4 2.4-.6 4.8-1.1 7.1-.3 2.2-.5 4.4-.3 6.6.4 4.8.5 9.6 2.1 14.2.5 1.4 1.2 2.8 2 4.1 1.4 2.4 2.6 5 4 7.4.8 1.3 1.9 2.6 3 3.7 3.1 3.3 6.2 6.7 9.9 9.2 3.2 2.2 6.6 4.3 10.6 5 1 .2 2 .6 3 1.1 2 1 4.1 1.1 6.3.8.7-.1.9-.8.7-1.4-.1-.5-.1-1 .1-1.4.4-.7 1-1.4.3-2.3-.1-.1 0-.3 0-.3 1-.8.3-1.4-.2-2.2-.4-.7-.2-1.7-1.3-1.9-.3 0-.4-.3-.4-.6.1-.6.6 0 .8-.4-.1-.7-.9-.4-1.3-.7-1.7-1.4-3.6-2.5-5.1-4.1-2.9-2.8-5.8-5.5-8.7-8.3-1.8-1.7-3.2-3.7-3.9-6.1-.7-2.1-1.8-4.1-2.2-6.3-.1-.4-.3-.7-.6-1-1.3-1.6-2.2-3.5-2.9-5.5-.5-1.6.1-3.4 0-5-.1-2.7.3-5.6-2.2-7.6-.3-1.6-2.1-2.3-2.3-4-.1-.7-.4-1.4-.8-2.1s-.8-1.4-.6-2.2v-.4c-1.4-1.6-.6-3.6-1.1-5.3-.4-1.2-.6-2.5-.7-3.8 0-.3-.1-.6-.5-.7s-.7.1-1 .4c-.7.9-1.4 1.9-1.9 2.9-.2.4-.3.9-.7 1.2-.3-.5.1-.9.2-1.3.4-1.3 1-2.5 1.7-3.7.3-.5.6-1 1.2-1.2 1.1-.6 2.1-.1 2.2 1.2 0 .7.2 1.4.4 2.1.5 1.6.6 3.3.6 4.9 0 1.7.6 3.2 1.3 4.7.4 1 1 2 1.5 2.9.1.1-.1 0 .1.1 1.5 1.4 2.1 3.4 3.1 5.1.4.6.6 1.2.7 1.9.3 2.3.5 4.5-.1 6.8-.6 2.2 0 4 1.2 5.8.3.5.6.8 1.2.5h.1c1.5 1.3 2.9 1.1 4.4-.1.4-.3 1.1-.7 1.5.2h-.1c-1.5.2-4.4 3.4-3.8 5.1 1.1 2.8 1.7 5.9 3.5 8.4 1 1.4 2.3 2.4 3.6 3.5 1.5 1.3 3 2.5 4.5 3.8 2.1 1.9 4.5 3.5 6.9 4.9 2.7 1.5 5.6 2.8 8.2 4.6 2.4 1.7 2.4 3.3 1.2 5.4-.3.5-.6.7-1.1 1-1.4.8-1.4 1.6-.1 2.5.4.3.8.4 1.2.6.3.1.5.3.5.7s-.3.5-.6.6c-.8.3-1.6.5-2.5.5-6.4.1-12.4-1.5-18.2-4-3.5-1.5-6.8-3.5-9.8-5.9-1.6-1.3-3-2.7-4.5-4.2-2.3-2.3-4.7-4.6-6.7-7.2s-3.3-5.7-4.7-8.7c-1.2-2.5-1.9-5.2-2.5-7.9-.1-.7.2-1.4-.3-2-.3-3.5-.6-7.1-.9-10.6-.2-1.6.5-3.1.7-4.7.3-2.8 1-5.6 1.6-8.3 0-1.1.1-2.1.7-2.8z" fill="#353031"/><path d="m25.8 63.4c-.2.6-.7 1.1-1.1.3-1-1.7-2.2-3.4-1.8-5.6.2-1.2.3-2.3.5-3.5.3-1.7.1-3.4-.4-4.7-.7-2-1.3-4.2-3.1-5.7-.7-.6-1-1.7-1.5-2.6-1.3-2.5-2.1-5.2-1.9-8.1.1-1.3-.6-2.5-.8-3.7-.1-.3-.2-.6-.1-.9.1-.5.1-1.1-.4-1.3s-1.1-.2-1.6.3c-.7.7-1.2 1.6-1.7 2.6s-1.1 2.1-1.3 3.2c-.6.3-.7 1-.8 1.6-.1.1-.2.1-.2 0 .1-1.7.9-3.2 1.5-4.7 1-2.6 2.3-5.1 4.3-7.1.5-.5 1-1.2 1 .3 0 .1.1.3.1.3.3.2.9-.2.8.2-.3 1.3.4 2.4.4 3.7-.2 3.6-.7 7.4 1.1 10.7.8 1.7 1.7 3.4 3 4.8.8.8 1.4 1.8 1.8 3 1.3 3.8 1.2 7.7.2 11.6-.3 1.3-.2 2.5.5 3.6.5 1 1.7 1.1 2.3.1 1.2-1.8 3-3 4.6-4.3 2.9-2.2 6.1-4.1 8.8-6.6 3-2.7 6.4-4.6 10-6.2 4.2-1.9 8-4.5 12.2-6.5 2.5-1.2 4.8-2.8 7.4-3.5 0 .6-.6.8-1 1-3.1 1.5-6 3.5-8.9 5.2-2 1.2-4.1 2.3-6 3.8-1.8 1.4-4 2.2-6 3.2-3.9 1.8-7.3 4.5-10.8 6.9-2.4 1.7-4.8 3.4-7.2 5.2-1.3 1-2.4 2.5-3.9 3.4z" fill="#363233"/><path d="m78.2 30.8c-1 .8-2.4 1-3.5 1.8-.3.2-.5.4-.9.2-.7-.1-1.4.1-2.1.5-.7.5-1.6.3-2.4.6-4.2 2-8.5 3.7-12.6 5.9s-8.3 4.3-12.5 6.2c-1.5.7-2.8 1.7-4.2 2.6-1.7 1.1-3.5 2-5.3 3.1-1.7 1.1-3.8 1.9-4.8 4-.6 1.3-1.8 2.2-2.8 3.2-.3.3-.7.6-1.1.3-.3-.2-.2-.7 0-1.1.5-1.3 1.2-2.4 2.1-3.5 1.4-1.7 2.6-3.4 4.2-4.9.3 1.3-.9 1.9-1.1 2.8 2.5-2.9 5.7-5.4 8.2-8.5.6-.8 1.3-1.5 2-2 1.1-.7 2.1-1.6 3.1-2.5l.4-.4c.3-.2.5-.4.8-.1.2.3.1.6 0 .8-.2.3-.4.5-.6.7-.5.5-.9 1-1.2 1.5-.2.3-.5.7-.3 1 .3.5.7.1 1.1 0 3.3-.6 6.4-2 9.3-3.7 1.9-1.1 3.9-1.8 5.9-2.6 2.7-1.1 5.3-2.4 8.1-3.4 2.6-.9 5.1-2.1 7.9-2.5.9.2 1.5-.6 2.3 0z" fill="#504b4a"/><path d="m73.8 32.8c.3-.2.6-.3.9-.2-.7.9-1.4 1.6-2.5 2-1.8.5-2.9 2.1-4.6 2.8-.6.3-1.2.6-1.9.8-3.5 1.2-6.7 3.1-9.7 5.1-2.4 1.6-4.8 3.3-7.4 4.6-3.3 1.7-6.5 3.6-9.5 5.7-1.9 1.4-3.9 2.6-5.6 4.4-1.1.8-2.4 1.5-3.4 2.5-1.1.4-1.7 1.6-2.7 2.2-.2.1-.4.5-.1.8.4.3.7.6 1.2.2.6-.5 1.3-.9 1.9-1.5.5-.5.9-.4 1.4-.1.8.6 1.6 1.3 2.3 1.9-.2 0-.4.1-.5.3-.5.2-.8-.1-1.2-.3-.2-.2-.5-.4-.6-.7-.1-.1-.2-.1-.2-.2-.6-.5-1.2-.2-1.6.2-.5.5-1.1.6-1.8.8-1.2.3-1.9-.2-2.5-1 0-.2.1-.4.3-.6 3.3-2.7 6.6-5.3 10.1-7.8 2.7-1.9 5.5-3.8 8.3-5.7 1.5-1 3.2-1.8 4.8-2.5 2.2-.9 4.1-2.3 6.2-3.6 4-2.4 7.8-5 11.9-7.2.8-.4 1.6-.8 2.3-1.4 1.5-.2 3-.6 4.2-1.5z" fill="#282426"/><path d="m39.4 44.2c-1 1.5-2.1 3.1-3.5 4.2-1.1.9-2.1 1.8-3 3-.6.9-1.6 1.3-2.4 2.1.5-1.2 1.4-2.3 1.8-3.6.6-1.4 1.9-2.2 2.8-3.3.6-.7 1.1-1.6 2-2.1-.1.7-.9 1.2-.7 2.1 1.3-.5 2-1.8 3-2.4z" fill="#514c4a"/><path d="m9.6 35.3h.2c-.2 1.1-.6 2.2-1.1 3.2.1-1.1.4-2.1.9-3.2z" fill="#353031"/><path d="m41.5 39.7c-.4 1-1.3 1.6-2.1 2.3.4-1.1 1.3-1.6 2.1-2.3zm-2.1 2.3c-.4 1-1.3 1.6-2.1 2.3.5-1.1 1.4-1.7 2.1-2.3z" fill="#514c4a"/><path d="m31.9 63.6c.3 0 .5.2.7.5-1.1.6-1.1 2-1.8 2.8-.1.2 0 .5.2.6.4.5.5 1 .6 1.6.3 1.1 1.2 1.7 2.3 1.5 1-.1 2 .1 2.8.6.6.4 1.2.7 1.8 1 .3.1.6.3.8.6 1.3 1.4 2.7 2.8 4.6 3.4.9.5 1.9.9 2.9 1.2.8.2 1.7.6 2.4 1 2.1 1.3 4.3 2.1 6.6 2.9 1.9.6 1.9.6 2.7-1.1.6.4 1.2.7 1.6 1.3s.3 1.1-.5 1.2c-2.2.4-4.4.3-6.5-.6-2.4-1.1-4.8-2.1-6.9-3.9-.8-.6-1.7-1.1-2.7-1.4-.2.5.4.6.3 1.1-1.5-.1-2.6-1.3-4.4-1.5 1.3 1.2 2.4 2.2 3.8 2.7 2.4.9 4.6 2 6.7 3.5 1.6 1.2 3.3 2.3 4.9 3.4 1.7 1.2 3 2.7 4.4 4.2.2.2.4.5.2.8-.2.5-.6.7-1.1.7-1.3.2-2.4-.4-3.5-.8-4.9-1.9-9.8-3.9-13.8-7.5-1-.9-1.8-1.9-2.4-3.1-.4-.8-1-1.6-1.8-2.1-2.1-1.4-3.7-3.3-5.3-5.3-.7-.8-.6-2-1.3-2.8-.3-.3-.4-.7-.8-.9l-.2-.2c-.3-.2-.5-.5-.4-.7.4-1.2.1-2.7 1.5-3.4.1-.1.1-.3.2-.4.2-.8.7-.9 1.4-.9z" fill="#504b4a"/><path d="m30.5 64.5c.1.3.3.5-.1.7-.9.5-1.5 2.7-1.2 3.8h-.2c-.7-1.1-.4-3.1.7-3.9.2-.2.5-.4.8-.6z" fill="#474342"/><path d="m51.1 33.8c2.6-1.9 5-4.1 8-5.4.7-.3 1.1-.4.9.6-.1.7.3 1.2.7 1.7.1.2.4.3.4.5.2 1 .9 1 1.7 1 .5 0 1.1-.1.9.8-.1.7.5.5.9.3 3.1-1.3 6.4-2 9.5-3.4.9-.4 1.8-.7 2.9-.5.7.1 1.6-.1 2.3-.2-.1.8-.9.9-1.4 1-3.1 1.1-6.2 2.3-9.3 3.3-2.8.9-5.4 2.4-8.2 3.4-1.4.4-2.8.5-4.1 1.2-1.2.7-2.4 1.4-3.8 1.9-.4.1-.7.3-1.1.3-.6.1-1.1-.2-1.1-.9s-.1-1.4-.2-2.1.2-1.2.6-1.8c.3-.5.7-1 .4-1.7z" fill="#605a59"/><path d="m51.1 33.8c.4 0 .8.1.6.6-.1.1-.1.3-.2.4-1.4 1.3-.8 3-.8 4.6 0 .8.5.8 1 .6 1.2-.4 2.3-.9 3.4-1.5 1.4-.8 2.8-1.5 4.5-1.7 1.6-.1 3.1-1 4.5-1.7 3.3-1.6 6.9-2.5 10.2-4 1.7-.7 3.5-1 5-2.1.4-.3 1-.2 1.4-.7l1.5-.6c.8-.4 1.6-.6 2.2.2.2.3.6.1.9.2.1.1.1.1.1.2s-.1.1-.1.1c-2.4.6-4.8 1.2-7 2.3-1.1-.1-2.1.5-3.1.8-4.4 1.4-8.8 3-13 5-2.3 1.1-4.8 1.9-7.1 3-1.3.6-2.4 1.6-3.8 2-2.3.8-4.6 1.9-7 2.3-.3.1-.6 0-.8-.2-.3-.3-.1-.5 0-.8.5-1.1 1.2-1.9 2-2.7.2-.2.6-.5.3-.8s-.5.2-.7.4c-1.1 1-2 2.1-3.5 2.4 1.3-1.2 2.5-2.4 3.8-3.6.3-.3.7-.5.9-1 1.5-1.2 3.1-2.5 4.8-3.7z" fill="#514c4a"/><path d="m62.2 23.5c-.2.1-.3.3-.5.4-.6 0-1 .6-1.6.7.1-.4.5-.8-.2-.9.4-.6 1.6-1.2 2.2-1 .4.2.5.5.1.8z" fill="#66625f"/><path d="m42.8 33.5c-.7.5-1.4.9-2 1.4-1.6.7-2.9 2-4.5 2.8-.9.5-1.7 1-2.6 1.4-1.2.6-2.4.3-2.8-.9-.8-2-2.1-3.7-3.2-5.5-1.6-2.5-1.8-5.3-1.1-8.2s2.1-5.5 2.6-8.4c.2-1.2.8-2.3.5-3.6-.3-1.5-1.3-2.1-2.8-1.7-.4.1-.7.2-1.1.3.9-1.3 2.3-1.5 3.7-1.3.8.1 1 .9 1.1 1.7.3 2.1-.6 4-1 6-.5 2.2-1.4 4.4-2 6.6-.7 2.9-.6 5.6 1.1 8.2 1.1 1.6 1.8 3.3 2.8 4.9.8 1.3 1.7 1.7 3.1 1 1.2-.6 2.4-1.2 3.6-2 1.8-1.3 3.8-2.4 5.5-3.8.3-.2.6-.4.9-.4-.5.5-1.1 1-1.8 1.5zm19.4-10c.1-.3.3-.7-.3-.5-.7.2-1.5.1-2 .7-.4.2-.8.3-1.1.5-2.3.5-4.3 1.6-6.3 2.7s-3.7 2.7-5.8 3.7c.2-.4.6-.6.9-.9.1-.5.5-.7.9-1 4-2.8 8.2-5.1 12.9-6.6.6-.2 1.2-.4 1.8-.4.5 0 1.1.1.9.9-.7.2-1.2.8-1.9.9z" fill="#706b67"/><path d="m58.5 80.2c.3 1.9-1 2-2.3 1.6-2.7-1-5.4-2-7.9-3.4-1.1-.7-2.5-1-3.7-1.4-.3-.1-.6-.4-1-.6.7-.6 1.4-.6 2.2-.3.6.3 1.3.6 1.9.9 1.6.4 2.8 1.3 4.2 2.1 1 .5 2 1.1 3 1.5.3.1.8.4 1-.1.1-.5-.4-.6-.8-.6-.4-.1-.9-.1-1.2-.5.4-1.6.4-1.6 1.7-.7 1 .5 2 1 2.9 1.5z" fill="#6c6864"/><path d="m54 79.3c.5.1 1 .1 1.5.3.6.1 1 .5.9 1.1-.2.7-.7.5-1.2.3-1.2-.4-2.2-1-3.3-1.7.9-.8.5-1.8.6-2.8 0-.4-.3-.7-.1-1.1.7 0 .7.6.7 1 .1 1-.3 2.1.2 3 .3.3.5.1.7-.1z" fill="#75706c"/><path d="m86.4 86.8c1 1.7 1.3 3.6 1.5 5.5.1.6.2 1.8-.6 1.8-.8.1-.5-1-.7-1.6-.5-1.7-.7-3.6-2.1-4.9-1.2-1.1-2.5-2.1-3.5-3.3-.2-.2-.5-.3-.3-.6s.5-.1.7-.1c2 .6 3.7 1.6 5 3.2z" fill="#1e1a1c"/><path d="m88.2 95.3c.7-.9 1.4-1.7 2.1-2.6.3-.3.6-.5.8.1-.9 0-1.2.9-1.7 1.4-.4.4-.6.9-1.2 1.1z" fill="#615c59"/><path d="m45.1 56.1c-1.2.6-2.3.4-3.4-.1-.7-.3-1.2.3-1.8.3.7-.7 1.5-1.1 2.5-.7.9.3 1.9 0 2.7.5z" fill="#181517"/><path d="m78.8 51.1v2.5c-.5-.1-.4-.4-.2-.7v-1.8z" fill="#cfbeba"/><path d="m78.6 52.9c0 .2 0 .5.2.7.7.5 1.6.6 2.2 1.2.3.4.9.6.6 1.3-.7.1-1-.5-1.4-.8-.8-.5-1.5-.6-2.3-.2-1.1.6-2.1 1.4-2.9 2.3-.8.8-.6 1.7-.2 2.6.5 1.1 1.3 1.6 2.5 1.7.9 0 1.8-.1 2.1-1.3.1-.5.5-.9 1.2-.5.1.8-.6 1.4-.7 2.2-.2 1.3-.1 2.6.1 3.9 0 .1.1.2.1.3 0 1.7.7 3.3 1.2 4.9.1.4.2.9.5 1.3.8 1.3 1.5 2.6 2.3 3.9-.2.8-1.7 2.2-2.5 2.3-1.1.1-1.9-.2-2.5-1.2-.8-1.4-2-2.5-2.6-3.9-.2-.5-.5-.9-.6-1.5s-.3-.8-.8-.3c-.6.5-1 .2-1.4-.3l-4.2-4.8c-.5-.5-1-.9-.9-1.7 0-.3-.3-.6-.5-.8-1.4-1.4-2-4-1.3-5.8.4-1 1.2-1.6 2.2-2 1.1-.5 2.2-1 3.4-1.5 1.7-.6 3-2 4.7-2.8.7-.2 1.2-.1 1.5.8z" fill="#e9dfdb"/><path d="m66.1 50.8c1.2-.2 2.4-.6 3.3-1.6.7-.8 1.5-1.4 2.5-1.7.4-.1.9-.3 1.3.1-1.2 1.1-2.8 1.5-4.2 2.4-1.1.7-2.1 1.3-2.9 2.3-1.7 2.1-4 3.2-6.4 4.1-3.3 1.3-6.5 2.6-9.6 4.2-.7.4-1.4.8-2.1 1.3-.7 0-1.4 0-2.1.2-.4.1-1.1.4-1.2-.4-.1-.3-.4-.1-.7-.2-.4-.1-.8.1-1.2-.2 2-.1 3.9-.5 5.7-1.6.9-.5 1.7-1.1 2.8-1.2.2 0 .4-.2.6-.4 1.4-1.6 3.3-2.2 5.2-2.8 2.3-.7 4.4-2 6.5-3.1.7-.4 1.5-1.1 2.5-1.4z" fill="#83706f"/><path d="m79.8 52.7v-.4c.2-.2 0-.5.2-.8.1-.1.1-.3.2-.4 1.2-1.5 1.5-1.6 3-.2.4.3.7.7 1 1.1.8 1 .9.9 1.5-.2.3-.5.5-1 .9-1.4.3-.2.5-.2.5.2-.8 2.6-.7 5.3-.6 8 .1 1 0 2 .2 2.9-.2.6-.7.3-1 .3-1.2-.2-2.1.2-2.7 1.3-.2.3-.5.6-.6.9-.5 1-1.4 1.5-2.6 1-.4-.7-.2-1.3.3-1.9 1.4-1.6 2.2-3.4 2.7-5.4s-.5-3.6-1.6-5.1c-.4-.6-.9.2-1.4.1z" fill="#7ec2bf"/><path d="m79.8 52.7c1.1-1 1.3-.9 2.2.4 1.9 2.7 1.2 5.4-.2 8-.5.9-1 1.9-1.8 2.6-.4.3-.3.8-.3 1.3.2.3.2.6.2.9 0 .2-.1.4-.3.5-.6-2.2-.6-4.3.7-6.4 0-.2.1-.3.2-.4 1.2-.9 1.3-2.1 1-3.5-.3-1.1-1.3-1.5-2.1-2-.2-.1-.6-.1-.6-.6.9.3.9-.3 1-.8z" fill="#abd0cb"/><path d="m80 51.5c0 .2 0 .5-.2.7v-.5c.1-.8.2-1.6.3-2.5.4-.9.5-1.8.7-2.7.4-.3.2-.8.6-1 .2 0 .2.3.3.4.1.5-.5 1.2 0 1.3.5.2 1.2-.1 1.8-.3s1.1-.5 1.6-.8c1.5-1 3.2-1.2 4.8-1.5 1.4.7.3 1.4 0 2-.9 0-1.4.9-2.2 1.1-1.2.1-2.5.3-3.7.3-1.1 0-1.8.6-2.5 1.4-.7.7-1.1 1.4-1.5 2.1z" fill="#599093"/><path d="m72 88.3c-.6-.3-.8-.6-.5-1.1 0-.1.2-.1.3-.1.4.3.2.7.2 1.2z" fill="#5d5957"/><path d="m79.7 66.3c0-.2.1-.3.1-.5.3-.9.7-.5 1-.1.4.6.7 1.3 1.1 2 .2.3.4.6.8.5.5-.1.5-.5.5-.9-.2-1 .4-1.7.9-2.5.3-.4.6-.6 1.1-.5s.5.6.5 1c0 .5-.1.9.4 1.2 1.5.6 1.6 1.9 1.4 3.2 0 .2-.1.4 0 .7.4-.2.4-.7.6-1 .2-.4.4-.9 1-.8.6 0 .7.5.8 1 .1.7.3 1.2.6 1.8v.3c-.2 1.1-.5 2.2-.7 3.3 0 .2-.1.4-.2.6.3-.4.8-.5 1.2-.6.6-.1.8.2.9.8.2.9.1 1.8-.4 2.6-.1.3-.4.5-.6.4-1.2-.8-2.7-.4-3.9-1.5-3-2.8-4.9-6.3-6-10.2-.1-.2 0-.5-.3-.4-.1 0-.1.3-.2.5-.7-.1-.2-.6-.6-.9z" fill="#3b7896"/><path d="m91.2 78.4c-.1-.1-.2-.4-.2-.4.9-.7.1-1.5.3-2.3s-.7-.3-1.1-.3c-.3 0-.9.8-.9-.3.5-1.1.7-2.2.9-3.4v-.2c-.2-.7-.5-1.4-.2-2.1.6-.1.6-.1.7.5.1.9.3 1.9.4 2.8.7-.9 1.4-1.7 1-3-.3-1.1-.5-2.2.2-3.3.4-.5.6-1.2 1.4-1s1.5.9 1.5 1.8c0 .5-.2 1.1.7.7.4-1.2.8-2.4 1.3-3.5.1 0 .2.1.3.1-.3 2.5-1.8 4.8-2 7.3-.6.9-1 1.9-1.1 3-.2.8-.8 1.3-1.3 1.9-.3.3-.6.7-.7 1.1-.5.1-.7.6-1.2.6z" fill="#5e9ead"/><path d="m79.8 66.3c.3.2.1.6.4.8.2 1.4.7 2.8 1.2 4.1.2.5.3.9.3 1.4-1.1-1.9-1.7-4-1.9-6.3z" fill="#abd0cb"/><path d="m52.4 75.4c.8 1.1.4 2.3.4 3.5 0 .5-.5.4-.9.4-1.4-.7-2.6-1.7-4.1-2.1-1.4-1.3-3.2-1.3-4.9-2-.3-.1-.7-.1-.9-.4-.8-.9-1.9-1.4-2.9-2-.2-.2-.5-.3-.7-.5-1.9-1.3-4.2-2.1-6.1-3.4-1.2-.8-1.3-1.7-.2-2.7.1-.1.3-.2.3-.4.5-1.2.8-1.3 1.9-.7.4.2.7.6 1.2.9h.4c1.5 1.1 2.9 2.4 4.6 3.4 1.5.9 3 1.6 4.5 2.3.8.4 1.1 1.2 1.3 2 .3.2.3.4.3.8.1-.4.3-.7.5-1 .1-.1.1-.2.2-.3 1.2.4 2.1 1.1 2 2.6 0 .2 0 .5.2.6.3.1.4-.2.5-.4.7-.8 1.4-1.4 2.4-.6z" fill="#97938c"/><path d="m47.2 73.6c0 .6-.3 1.1 0 1.8-1-.4-.6-1.1-.7-1.6.2 0 .4-.1.7-.2z" fill="#595452"/><path d="m35.6 66.1c-.7-.1-1-.9-1.8-.9-.6 0-1.2-.3-.9.7.1.4-.1.6-.4.6-.6.1-.7.4-.8.9s.2 1 .7 1.2c1.8.8 3.2 2.3 5.1 2.8.4.1.8.6 1 1-.9-.1-1.6-.8-2.3-1.2s-1.5-.5-2.3-.4c-1.3.1-2.5-.7-2.7-2 0-.5-.2-.9-.6-1.2-.3-.3-.4-.6-.2-1 .3-.7 1.1-1.2 1-2.2 0-.4.7-.5 1.2-.4.4.2.8.3 1.1.5.6.6 1.4.9 1.9 1.6z" fill="#7a7570"/><path d="m47.2 29.6c-3.2 2-6.3 4.2-9.6 6-.4.2-.8.3-1.2.5-1.9.7-2.1.4-3.4-1.2-1.5-1.7-2.2-3.8-3.3-5.7-.9-1.6-1-3.5-.6-5.2.7-3.1 1.6-6.2 2.4-9.3.4-1.4.7-2.8.6-4.2 0-1.4-1.1-2.4-2.5-2.2-.5.1-1.1.1-1.6.1 1.6-1.1 3.2-1.8 5.2-1.6.7.1 1.1.3 1.3.9.3 1 .4 1.9.2 3-.8 2.9-2.2 5.6-2.6 8.7-.5 3.1-.9 6.1.6 9.1 1 1.9 2 3.8 4.2 4.7.7.3 1.3.2 2 0 2.8-.8 5.3-2.2 7.7-3.8 2.7-1.7 5.2-3.7 8-5.1 3.9-1.9 7.7-4.1 12.1-4.8.6-.1 1.1-.5 2-.3-1.2 1-2.1 2.1-3.3 2.8-.3-.7-.8-.8-1.5-.6-2 .5-3.8 1.3-5.6 2-3.6 1.4-6.8 3.6-10 5.7-.5.2-.8.3-1.1.5z" fill="#89847e"/><path d="m47.2 29.6c1.7-1.4 3.6-2.5 5.4-3.7 3.6-2.3 7.4-3.9 11.5-5 1-.3 1.3 0 1.1 1-.3.4-.8.5-1.1.7-.1-.8-.7-.8-1.2-.6-2.7.8-5.3 1.7-7.8 3-2.6 1.3-5 3-7.4 4.7-.2-.1-.4-.1-.5-.1z" fill="#7d7873"/><path d="m85.2 28.5v-.2c1.2-.3 2.4-.6 3.6-1-.8 1.5-2.1 1.5-3.6 1.2z" fill="#504b4a"/><path d="m76.8 42.6c.1.5-.2 1-.5 1.4-1 1.3-2.3 2-3.9 2.3 0-.4.8-.6.5-1-.2-.3-.7-.1-1.1-.1-.3 0-.5 0-.8-.1 2-.9 3.9-1.7 5.8-2.5z" fill="#3e3839"/><path d="m78 36h.7c.2 0 .3.1.3.3 0 .1-.1.3-.1.3-1.9.2-3.1 1.9-5 2.1-.2 0-.3.1-.4 0-.1 0-.3-.1-.4-.2-.1-.2.1-.3.3-.4 1.2-.6 2.3-1.2 3.4-1.9.4-.3.7-.2 1.2-.2z" fill="#423d3d"/><path d="m67.3 46.8c-1.8.7-3.3 1.3-5 1.5-.3 0-1 .3-1-.3 0-.5.3-1 .9-1.1 1.6 0 3.2-.3 5.1-.1zm5.2-.5c-.9 1-2.1.6-3.2.7 1-.3 2.1-.5 3.2-.7z" fill="#3e3839"/><path d="m89.3 64.3c-2.6-2.8-2.1-6.3-2.2-9.7 0-1.3.1-2.7.6-3.9.5-1.3 1-2.4 2.6-2.8.8-.2 1.3.1 1.6.7 1.2 2.1 1.7 4.4 1.4 6.9-.1 1.1-.2 2.2-.1 3.3.3.3.2.7.1 1.1-.3 1.3-.7 2.6-1.3 3.9-.4.8-1 1.5-2 1.2-.4-.2-.6-.4-.7-.7z" fill="#282326"/><path d="m90.2 69.3v2.3c-.5-.5-.7-1.1-.7-1.9 0-.3-.1-.7-.5-.8-.5-.1-.6.3-.8.7l-.3.9c-.1.4-.2.9-.7.7-.4-.1-.3-.6-.2-1 .4-2.2.4-2.2-1.5-3.4-.5-.3-.3-.7-.2-1.1s.3-.9-.2-1.1c-.4-.1-.7.2-1 .6-.4.7-1 1.4-.6 2.4.2.5-.3.8-.7 1s-.7 0-.9-.4c-.4-.8-.9-1.6-1.3-2.4-.3-.5-.5-.4-.8-.1v-.9c1.6.3 2.3-.8 2.9-2 .9-1.8 2.1-1.9 4.1-1.4.2.1.1.3.2.5 0 .4.2.7.5.9.2.4.6.7.7 1.1.3 1.2 1.2 1.5 2.3 1.7s1.2.4.8 1.4c-.3.9-.5 1.7-1.1 2.3z" fill="#4b97a8"/><path d="m90.2 69.3c0-.9.6-1.6.9-2.4.2-.6.1-.8-.5-.8-1.6-.1-2.3-.6-2.6-2 .8 0 1.3.5 2 .8.9.3 1.3-.3 1.8-.9.5-.8.9-1.7 1.2-2.7.2-.8.6-1 1.3-.3.1-1.7 0-3.4.1-5 0-.5-.1-1.1.3-1.5v-1.8c.4 1.3.1 2.7.2 4 0 .8 0 1.4.7 2.1 1 1 .8 2.5.6 3.8-.3 1.6-.3 3.1-.6 4.7-.1.5.1.6.5.7-.2.3-.2.9-.7.8-.4-.1-.2-.7-.2-1-.1-.5.1-1-.4-1.4-.5-.3-1-1-1.5-.6-.6.5-1.2 1.4-1 2.3.1.7 0 1.5.5 2.3.3.6-.3 1.4-.7 2.1-.1.3-.4.5-.5.7s-.1.6-.5.4c-.3-.1-.2-.4-.2-.6-.1-1-.2-2-.2-3-.3-.3-.3-.6-.5-.7z" fill="#77b8be"/><path d="m94.8 50.8c-.1.3-.5.5-.4.9-.2-.1-.3-.4-.3-.6.1-1.6-.9-2.9-.9-4.5 0-1.1-.7-2.3-1.4-3.3-.8-1.2-1.3-2.5-1.9-3.9-.3-.8-.1-1.3.7-1.5.7-.2 1.4-.5 2.1-.9.5-.3 1-.3 1.5.3.6.8 1 1.6 1.3 2.5-.6-.5-1.2-.4-1.6.2-.6.8-1.1 1.7-.8 2.7.6 2.3.6 4.6 1.1 6.9 0 .6.4.8.6 1.2z" fill="#bfc2bb"/><path d="m94.5 54.5c0 2.4.2 4.7-.1 7.1-.4-.1-.4-.3-.5-.5l-.4-.4c-.3 0-.3.3-.3.5-.2 1.1-.8 2.1-1.5 3-.5.6-1 1.3-1.9.7-.1-.1-.1-.2 0-.3 1 .3 1.5-.3 1.9-1.1.7-1.5 1.2-3.2 1.5-4.8.4-1.3.2-2.6.4-3.8.1-.8.3-.9.9-.4z" fill="#4a95a3"/><path d="m87 62c-.2-.1-.2-.3-.2-.5-.4-2.7-.6-5.4-.3-8.2.1-1.1.4-2.1.6-3.2-.5-1 0-1.8.7-2.5.7-.3 1-1.5 2-.9.2.4.1.6-.2.8-2 1.6-2.7 3.8-2.8 6.3-.1 2.8 0 5.5.2 8.2zm2.8 2.7v.3l-1.8-.9c-.2-.4-.3-.8-.5-1.1.7.3 1 1.2 1.8 1.4.2 0 .3.1.5.3z" fill="#7ea19f"/><path d="m37 98c-2.2-.2-4-1.1-5.8-2.1-1.7-.9-3.5-1.8-5-2.9-2.2-1.6-4.4-3-6.1-5.1-1.2-1.5-2.7-2.6-3.7-4.2-3.2-5-6.2-10-7.7-15.8-.9-3.4-1.5-6.9-1.4-10.3.1-2.9-.2-5.9.2-8.8.4-3.2.8-6.5 2.1-9.6.3-.8 1-1.4 1.5-2.1.1-.2.3-.4.6-.2.2.2.2.4.1.6-.5.6-.2 1.2.2 1.6.7.8 1.2 1.6 1.3 2.6.1 1.7 1.5 2.8 2 4.2.2.6.4 1.1.6 1.7.2.8.1 1.8 1.1 2.2.1 0 .2.2.2.3.1 2.1 1.5 3.8 1.8 6 .3 2.8 1.5 5.4 2.3 8.1.7 2.3 1.7 4.5 2.5 6.7.6 1.5 1.5 3 1.9 4.5.6 2.2 2.3 3.7 3.2 5.7.4 1.1 1.2 2.1 2.5 2.4.7 1.8 3.1 1.9 3.5 4.1.2 1.4 1.6 2.3 2.5 3.4.7.7.9 1.7 1.6 2.3.1.1.1.4 0 .5-.5.5-.1.8.2 1.1.7.7.6 1.3-.3 1.8-.7.7-1.1 1.5-1.9 1.3z" fill="#282426"/><path d="m38.4 77.6c.7.3 1.2.3 1.5.6 2.3 1.9 5.2 2.9 7.6 4.8 1.6 1.3 3.3 2.5 5 3.8.6.4 1.3.7 2 1.1.5.3.9.8.7 1.3-.2.6-.9.5-1.4.3-3.5-1.1-6.8-2.7-9.8-4.9-.7-.5-1.2-1.2-1.4-2-.5-1.5-1.4-2.6-2.8-3.5-.6-.3-1-.7-1.4-1.5z" fill="#5d5856"/><path d="m39.2 72.9c1.1.2 2 .8 2.8 1.5 1 .8 2.3 1.1 3.5 1.4 1 .2 1.8.5 2.3 1.4-.3-.1-.7-.2-1-.4-1-.6-2-.9-3.1-.5-1.9-.5-3.3-1.8-4.5-3.4z" fill="#75706c"/><path d="m81.6 56.1c.9 1.5.6 2.5-1.1 3.9-.4.1-.9.2-.9.7-.1 1.6-1.4 1.4-2.3 1.5-2.1.2-3.9-2.7-2.8-4.4 1-1.5 2.5-2.6 4.3-3.2.9-.3 1.5.5 2.2 1 .1.1.3.3.6.5z" fill="#f7f4f1"/><path d="m87.7 47.6c-.2.8-.8 1.6-.7 2.5-.6.6-.9 1.3-1.2 2-.6 1.1-1 1.1-1.7.1-.5-.7-1.2-1.4-1.9-1.9-.6-.4-1.1-.5-1.4.3-.1.3-.5.5-.8.8.5-1.7 2-3.9 4.3-3.6 1.1.2 2.3-.3 3.4-.2z" fill="#65aead"/><path d="m90.2 71.8c.1 1.2-.1 2.4-.9 3.4.3-1.1.4-2.3.9-3.4z" fill="#4b97a8"/></svg>